<svg width="342" height="366" fill="none" xmlns="http://www.w3.org/2000/svg"><g clip-path="url(#clip0_192_4149)"><path d="M153.6 73.39l-11.61 26.64-22.11 17.09-19.32 7.74c-3.75-6.22-4.73-13.14-4.51-20.7v-.02c.03-.36.08-.73.12-1.1 1.05-9.1 11.66-38.41 10.84-47.49 1.58 1.17 3.36 2.47 5.28 3.81.25.19.52.38.8.55l.08.06.28.19c.09.07.17.12.25.18.02.01.03.02.06.04.17.12.34.23.52.35.04.03.1.07.14.1 1.24.86 2.54 1.72 3.87 2.57.09.06.19.12.29.18l.42.27c.04.03.09.06.13.08 11.91 7.6 26.24 14.53 33.74 9.94.25-.15.5-.31.74-.48h-.01z" fill="#281A10"/><path d="M332.77 342.32l-19.61 12.82-10-23.16-5.64 33.38-47.48.1.87-3.57c1.27-3.71 4.67-6.13 8.48-6.77l13.99-2.78.48-.1v-.18l-.64-15.21c-1.35-15.58-19.05-27.89-33.55-33.81a.631.631 0 00-.09-.04l-.09-.04-47.11-21.8 37.28-27.78 44.91 36.23c2.93 2.18 6.05 4.05 9.33 5.58.99.48 1.99.91 3.01 1.32.35.14.72.27 1.08.42 1.53.56 3.08 1.07 4.65 1.5l7.46 2.06c6.66 1.83 11.44 5.85 15.12 12.72l17.55 29.11z" fill="#363441"/><path d="M110.01 141.56c-.21-.11-5.31-2.77-10.01-8.78-4.34-5.54-9.09-15.09-7.11-29.09.34-2.37 1.22-6.13 2.35-10.89 3.59-15.21 9.59-40.67 4.16-52.09l.9-.43c5.58 11.74-.47 37.41-4.09 52.74-1.12 4.74-2 8.48-2.33 10.8-1.93 13.65 2.69 22.94 6.9 28.33 4.57 5.84 9.63 8.48 9.68 8.51l-.46.89.01.01z" fill="#3A2413"/><path d="M175.62 90.99l-18.8 11.37-17.62 10.66-3.89 2.35-28.29 17.1c-2.75-2.41-4.86-4.94-6.45-7.61l19.32-7.74L142 100.03l11.61-26.64c-.24.17-.49.32-.74.48-7.5 4.59-21.83-2.34-33.74-9.94-.04-.02-.09-.04-.13-.08l-.42-.27c-.1-.06-.2-.12-.29-.18-1.33-.85-2.63-1.71-3.87-2.57-.04-.03-.1-.07-.14-.1-.18-.12-.35-.23-.52-.35-.02-.02-.03-.03-.06-.04-.09-.06-.17-.11-.25-.18l-.28-.19-.08-.06c-.28-.18-.54-.36-.8-.55-1.92-1.34-3.7-2.64-5.28-3.81 2.06 23.68-9.79 38.38-10.84 47.49-.04.38-.09.74-.12 1.1.86-21.02 7.54-39.28.5-63.72-.03-.12-.07-.24-.1-.36-4.54-15.48 61.88 16.27 61.88 16.27l3.13 6.26.29.59.17.33 2.07 4.14 5.54 11.09.65 1.29 5.46 10.95-.02.01z" fill="#3A2413"/><path d="M179.77 69.8l-3.5 3.72-6.11 6.52-11.21 11.92-19.76 21.06-.09.09-5.26 5.6 1.43-3.27.03-.07 6.68-15.34 11.62-26.64 4.54-10.43.42-.95 2.77 1.02.41.15 1.38.51 1.56.56 15.09 5.55z" fill="#211F2A"/><path d="M150.25 28.53s61.51 78.12 60.67 41.3c-.23-9.96-3.26-40.01-40.26-44.75-15.67-2.01-12.82-10.7-27.32-19.84l6.92 23.29h-.01z" fill="#3A2413"/><path d="M203.77 47.69l-20.84 32.89-14.25-11.18-12.93-10.13-.67-.53.4-27.02 48.29 15.97z" fill="#E08956"/><path d="M166.59 67.81l-10.84-8.39 4.78-13.09c6.04 9.08 6.06 21.48 6.06 21.48z" fill="#211F2A"/><path d="M213.21 50.65c-11.85-19.22-21.1-20.96-31.82-22.98-8.67-1.64-18.49-3.49-31.05-15.6l.35-.36c12.45 12 22.2 13.84 30.8 15.47 10.83 2.04 20.18 3.81 32.15 23.21l-.43.26z" fill="#3A2413"/><path d="M161.45 62.6l-.12.43c-.03.12-.08.25-.12.39-1.18 3.77-3.52 7.25-7.61 9.98-.24.17-.49.32-.74.48-7.5 4.59-21.83-2.34-33.74-9.94-.04-.02-.09-.04-.13-.08l-.42-.27c-.1-.06-.2-.12-.29-.18-1.33-.85-2.63-1.71-3.87-2.57-.04-.03-.1-.07-.14-.1-.18-.12-.35-.23-.52-.35a.127.127 0 00-.06-.04c-.09-.06-.17-.11-.25-.18l-.28-.19-.08-.06c-.28-.18-.54-.36-.8-.55-1.92-1.34-3.7-2.64-5.28-3.81-4.24-3.17-7.57-7.41-9.49-12.34-.03-.06-.06-.12-.08-.19-.33-.84-.63-1.71-.89-2.6-.13-.44-.25-.89-.38-1.35-.57-2.21-.92-4.53-.94-6.87 1.41-6.76 6.88-14.22 19.89-21.51 19.56-10.95 25.75-.55 39.64 16.77.19.23 1.03 6.2.99 6.29-.14.35 9.13 16.03 5.7 28.85l.01-.01z" fill="#E08956"/><path d="M112.5 3.4c-4.55 1.92-7.9 4.3-10.38 6.93-20.19 20.14-.76 50.44-3.04 64.69l5.39-27.92-.37-5.84 1.93-.51 36.18-12.54 15.63-2.53c-7.31-23.37-27.5-29.8-45.33-22.28h-.01z" fill="#3A2413"/><path d="M156.23 30.11a6.16 6.16 0 01-.57 2.08c-.21.41-.46.78-.76 1.12-.15.18-.32.33-.49.46-.13.12-.27.22-.41.31-.01.01-.02.02-.04.03l-.2-.19c-.11-.1-.21-.21-.29-.33l-2.78-2.54 1.69-1.86 1.35 1.23.4.36.18-.18c.34-.36.8-.57 1.29-.6h.08c.19 0 .39.03.56.1l-.01.01z" fill="#E08956"/><path d="M154.6 33.58c-.28.28-.57.5-.89.67l-.14-.13c-.13-.12-.24-.24-.33-.39-.76-1.01-.68-2.45.2-3.41l.28-.29.8.73-.27.31a1.6 1.6 0 00.08 2.24l.29.27h-.02z" fill="#E08956"/><path d="M142.96 33.15c3.55 1.77 9.09 3.29 11.93.15 2.22-2.45 1.92-7.06-2.34-10.37-4.2-3.26-8.13-3.46-10.76-.83-2.99 2.99-3.09 8.92 1.17 11.04v.01z" fill="#E08956"/><path d="M132.18 58.26l-6.88-4.37c-6.91-4.17-13.8-3.2-17.54 2.48l-.42-.28c3.84-5.82 11.16-6.88 18.22-2.62l6.88 4.37-.27.42h.01zm12.062-36.035l-.347 7.392.499.023.347-7.392-.499-.023z" fill="#211F2A"/><path d="M142.629 22.968l-20.202 8.43.193.462 20.202-8.43-.193-.462z" fill="#E08956"/><path d="M107 55.54c-5.17-2.03-7.57-7.41-9.49-12.33-.03-.07-.05-.13-.07-.19-.49-1.27-.92-2.59-1.27-3.95l2.25-3.29 7.27-.12L107 55.53v.01z" fill="#3A2413"/><path d="M252.15 295.53l32.2-63.43 23.56-14.5-167.87-7.02-8.64 1.05c-6.31.76-11.55 5.26-13.26 11.38l-3.6 12.86c-1.88 6.72.89 13.88 6.81 17.58l115.61 72.04 11.13-21.92 4.08-8.04h-.02z" fill="#1B5589"/><path d="M193.3 244.34l-13.62-14.55a53.555 53.555 0 00-33.57-16.67l-13.31-1.38.05-.5 13.31 1.38a54.048 54.048 0 0133.89 16.83L193.67 244l-.37.34z" fill="#0B090C"/><path d="M154.78 193.29l-21.07 10.56c-1.24.62-13.71 12.12-16.84 15.01-.47.43-.84.96-1.09 1.54l-3.7 8.66-6.43 14.46-2.85 6.4s.93.21 2.23.04c.1-.01.2-.03.3-.04 1.64-.28 3.76-1.15 5.44-3.61l1.58-2.65.2 4.1.36 7.56s1.33-.4 2.7-1.56c1.36-1.16 2.77-3.06 2.96-6.06l.42-15.18.58-.97 1.38-2.33.61-1.02c1.01-1.67 2.42-3.05 4.11-3.99l1.87-1.05.77-.26c1.18-.4 2.38.56 2.23 1.8l-1.27 11.23c-.6 3.47.91 5.84 2.3 7.25 1.02 1.03 1.97 1.52 1.97 1.52l1.56-7.29 2.96-13.84 10.88-7.71 22.83-2.36-16.98-20.2-.01-.01z" fill="#E08956"/><path d="M115.09 254.16l.51-.4c-1.37 1.16-2.7 1.56-2.7 1.56l-.36-7.56c3.11 1.11 2.55 6.39 2.55 6.39v.01zm-10.05-4.2c-1.31.17-2.24-.04-2.24-.04l2.85-6.39c1.88 2.32-.51 6.28-.61 6.43zm30.06-12.55l-1.56 7.29s-.95-.5-1.97-1.53c0 0 .37-5.32 3.53-5.77v.01z" fill="#363441"/><path d="M120.95 229.22l-1.38 2.33-7.06-3.48 1.06-2.48 7.38 3.63z" fill="#E5E4E1"/><path d="M118.99 232.52l-6.45 11.01 6.37-8 .08-3.01z" fill="#211F2A"/><path d="M156.5 257.15l9.48 19.1-3.76.39-5.72-19.49z" fill="#0B090C"/><path d="M228.11 331.6l-1.24 33.99h-23.42l4.29-24.86-22.97 24.86h-48.2l.88-4.12a9.632 9.632 0 016.92-7.26l19.09-4.45 13.78-23.12c5.45-10.14 4.01-22.65-.66-33.68-.22-.51-.44-1.02-.69-1.52-.09-.21-.19-.41-.3-.62-.44-.98-.93-1.94-1.44-2.88-.04-.1-.1-.2-.15-.31v-.02c-.14-.24-.28-.49-.41-.72a66.72 66.72 0 00-3.24-5.18l-27.57-44.09 46.41-2.87 12.94 39.95v.04l4.84 14.89c2.33 6.34 5.83 12.2 10.31 17.27l5.13 5.81c4.56 5.17 6.37 11.15 5.7 18.9v-.01z" fill="#363441"/><path d="M189.76 230.91c-1.37-2.85-2.17-4.67-2.32-5.04.64 1.16 1.41 2.87 2.32 5.04z" fill="#79A3D7"/><path d="M291.52 166l-139.54-30.77c-5.52-1.33-11.29.36-15.46 4.53l-11.36 11.35c-4.51 4.5-8.5 17.87-7.3 24.42l35.46 120.03 50.91-21.78-16.83-47.98s9.98 23.37 26.41 43.88c7.17 8.95 24.19 23.56 42.24 26.4 51.84 8.17 78.74-34.77 74.92-55.97l-39.45-74.12v.01z" fill="#1B5589"/><path d="M42.87 148.74l-19.1 10.44a9.858 9.858 0 00-4.93 6.7l-6.22 16.58-7.86 8.62-4.54 4.98s.75.45 2.06.62c.73.1 1.65.11 2.68-.11.9-.18 1.9-.53 2.97-1.12.02-.01.05-.03.08-.04l-5.23 15.43-2.07 6.1s.81.27 1.92.12c.36-.05.75-.14 1.15-.31 1.14-.45 2.37-1.45 3.32-3.51l.27-.63-1.14 5.13-1.15 5.18s.92.2 2.09-.01c1.51-.27 3.44-1.22 4.43-4.15l5.9-18.33-2.59 9.65-1.24 4.62-1.51 5.64s.94.23 2.16-.04c1.57-.34 3.62-1.49 4.78-4.97l8.29-23.7-.09 15.08-.04 6.91s.95-.15 2.04-.92c1.29-.91 2.77-2.7 3.07-6.14l1.6-16.03 4.23-20.78 20.98-2.94-16.34-18.07h.03z" fill="#E08956"/><path d="M28.34 156.68l9.48 15.09-.73 3.55-8.75-18.64zm-16.07 26.74l-4.24 11.94s-.06.07-.09.09c-1.07.59-2.08.94-2.97 1.12l7.3-13.15z" fill="#211F2A"/><path d="M2.65 217.06c-1.11.15-1.92-.12-1.92-.12l2.07-6.1c2.08 1.64-.14 6.22-.14 6.22h-.01zm4.55 5.85c-1.18.22-2.09.01-2.09.01l1.45-6.55c2.33 1.33.67 6.39.64 6.54zm7.15-2.61c-1.22.27-2.16.04-2.16.04l1.71-6.37c2.15 1.17.45 6.33.45 6.33z" fill="#363441"/><path d="M287.99 296.92c-1.48.55-12.41 5.72-33 4.48-5.65-.34-8.3 4.9-8.3 4.9l5.34-10.53c.25.03.48.07.76.11 11.97 1.56 22.26 1.27 31.11-.69.98.48 1.99.91 3.01 1.31.35.14.72.28 1.08.42zm-88.65-36l-21.61-60.09a42.616 42.616 0 00-19.63-22.94l-5.51-3.02.24-.44 5.51 3.02a43.086 43.086 0 0119.86 23.21l21.61 60.09-.47.17z" fill="#211F2A"/><path d="M269.96 297.26l-1.97-.06c-7.28-.22-13.56-.4-19.74-2.45-32.69-10.88-53.6-51.77-61.07-68.85-2.61-5.98-3.97-9.89-3.98-9.93l.47-.16s1.36 3.93 3.97 9.89c7.44 17.02 28.27 57.76 60.77 68.57 6.11 2.02 12.36 2.21 19.6 2.42l1.97.06-.02.5v.01z" fill="#211F2A"/><path d="M29.33 212.7c-1.09.77-2.04.92-2.04.92l.04-6.25c2.27.68 2 5.33 2 5.33zM2.3 196.68h-.01c-1.31-.17-2.06-.62-2.06-.62l4.54-4.98c1.35 2.41-2.47 5.6-2.47 5.6z" fill="#363441"/><path d="M190.12 62l-1.25-18.18-3.26 21.51 4.51-3.33zm-9.91 137.29l17.09-53.16-9.8 4.03-7.29 49.13z" fill="#211F2A"/><path d="M271.76 101.1a114.53 114.53 0 00-4.53-7.45 117.41 117.41 0 00-60.94-46.76l-25.19-8.38-15.63 41.75.15 1.51-5.42 4.2-18.22 14.08-22.11 17.09-19.32 7.74-.87.35-72.79 29.19 23.02 37.05 93.19-23.01 30.05-12.37 4.15 40.93c.97 13.3 4.46 13.96 9.56 19.43l77.61 84.51 77.51-70.91-70.23-128.93.01-.02z" fill="#363441"/><path d="M265.23 300.27l-1.48 1.34-80.46-88.29c-4.05-4.45-5.8-10.39-4.79-16.32l7.89-46.29.1-.58 2.18-.91-.09.58-8.1 47.54c-.91 5.31.65 10.64 4.29 14.63l80.46 88.3zM4.148 206.579l-.296.956 4.27 1.323.296-.955-4.27-1.324zM188.616 42.917l-3.531 22.92.494.076 3.532-22.92-.495-.076z" fill="#E5E4E1"/><path d="M57.22 142.03l-.18-.46 62.71-24.67 72.47-56.71.3.4L120 117.34l-.03.01-62.75 24.68z" fill="#E5E4E1"/><path d="M165.06 82.03l-.47-.17 10.88-28.76.47.18-10.88 28.75z" fill="#E5E4E1"/><path d="M342 365.21H0v.5h342v-.5z" fill="#211F2A"/><path d="M293.84 142.89l-.17-.39h.49l.33-.37-.32.37h.49-.49l-.33.39z" fill="#1F1E1E"/><path d="M144.14 56.05c-2.14-.88-7.01 2.6-7.91 5.22-.79 2.3.74 4.84 2.68 5.28" fill="#A30520"/><path d="M139.04 66.6c2.01.55 4.91-.8 6.05-3.84 1.02-2.72.8-5.85-.83-6.67-.03-.02-.07-.03-.1-.04l-5.23 10.5.12.05h-.01z" fill="#460003"/><path d="M133.57 36.06c.59 1.27 1.43 4.22.23 7.03-1.25 2.9-4.31 5.34-4.31 5.34s-2.77-2.19-3.04-6.38v-.06c-.01-.19-.01-.38 0-.57 0-.49.05-.97.14-1.47 0-.02 0-.04.01-.07.1-.63.25-1.23.45-1.79.96-2.84 2.86-4.69 4.17-4.45.07.02.16.03.25.07.75.27 1.56 1.13 2.13 2.36l-.03-.01z" fill="#fff"/><path d="M133.57 36.06c-.19-.41-.41-.75-.64-1.07h.02c-.93-1.4-2.62-2.6-2.62-2.6-5.36 4.13-5.66 11.4-1.1 16.21l.02.03.47-.4c-1.42-1.97-2.08-4.27-1.97-6.46 1.48 1.08 4.02 1.54 6.04 1.32 1.2-2.8.36-5.76-.23-7.03h.01z" fill="#211F2A"/><path d="M124.47 56.82c0 .07-.01.14-.02.21 0 .01-.01.01-.01.02 0 .06-.01.1-.02.14-.02.12-.06.28-.1.46-.11.45-.31 1.06-.63 1.76-.2.41-.44.85-.74 1.3-.3.45-.66.92-1.09 1.37-.09.08-.15.15-.22.23-1.17 1.15-2.24 1.52-2.52 1.6-.04-.02-.09-.04-.13-.08l-.42-.27c-.1-.06-.2-.12-.29-.18-1.33-.85-2.63-1.71-3.87-2.57-.04-.03-.1-.07-.14-.1-.18-.12-.35-.23-.52-.35.38-.6.86-1.2 1.47-1.77a9.322 9.322 0 011.74-1.3c.2-.12.41-.23.61-.34.21-.11.42-.2.63-.28 3.49-1.31 6.29.13 6.29.13l-.02.02z" fill="#fff"/><path d="M124.47 56.83v-.01c.02-.13.02-.24.02-.24-3.97-1.54-8.82-.13-11.34 3.39l.28.19c.09.07.17.12.25.18.02.01.03.02.06.04.17.12.34.23.52.35.04.03.1.07.14.1.39-.53.82-1.03 1.27-1.46 1.16 1.37 4.11 2.98 6.18 2.72 2-2.13 2.48-4.38 2.59-5.05v-.08c0-.04.01-.09.01-.1v-.01l.02-.02zm158.05 209.62l2.7 2.62-4.06 3.95a6.192 6.192 0 01-7.06 1.11l-.02-.01 8.44-7.66v-.01zm36.11-29.9l-30.38 29.57-2.6-2.51 31.39-28.47 1.59 1.41zm11.41-13.21l-8.74 10.13-1.11-1.19 9.85-8.94z" fill="#211F2A"/><path d="M274.03 274.12l-.33-.37 8.31-7.53.33.37-8.31 7.53zm11.61-10.52l-.34-.38 31.38-28.47.34.37-31.38 28.48zm34.51-31.32l-.34-.37 9.87-8.96.34.37-9.87 8.96zm-55.95-1.48c-.77 0-1.54-.32-2.1-.94l-17.58-19.8a2.766 2.766 0 01.23-3.9l23.98-21.29a2.766 2.766 0 013.9.23l17.6 19.83c1.01 1.14.91 2.89-.23 3.9l-23.95 21.26c-.53.47-1.2.7-1.86.7l.01.01zm6.37-46.13c-.53 0-1.07.19-1.5.57l-23.98 21.29c-.93.83-1.02 2.26-.19 3.19l17.58 19.8c.84.95 2.3 1.04 3.25.19l23.95-21.26c.45-.4.72-.95.76-1.56.04-.6-.16-1.18-.57-1.64l-17.6-19.83c-.45-.5-1.07-.76-1.69-.76l-.01.01z" fill="#E5E4E1"/><path d="M247.97 213.72l-.15-.48 17.55-5.39c1.16-.36 2.11-1.2 2.6-2.31l7.43-16.78.46.2-7.43 16.78a4.703 4.703 0 01-2.91 2.59l-17.55 5.39z" fill="#E5E4E1"/><path d="M263.13 205.24c1.375 0 2.49-1.298 2.49-2.9 0-1.602-1.115-2.9-2.49-2.9-1.375 0-2.49 1.298-2.49 2.9 0 1.602 1.115 2.9 2.49 2.9zm59.37 29.83l-2.53-2.6-11.05-11.64.36-.34 11.05 11.64 2.53 2.6-.36.34zm-3.1 2.88l-2.54-2.64-11.03-11.61.36-.34 11.03 11.61 2.54 2.63-.36.35zm-31.42 28.43l-2.51-2.6-11-11.58.36-.35 11 11.59 2.51 2.59-.36.35zm-3.02 2.94l-2.62-2.7-10.96-11.55.36-.34 10.96 11.55 2.61 2.7-.35.34z" fill="#E5E4E1"/><path d="M312.4 223.77l-.34-.37 10.45-9.48.34.37-10.45 9.48zm-34.51 31.31l-.34-.37 31.38-28.47.34.37-31.38 28.47zm-12.38 11.24l-.34-.37 9.25-8.4.34.37-9.25 8.4zm-60.531-118.992l-6.274 39.434 1.975.314 6.274-39.434-1.975-.314zM80.664 167.342L41.888 178.96l.574 1.916 38.776-11.619-.574-1.915z" fill="#E5E4E1"/><path d="M144.63 24.585l-.272.42 5.756 3.731.272-.42-5.756-3.731z" fill="#211F2A"/><path d="M162.94 36.03c.03.72-.23 1.4-.72 1.93l-.25.29c-.5.52-1.17.83-1.88.85h-.1c-.69 0-1.33-.24-1.83-.72l-4.45-4.13-.14-.13c-.13-.12-.24-.24-.33-.39-.76-1.01-.68-2.45.2-3.41l.28-.29.8.73-.27.31a1.6 1.6 0 00.08 2.24l.29.27 4.31 4c.31.29.68.41 1.15.42.42-.01.81-.19 1.09-.5l.27-.29c.29-.31.43-.72.42-1.14-.01-.43-.19-.81-.51-1.1l-4.6-4.26c-.14-.13-.33-.24-.54-.31.06-.36.07-.75.04-1.14l.08.02c.44.1.85.31 1.17.62l4.6 4.28c.52.46.83 1.13.86 1.86l-.02-.01zm-14.35-16.01l-.07.12c-.25.43-.7.24-.66-.2v-.15l-.38-.03-.18 2.54.36.11 1.26-2.21-.34-.19.01.01z" fill="#E5E4E1"/><path d="M148.55 19.85l-.13.23c-.08.14-.18.2-.28.17-.08-.03-.16-.13-.14-.3l.02-.27-.64-.04-.2 2.76.56.17 1.37-2.4-.56-.32zm-.94 2.42l-.17-.05.16-2.31h.14v.03c-.02.26.1.49.32.55.17.05.4 0 .57-.29v-.01l.12.07-1.15 2.01h.01zM19.934 191.847l-7.243-1.746-.635 2.634 7.243 1.747.635-2.635z" fill="#E5E4E1"/><path d="M7.64 212.64l-.49-.11 5.42-24.45.49.11-5.42 24.45zm7.54-2.5l-.48-.13 5.58-20.81.48.13-5.58 20.81zm187.19 64.44l-.23.14-26.56 16.09c-.44-.98-.93-1.94-1.44-2.88-.04-.1-.1-.2-.15-.31v-.02c-.14-.24-.28-.49-.41-.72l28.55-12.2.24-.1z" fill="#211F2A"/><path d="M279.17 355.78l-.29.41-5.5-3.85.48-.1-.01-.18 5.32 3.72z" fill="#E5E4E1"/><path d="M252.19 295.45l-8.79 17.33c-44.46-23.16-46.36-67.36-57.22-89.2 3.43 8.11 15.9 31.44 27.64 46.1 6.64 8.29 21.75 22.21 38.37 25.77zm-124.46-86.51l17.56 59.44-5.67-3.53-11.89-55.91zm48.35-24.15s-5.84-9.01-14.96-13.25c-9.36-4.36-18.01-3.1-18.01-3.1l30.05-12.37 2.91 28.73.01-.01z" fill="#211F2A"/><path d="M213.91 139.25l-25.32 10.54-2.19.91-43.19 17.97-13.79 3.4-.12-.48 13.75-3.39 43.45-18.08 2.18-.91 25.04-10.42.19.46z" fill="#E5E4E1"/><path d="M190.1 232.11l-2.47-5.03 5.66 15.93.85.77-4.04-11.67z" fill="#211F2A"/><path d="M150.945 78.831l-9.187 21.118.458.2 9.187-21.118-.458-.2z" fill="#E5E4E1"/></g><defs><clipPath id="clip0_192_4149"><path fill="#fff" d="M0 0h342v366H0z"/></clipPath></defs></svg>