<svg width="341" height="248" fill="none" xmlns="http://www.w3.org/2000/svg"><g clip-path="url(#clip0_364_1309)"><path d="M24.505 220.725c-4.607 0-8.336 3.81-8.336 8.518 0 4.707 3.729 8.518 8.335 8.518 4.607 0 8.336-3.811 8.336-8.518 0-4.708-3.729-8.518-8.336-8.518zm0 14.481c-3.224 0-5.836-2.669-5.836-5.963s2.612-5.963 5.835-5.963c3.224 0 5.836 2.669 5.836 5.963s-2.612 5.963-5.835 5.963z" fill="#211F2A"/><path d="M63.535 217.037h-33.16v26.027h33.16v-26.027z" fill="#1B5589"/><path d="M60.888 243.064h-27.88v4.068h27.88v-4.068z" fill="#211F2A"/><path d="M30.375 217.582l4.13 12.472-4.13 12.464" stroke="#211F2A" stroke-width=".5" stroke-miterlimit="10"/><path d="M38.648 217.525l-4.144 12.529 4.144 12.522 4.143-12.522-4.143-12.529z" stroke="#211F2A" stroke-width=".5" stroke-miterlimit="10"/><path d="M46.934 217.525l-4.143 12.529 4.143 12.522 4.143-12.522-4.143-12.529zm8.286 0l-4.143 12.529 4.143 12.522 4.144-12.522-4.144-12.529zm8.308 24.993l-.021.058-4.136-12.522 4.136-12.529.02.057" stroke="#211F2A" stroke-width=".5" stroke-miterlimit="10"/><path d="M271.531 234.094L328.44 82.518 207.023.958" stroke="#211F2A" stroke-width="2" stroke-miterlimit="10"/><path d="M218.603 86.73l-49.072-33.188 40.238-40.658 29.726 20.106-20.892 53.74z" fill="#E5E4E1"/><path d="M224.509 22.248c31.102-10.62 56.719-.488 71.993 22.698 20.73 31.466 31.938 37.58 31.938 37.58s-30.035 80.821 4.368 164.621" stroke="#211F2A" stroke-width=".5" stroke-miterlimit="10"/><path d="M322.04 197.234c-.289-1.561-1.76-2.588-3.286-2.294-1.526.295-2.53 1.8-2.241 3.361l2.524 13.651c.289 1.562 1.76 2.589 3.287 2.294 1.526-.295 2.529-1.799 2.24-3.361l-2.524-13.651z" fill="#363441"/><path d="M224.509 22.851l4.55-7.068" stroke="#211F2A" stroke-width="2" stroke-miterlimit="10"/><path d="M310.14 234.481c-4.382-3.236-10.45-5.238-17.149-5.238h-35.912c-6.7 0-12.767 2.002-17.149 5.238-4.396 3.236-7.107 7.714-7.107 12.651h84.423c0-4.944-2.71-9.415-7.106-12.651zM76.19 187.078h168.586v18.197c0 2.907-2.311 5.275-5.162 5.275H81.351c-2.844 0-5.162-2.361-5.162-5.275v-18.197z" fill="#363441"/><path d="M185.198 247.355h-49.424l6.096-37.049h37.232l6.096 37.049z" fill="#363441"/><path d="M81.772 91.51H239.2c3.083 0 5.583 2.554 5.583 5.704v89.864H76.189V97.214c0-3.15 2.5-5.704 5.583-5.704z" fill="#fff"/><path d="M149.692 152.712l-15.758-33.992c-2.851-6.149-11.411-6.149-14.262 0l-2.788 6.007" stroke="#3A2413" stroke-width="2" stroke-miterlimit="10"/><path d="M115.937 127.663l-.59-.287a1.49 1.49 0 00-2.003.726l-1.941 4.166a1.551 1.551 0 00.711 2.047l.59.287a1.488 1.488 0 002.002-.726l1.942-4.166c.356-.766.038-1.682-.711-2.047zm-5.473 11.751l-.59-.287a1.49 1.49 0 00-2.003.727l-1.941 4.166c-.357.766-.039 1.682.711 2.046l.589.287c.75.365 1.647.04 2.003-.726l1.941-4.166a1.55 1.55 0 00-.71-2.047zm-1.129 1.645l3.82-8.238m-9.248 19.891l3.82-8.238m7.121-15.241l3.82-8.238" stroke="#E5E4E1" stroke-width="2" stroke-miterlimit="10"/><path d="M143.253 180.723h-32.831c-5.096 0-9.11-4.396-8.718-9.542l1.459-19.195a10.796 10.796 0 006.54 2.209h34.268c2.356 0 4.655-.773 6.541-2.209l1.459 19.195c.391 5.146-3.623 9.542-8.718 9.542z" fill="#3A2413"/><path d="M110.824 158.13h32.008m-16.005 5.03c.9 0 1.63-.745 1.63-1.664 0-.92-.73-1.665-1.63-1.665-.899 0-1.629.745-1.629 1.665 0 .919.73 1.664 1.629 1.664z" stroke="#E5E4E1" stroke-width=".5" stroke-miterlimit="10"/><path d="M239.2 91.868c2.886 0 5.231 2.397 5.231 5.346v89.505H76.541V97.214c0-2.949 2.345-5.346 5.231-5.346H239.2zm0-.358H81.772c-3.083 0-5.583 2.554-5.583 5.704v89.864h168.587V97.214c0-3.15-2.5-5.704-5.583-5.704h.007z" fill="#1F1E1E"/><path d="M160.486 203.675c2.528 0 4.578-2.094 4.578-4.678s-2.05-4.679-4.578-4.679c-2.529 0-4.579 2.095-4.579 4.679s2.05 4.678 4.579 4.678z" stroke="#F9F9F9" stroke-width=".5" stroke-miterlimit="10"/><path d="M174.692 166.648v-1.227c0-.79.632-1.435 1.405-1.435h9.859v4.097h-9.859c-.773 0-1.405-.646-1.405-1.435z" fill="#5B6F58"/><path d="M185.949 163.986v4.097h11.264v-4.097h-11.264z" fill="#1B5589"/><path d="M197.213 163.986v4.097h11.264v-4.097h-11.264z" fill="#3A2413"/><path d="M208.477 168.076v-4.098h9.859c.773 0 1.405.646 1.405 1.436v1.227c0 .789-.632 1.435-1.405 1.435h-9.859z" fill="#211F2A"/><path d="M174.692 119.043h45.049m-45.049-4.987h45.049m-45.049 9.759h19.417m-19.417 14.424h12.002m-12.002 4.772h30.288m-30.288 4.772h19.417m-19.417 4.771h12.002" stroke="#211F2A" stroke-width="2" stroke-miterlimit="10"/><path d="M138.36 210.8h46.6" stroke="#F9F9F9" stroke-width=".5" stroke-miterlimit="10"/><path d="M218.055 173.637h-12.549c-1.086 0-1.966.9-1.966 2.009v2.534c0 1.109.88 2.009 1.966 2.009h12.549c1.086 0 1.967-.9 1.967-2.009v-2.534c0-1.109-.881-2.009-1.967-2.009z" fill="#A30520"/><path d="M91.252 101.714H229.72" stroke="#1F1E1E" stroke-width=".5" stroke-miterlimit="10"/><path d="M73.008 43.395c-.274-3.494 1.482-11.624 9.157-16.82m-13.567 16.82s-1.847-20.594 7.591-29.392M71.47 58.407l-5.442-16.203c-4.74-12.852-18.097-10.132-20.26-3.143-7.24 23.415 10.955 105.413-26.348 140.941" stroke="#5B6F58" stroke-width=".5" stroke-miterlimit="10"/><path d="M89.019 60.747h-35.09v3.58h35.09v-3.58z" fill="#B30017"/><path d="M33.935 64.815h74.606" stroke="#211F2A" stroke-width="2" stroke-miterlimit="10"/><path d="M46.955 35.84c-2.374.602-4.389.71-4.501.236-.113-.474 1.713-1.342 4.087-1.945 2.373-.602 4.501-.236 4.501-.236s-1.713 1.341-4.087 1.944zm41.699-1.787c1.412-.89 2.697-1.378 2.865-1.098.169.28-.843 1.227-2.254 2.116-1.412.89-2.865 1.098-2.865 1.098s.843-1.227 2.254-2.116zm-36.271-6.581c-.85-1.528-1.299-2.906-1.01-3.071.287-.165 1.214.933 2.064 2.461.85 1.529 1.011 3.072 1.011 3.072s-1.215-.933-2.065-2.462zm24.515 4.958c1.328-1.111 2.578-1.8 2.795-1.535.218.266-.695 1.385-2.022 2.497a8.559 8.559 0 01-2.795 1.536s.695-1.385 2.022-2.497zm1.974-6.752c.8-2.188 1.79-3.839 2.205-3.674.414.165.105 2.067-.695 4.255-.801 2.19-2.206 3.675-2.206 3.675s-.105-2.067.696-4.256zm4.641-.602c1.735-1.034 3.301-1.594 3.498-1.25.196.345-1.054 1.465-2.788 2.498-1.735 1.033-3.497 1.249-3.497 1.249s1.053-1.464 2.787-2.497zm-15.898 1.227c-.21-2.49 0-4.536.477-4.579.478-.043 1.026 1.938 1.236 4.428.21 2.49-.477 4.578-.477 4.578s-1.025-1.937-1.236-4.427zm3.869-15.601c-.407-1.901-.45-3.516-.084-3.595.365-.079.99 1.4 1.397 3.301.408 1.902.085 3.595.085 3.595s-.99-1.4-1.398-3.3zm1.742 9.056c2.05-2.145 4.045-3.552 4.46-3.143.413.41-.928 2.476-2.978 4.621-2.05 2.146-4.46 3.143-4.46 3.143s.927-2.475 2.978-4.62zm4.522-9.013c2.198-2.296 4.333-3.803 4.775-3.365.443.438-.99 2.655-3.188 4.951-2.198 2.296-4.775 3.366-4.775 3.366s.99-2.655 3.188-4.952zM46.295 46.668c.323 2.511.197 4.592-.28 4.657-.478.064-1.124-1.916-1.447-4.428-.323-2.511.28-4.657.28-4.657s1.124 1.916 1.447 4.428zm.759 73.114c.85 5.074.751 9.315-.218 9.487-.97.165-2.437-3.803-3.28-8.877-.85-5.073.218-9.486.218-9.486s2.437 3.803 3.28 8.876zm-15.141 31.287c-2.886 4.219-4.571 8.102-3.764 8.676.808.574 3.792-2.383 6.679-6.595 2.886-4.219 3.764-8.676 3.764-8.676s-3.792 2.383-6.679 6.595zm-1.229 17.423c-.414 4.112-.119 7.513.668 7.592.786.079 1.755-3.186 2.17-7.298.414-4.111-.668-7.592-.668-7.592s-1.755 3.186-2.17 7.298zM18.74 178.66c-2.255 2.074-3.765 4.112-3.372 4.564.394.452 2.542-.868 4.797-2.935 2.254-2.074 3.37-4.564 3.37-4.564s-2.542.869-4.796 2.935zm21.038-78.181c-1.51 4.909-1.973 9.128-1.039 9.429.934.302 2.914-3.437 4.424-8.345 1.51-4.908 1.04-9.43 1.04-9.43s-2.915 3.438-4.425 8.346zm7.577-21.312c1.089 4.133 1.335 7.664.548 7.88-.786.214-2.31-2.965-3.399-7.098-1.088-4.133-.547-7.879-.547-7.879s2.31 2.964 3.398 7.097zM43.036 60.18c-1.095 3.537-2.528 6.228-3.202 6.006-.674-.223-.33-3.258.759-6.796 1.095-3.537 3.202-6.006 3.202-6.006s.33 3.258-.759 6.796z" fill="#5B6F58"/><path d="M53.928 61.758H89.02l-35.09 1.32v-1.32z" fill="#211F2A"/><path d="M72.081 19.787c1.271-3.545.625-6.66.625-6.66" stroke="#46542E" stroke-width=".5" stroke-miterlimit="10"/><path d="M59.567 34.325c-3.925-1.801-5.639-5.303-5.639-5.303" stroke="#5B6F58" stroke-width=".5" stroke-miterlimit="10"/><path d="M51.695 38.15h39.557v21.757c0 1.02-.807 1.844-1.804 1.844h-35.94c-.998 0-1.806-.825-1.806-1.844V38.15h-.007z" fill="#A30520"/><path d="M83.211 38.121c3.828-3.89 10.33-2.834 12.163 2.662 6.496 19.54-6.7 37.25-6.362 64.231" stroke="#5B6F58" stroke-width=".5" stroke-miterlimit="10"/><path d="M95.353 43.453c-.168 2.31-.66 4.155-1.095 4.119-.435-.036-.66-1.93-.499-4.241.169-2.31 1.096-4.12 1.096-4.12s.66 1.931.498 4.242zm4.017 8.381c.793 2.9.983 5.375.435 5.533-.547.158-1.643-2.067-2.437-4.966-.793-2.899-.435-5.533-.435-5.533s1.643 2.067 2.437 4.966zM93.675 71.36c-1.784 3.258-3.736 5.611-4.354 5.26-.618-.352.323-3.287 2.107-6.545 1.784-3.258 4.354-5.26 4.354-5.26s-.323 3.287-2.107 6.545zm2.022 13.433c.611 4.757.373 8.719-.533 8.84-.906.123-2.135-3.638-2.753-8.395-.611-4.758.534-8.84.534-8.84s2.134 3.637 2.752 8.395zm-4.782 21.535c.21 4.126-.253 7.506-1.04 7.549-.786.043-1.593-3.265-1.811-7.391-.21-4.127 1.04-7.55 1.04-7.55s1.593 3.266 1.811 7.392z" fill="#5B6F58"/><path d="M91.252 57.89c-3.293 0-3.293-6.465-6.587-6.465-3.293 0-3.293 6.466-6.594 6.466-3.3 0-3.293-6.466-6.594-6.466-3.3 0-3.293 6.466-6.594 6.466-3.3 0-3.3-6.466-6.594-6.466-3.293 0-3.3 6.466-6.594 6.466" stroke="#fff" stroke-width=".5" stroke-miterlimit="10"/><path d="M.292 247.132H340.56" stroke="#211F2A" stroke-width=".5" stroke-miterlimit="10"/></g><defs><clipPath id="clip0_364_1309"><path fill="#fff" transform="translate(.292 .355)" d="M0 0h340.269v247H0z"/></clipPath></defs></svg>