<svg id="_контакты" xmlns="http://www.w3.org/2000/svg" viewBox="0 0 342 416.96"><defs><style>.cls-1{fill:#e5e4e1}.cls-2{fill:#a30520}.cls-5{fill:#363441}.cls-6{stroke:#000;stroke-miterlimit:10;stroke-width:.25px}</style></defs><path class="cls-2" d="M190.84 300.25l-.11-1.95c2.42-.13 4.85-.36 7.23-.69l.26 1.94c-2.43.33-4.92.57-7.39.7zm-14.96-.4a88.24 88.24 0 01-14.7-2.85l.54-1.88c4.63 1.32 9.47 2.25 14.38 2.78l-.21 1.95zm-28.68-8.24c-4.61-2.31-8.86-5.04-12.63-8.12l1.24-1.52c3.65 2.98 7.78 5.64 12.26 7.88l-.88 1.75zm-22.95-19.04a50.554 50.554 0 01-6.87-13.39l1.86-.62c1.53 4.56 3.75 8.89 6.61 12.87l-1.59 1.14zm-9.52-28.2c-.02-.64-.03-1.29-.03-1.94 0-3.51.33-7.14.97-10.79.13-.75.28-1.49.43-2.23l1.92.4c-.15.71-.29 1.43-.42 2.17-.63 3.54-.94 7.06-.94 10.45 0 .63.01 1.25.03 1.87l-1.96.07zM122.5 216l-1.78-.82c2.09-4.55 4.76-8.83 7.93-12.72l1.52 1.24c-3.06 3.77-5.64 7.9-7.67 12.3zm18.09-22.45l-1.21-1.54c3.7-2.9 7.79-5.59 12.51-8.2l.95 1.71c-4.63 2.56-8.63 5.19-12.25 8.03zm25.49-14.47l-.78-1.8c3.96-1.71 8.22-3.42 13.82-5.52l.69 1.83c-5.57 2.1-9.8 3.79-13.73 5.49zm27.64-10.65l-.69-1.83c3.86-1.44 8.9-3.36 13.76-5.42l.77 1.8c-4.89 2.08-9.97 4.01-13.84 5.45zm27.3-11.92l-.95-1.71c4.69-2.59 8.66-5.26 12.13-8.14l1.25 1.51c-3.57 2.96-7.64 5.69-12.43 8.34zm22.63-19.37l-1.61-1.11c.4-.59.79-1.19 1.17-1.8 2.23-3.6 4-7.36 5.26-11.2l1.86.61c-1.31 3.98-3.15 7.89-5.46 11.62-.39.64-.8 1.26-1.22 1.87zm9.17-28.35l-1.96-.02v-.52c0-4.67-.7-9.3-2.1-13.78l1.87-.58c1.45 4.66 2.19 9.5 2.19 14.36v.55zm-10.43-27.31c-2.81-4.01-6.18-7.52-10.03-10.41l1.18-1.57c4.01 3.02 7.53 6.67 10.46 10.85l-1.6 1.12zm-22.84-17.03c-4.61-1.46-9.39-2.08-14.28-1.86l-.09-1.96c5.11-.24 10.13.42 14.96 1.95l-.59 1.87zm-35.11 4.42l-.96-1.71c2.21-1.25 4.48-2.34 6.74-3.23l.72 1.82c-2.18.86-4.36 1.91-6.5 3.12z"/><path d="M179.5 80.74l1.33 8.43-40.51 21.01 39.18-29.44zm-4.4-1.46l-3.43-7.95-22.33 28.16 25.76-20.21z" fill="#211f2a"/><path class="cls-2" d="M186.87 79.55l-46.55 30.63 22.73-37.35a4.17 4.17 0 014-1.98l4.61.48-18.96 24.82 26.91-22.9 6.54 1.8c2.08.57 2.52 3.33.71 4.51z"/><rect class="cls-1" x="222.28" y="166.48" width="98.36" height="190" rx="20.84" ry="20.84" transform="rotate(14.65 271.393 261.42)"/><path class="cls-5" d="M338.72 184.54c-3.22-5.49-8.38-9.4-14.53-11.01l-55.7-14.56c-6.16-1.61-12.57-.72-18.06 2.49-5.49 3.22-9.4 8.38-11.01 14.53l-37.73 144.35c-1.61 6.16-.72 12.57 2.49 18.06 3.22 5.49 8.38 9.4 14.53 11.01l55.7 14.56c2.01.52 4.04.78 6.06.78 4.18 0 8.3-1.11 12-3.28 5.49-3.21 9.4-8.38 11.01-14.53l37.73-144.35c1.61-6.16.72-12.57-2.49-18.06zm-4.14 16.33l-37.73 144.35a16.854 16.854 0 01-7.84 10.35 16.848 16.848 0 01-12.87 1.77l-55.7-14.56a16.854 16.854 0 01-10.35-7.84 16.848 16.848 0 01-1.77-12.87l37.73-144.35c1.15-4.39 3.93-8.06 7.84-10.35 2.64-1.54 5.57-2.33 8.55-2.33 1.44 0 2.89.18 4.32.56l8.95 2.34c-.66 3.8 1.69 7.54 5.49 8.53l23.35 6.1c3.8.99 7.68-1.12 8.96-4.76l8.95 2.34c4.39 1.15 8.06 3.93 10.35 7.84 2.29 3.91 2.92 8.48 1.77 12.87z"/><path class="cls-2" d="M259.68 219.3l15.38-2.64c-.47-2.36-2.23-4.37-4.71-5.01l-16.23-4.24a6.48 6.48 0 00-6.6 2.11l12.15 9.79z"/><path class="cls-2" d="M259.14 221.38L246.5 211.2c-.11.27-.21.54-.28.83l-1.91 7.32c-.9 3.46 1.17 7 4.63 7.9l16.23 4.24c3.46.9 7-1.17 7.9-4.63l1.91-7.32c.08-.31.13-.61.16-.92l-16 2.75z"/><path d="M262.76 250.13a5.992 5.992 0 00-8.21-2.14l-13.79 8.08-4.99 2.92a5.992 5.992 0 00-2.14 8.21l2.91 4.97 8.62-5.05-2.97-5.07 10.35-6.06 1.55-.9 2.97 5.07 8.62-5.05-2.91-4.97zm-13.98 40.99l-14.74-3.85c-3.83-1-7.76 1.29-8.76 5.13l-2.77 10.58-.36 1.39-.59 2.27c-.4 1.51 1.09 2.83 2.55 2.27l6.2-2.41 13.54 3.54c3.83 1 7.76-1.29 8.76-5.13l1.31-5.03c1-3.83-1.29-7.76-5.13-8.76zm-14.03 6.44a1.557 1.557 0 01-3.01-.79 1.557 1.557 0 013.01.79zm5.75 1.5a1.557 1.557 0 01-3.01-.79 1.557 1.557 0 013.01.79zm5.62 1.47a1.557 1.557 0 01-3.01-.79 1.557 1.557 0 013.01.79z" fill="#1b5589"/><path class="cls-6" d="M282.55 229.46c-.03-.06-.04-.16-.02-.3l.49-2.33.1-.34.31-1.13c.31-1.18.53-2.06.68-2.66.04-.2.15-.64.33-1.33l.14-.48c.02-.09.02-.15 0-.18-.03-.03-.11-.07-.25-.12-.16-.06-.27-.1-.35-.12-.23-.06-.45-.07-.68-.03-.08.1-.17.33-.27.68-.1.35-.22.79-.36 1.31-.04.12-.17.65-.4 1.6l-.26.98c-.04.15-.08.38-.13.68-.06.35-.11.61-.15.79-.03.11-.08.26-.14.43l-.11.37-.3 1.4c-.03.11-.08.19-.16.23-.08.04-.18.04-.29 0-.23-.06-.31-.2-.25-.42.25-.85.48-1.7.71-2.56l.15-.57c.15-.64.26-1.11.32-1.42.05-.25.12-.6.22-1.06.14-.65.36-1.59.65-2.84.04-.14.09-.23.17-.29.08-.05.18-.07.32-.04.85.2 1.49.36 1.92.47.15.04.27.12.35.25.07.12.08.25.01.38-.08.19-.16.4-.22.66-.05.19-.08.33-.1.43-.02.07-.04.16-.06.27-.02.11-.06.23-.1.36-.05.18-.12.4-.19.67-.17.58-.3.99-.39 1.22-.04.19-.11.49-.2.9-.1.41-.16.71-.19.88-.06.15-.12.3-.16.46-.05.19-.1.48-.15.88-.04.29-.08.52-.12.69l-.06.29c-.05.26-.09.46-.12.58l-.08.26c-.04.19-.16.26-.35.21-.13-.03-.21-.08-.24-.14zm2.39.32l.05-.18c.07-.35.19-.86.35-1.55.12-.6.22-1.06.29-1.38.11-.5.27-1.25.5-2.25.04-.17.09-.41.16-.71s.13-.53.17-.68c.01-.09.04-.22.09-.38.05-.19.09-.32.13-.41.1-.24.27-.32.51-.24.23.06.32.22.26.48l-.04.15-.81 3.06-.38 1.45-.19.73c-.03.11-.06.25-.08.4-.02.15-.04.27-.05.33.1-.22.23-.45.39-.67.16-.22.26-.36.3-.41.2-.26.35-.48.46-.65.36-.57.81-1.27 1.36-2.1.11-.17.25-.38.4-.62.4-.63.67-1.04.8-1.22.12-.18.27-.27.42-.28.08 0 .15 0 .23.02.11.03.22.1.33.2l-.15.58c-.16.61-.31 1.24-.46 1.89-.03.14-.08.35-.15.62l-.09.35c-.02.07-.05.17-.08.29-.04.12-.07.26-.11.43l-.82 3.29c-.03.12-.1.25-.19.38-.04.06-.09.1-.16.12a.34.34 0 01-.2 0c-.23-.06-.31-.2-.26-.41.06-.24.14-.48.22-.7.1-.3.17-.54.21-.7.4-1.61.7-2.82.88-3.62.03-.12.07-.33.11-.61l.08-.45c-.09.06-.15.1-.16.13l-.35.54c-.24.39-.42.67-.55.86l-1.83 2.67-.94 1.35c-.11.15-.23.21-.36.18-.02 0-.07-.03-.15-.07-.1-.06-.14-.14-.12-.25zm6.11 1.94c-.18-.1-.32-.2-.41-.3-.45-.49-.47-1.52-.07-3.07l.09-.33.1-.38.08-.29c.08-.33.16-.61.24-.87.08-.25.16-.53.27-.82.11-.31.21-.56.31-.74.1-.19.24-.39.42-.61.16-.21.33-.36.5-.45.18-.09.39-.15.64-.19.23-.04.49-.01.79.06.12.03.21.09.26.16.05.07.06.15.04.24-.02.08-.07.15-.14.2-.07.05-.14.07-.22.06l-.57-.15c-.16-.04-.33.02-.51.19-.17.17-.33.41-.46.72-.26.57-.44 1.04-.54 1.42l-.02.06-.33 1.16c-.11.34-.22.74-.33 1.17-.08.31-.13.56-.16.76-.04.3-.03.56.02.78.04.24.16.45.38.6.11.08.24.14.38.18.09.02.19.01.29-.03.11.03.19.07.24.13.06.06.08.14.05.23-.08.32-.35.42-.79.3-.18-.05-.36-.12-.54-.23zm2.41.21l.83-3.03.24-.94.47-1.8c.21-.8.37-1.39.48-1.78.01-.05.05-.09.11-.11s.14-.03.22 0c.06.02.12.05.18.11s.09.12.11.2c.04.15.02.35-.04.6-.05.18-.15.45-.3.82-.07.16-.13.35-.2.55l-.12.4c-.04.11-.11.29-.2.53-.09.25-.12.37-.1.37.13.01.27.08.43.2.13.08.2.13.22.14.34.16.56.44.65.86.1.41.12.81.05 1.2-.01.09-.04.22-.09.39-.11.41-.23.74-.38 1.02-.23.55-.67.85-1.33.9-.11 0-.24 0-.39-.05-.11-.03-.24-.07-.37-.11-.13-.05-.22-.08-.27-.1-.16-.05-.23-.16-.21-.33zm.98.05c.16.04.31.03.45-.03s.24-.17.32-.31c.09-.18.21-.44.35-.8.06-.17.12-.31.16-.41.02-.05.04-.12.07-.22.09-.34.11-.67.05-.99-.05-.32-.2-.53-.43-.63-.16-.08-.28-.13-.36-.16l-.84 3.46c.08.05.16.08.23.1zm7.07 2.25l.2-.78.2-.78c.11-.41.22-.94.33-1.62.13-.76.23-1.27.3-1.55l.22-.75c.07-.22.15-.46.22-.74-.06.1-.34.62-.84 1.57-.49.92-.97 1.77-1.44 2.54-.45.74-.76 1.09-.91 1.05-.15-.04-.27-.12-.33-.24a.544.544 0 01-.04-.42c.09-.36.15-1.15.16-2.39.02-1.24 0-2.25-.04-3.05l-.43 1.36c-.37 1.14-.66 2.1-.89 2.86-.21.74-.35 1.25-.43 1.53-.02.07-.03.13-.04.19l-.04.17c-.04.14-.09.23-.17.29-.08.06-.19.06-.34.02a.378.378 0 01-.21-.15c-.06-.08-.08-.16-.06-.23.22-.83.6-2.05 1.16-3.67.56-1.62.94-2.85 1.16-3.68a.43.43 0 01-.01-.25c.03-.1.09-.16.2-.19a.73.73 0 01.36 0c.11.03.2.46.29 1.3.08.84.14 1.78.17 2.81.03 1.04.03 1.78 0 2.24.12-.2.23-.39.32-.57l.15-.27c.56-1.07 1.08-2.03 1.58-2.88.3-.52.57-.92.79-1.2.24-.3.41-.44.54-.41.11.03.21.09.29.17.08.09.11.18.08.27-.15.58-.36 1.47-.61 2.65-.23 1.1-.42 1.95-.58 2.55l-.18.64-.19.64c-.03.1-.05.25-.08.45l-.07.43c-.01.08-.02.13-.03.18 0 .04-.01.07-.01.07a1 1 0 010 .25.59.59 0 01-.22.33c-.11.08-.22.11-.33.08-.25-.07-.31-.35-.18-.85zm3.1.97c-.14-.18-.24-.4-.3-.66a5.01 5.01 0 01-.02-1.73c.07-.57.17-1.11.31-1.62.03-.1.05-.18.08-.24l.06-.22s.01-.06 0-.06l.06-.22.23-.85c.08-.26.22-.66.42-1.22.14-.38.33-.73.58-1.06.1-.15.2-.25.32-.31.11-.06.22-.08.34-.05.32.09.6.22.83.41s.4.41.53.66c.11.24.18.53.22.86.04.33.04.66 0 1.01s-.11.72-.21 1.1l-.02.1c-.07.25-.12.48-.17.68l-.17.7c-.61 2.34-1.46 3.36-2.54 3.08a.995.995 0 01-.53-.35zm1.06-.24c.15-.09.29-.22.41-.41.26-.37.47-.8.63-1.27.15-.4.26-.75.34-1.05.1-.36.19-.85.29-1.46.11-.64.21-1.11.29-1.42l.06-.22c.06-.31.03-.61-.1-.88a.9.9 0 00-.61-.52c-.28-.07-.5.04-.67.33-.15.23-.27.54-.38.94-.04.15-.07.28-.09.39l-.09.33-.17.55c-.06.17-.12.35-.17.55-.11.44-.22.88-.3 1.31-.13.62-.2 1.23-.22 1.84-.03.63.09.98.34 1.05.15.04.3.02.45-.07z"/><path d="M270.26 269.67c-.04-.08-.04-.18-.01-.3.06-.22.1-.41.14-.57.03-.16.06-.3.08-.41.1-.53.19-.92.26-1.18.14-.54.27-1.07.38-1.62.08-.39.16-.76.22-1.14.02-.09.05-.22.07-.38.02-.07.04-.15.07-.24.03-.1.06-.21.08-.33.13-.6.32-1.5.56-2.7.02-.12.07-.2.13-.24.06-.04.16-.05.29-.03.33.05.64.11.91.16.28.05.46.09.55.1.3.1.42.28.36.56-.41 1.63-.71 2.85-.91 3.66-.16.63-.3 1.28-.43 1.94-.16.72-.31 1.43-.44 2.13l-.06.35c-.05.18-.08.36-.1.53v.04c-.05.17-.16.23-.32.19-.08-.02-.12-.07-.13-.13 0-.07.01-.17.05-.32.07-.28.17-.72.29-1.31.02-.12.06-.28.1-.46.04-.18.09-.4.15-.64.05-.18.11-.45.19-.81l.17-.81.24-1.03c.13-.51.26-1.02.37-1.54.04-.16.1-.42.17-.76.12-.51.21-.89.27-1.15-.05-.01-.14-.03-.27-.06s-.25-.04-.34-.05l-.89-.18-.25 1.12c-.06.25-.14.61-.25 1.08a60.336 60.336 0 00-.59 2.81l-.16.8-.14.62c-.12.54-.22.96-.28 1.25l-.09.39c-.01.09-.05.23-.09.41l-.06.23c-.02.07-.04.12-.06.15-.02.03-.05.03-.09.02a.276.276 0 01-.17-.15zm4.79-3.17l.11-.43c.59-2.26 1.18-3.32 1.76-3.17.04.01.09.04.16.08.24.16.48.28.72.37.15.07.26.27.34.59.09.34.12.75.08 1.26-.04.5-.13 1-.26 1.51l-.04.05c-.07.27-.13.51-.17.72l-.18.73c-.11.41-.22.78-.34 1.11-.18.49-.37.9-.58 1.24-.13.2-.26.36-.39.48s-.28.21-.44.28c-.16.06-.33.07-.51.02-.95-.25-1.03-1.86-.25-4.85zm1.18 4c.27-.41.49-.85.64-1.31.16-.48.28-.86.35-1.15.08-.32.19-.81.3-1.45.14-.72.25-1.2.32-1.45l-.02-.11.04-.05c.09-.36.07-.69-.06-1-.13-.31-.34-.5-.62-.58-.37-.1-.64.02-.81.36-.05.12-.11.29-.18.51-.16.6-.29 1-.39 1.21-.03.12-.09.31-.19.56l-.17.57c-.05.18-.08.34-.11.48l-.12.49c-.1.38-.18.83-.24 1.34-.05.38-.07.7-.07.97s.04.51.11.72c.07.23.19.36.35.4.32.08.61-.08.88-.48zm2.46 1.38c-.13-.16-.18-.33-.13-.5.01-.04.03-.09.07-.15a.55.55 0 01.07-.09c.03-.02.07-.04.1-.04.06.01.11.06.16.14.02.05.04.12.06.22.02.1.04.18.08.23.04.05.11.1.23.12.11.03.22.02.32-.03.28-.12.49-.3.61-.55.18-.34.3-.66.38-.94.08-.31.11-.6.08-.86-.02-.24-.06-.44-.12-.61a.57.57 0 00-.31-.35.769.769 0 01-.2-.13c-.05-.05-.07-.12-.07-.23.03-.02.08-.05.15-.1.07-.05.13-.08.2-.08.17 0 .32-.06.43-.15.11-.1.21-.23.3-.4.11-.22.18-.38.21-.49l.25-.9c.06-.22.1-.42.12-.61.02-.19.03-.41.03-.67a.37.37 0 00-.1-.27.964.964 0 00-.29-.17c-.14-.05-.31-.03-.49.05s-.32.18-.39.31l-.16.27c-.12-.06-.21-.11-.24-.14-.04-.04-.05-.08-.03-.14a.8.8 0 01.08-.17c.04-.08.09-.17.15-.27s.12-.16.17-.17c.2-.06.38-.1.54-.12.16-.02.32 0 .48.03.52.14.76.52.71 1.15-.04.28-.08.5-.12.65a38.4 38.4 0 01-.56 1.85c-.1.29-.32.54-.66.75.25.37.37.83.36 1.39 0 .16-.04.36-.1.59-.07.26-.16.51-.26.76-.11.25-.21.44-.32.57-.37.49-.78.68-1.24.56a.995.995 0 01-.54-.33zm3.2 1.01a.275.275 0 01-.02-.2l.09-.38c.08-.29.21-.72.41-1.27.21-.62.34-1.04.39-1.26l.13-.55c.03-.16.08-.34.13-.54.09-.33.22-.8.41-1.44.2-.65.34-1.14.42-1.45l.17-.71-.03-.07.02-.07c.05-.21.17-.29.34-.25.13.03.33.14.6.32.27.18.4.3.38.37v.04c.08.27.11.53.1.78 0 .25-.06.56-.16.92-.15.59-.35 1.06-.57 1.4h.01c-.05.06-.14.15-.28.27l-.24.21c.12.15.2.35.24.6.04.24.05.47.02.68-.01.07-.03.17-.04.27-.02.11-.04.24-.07.38l-.07.32-.04.17c-.2.78-.6 1.29-1.18 1.54-.3.13-.64.15-1.01.05-.07-.02-.11-.06-.15-.12zm1.06-.36c.2-.09.38-.22.53-.4.15-.18.25-.37.31-.58l.03-.05.03-.1.04-.13c.09-.34.14-.67.17-1 .02-.44-.06-.78-.24-1.02a.734.734 0 00-.42-.28c-.22.66-.38 1.21-.49 1.64l-.07.28c-.06.24-.1.42-.11.57-.06.06-.13.25-.21.57l-.08.32-.05.23c.2.05.39.03.59-.05zm.65-3.95c.54.14.94-.33 1.23-1.41.02-.09.06-.27.11-.53l.05-.23-.02-.03c.04-.28.05-.5.03-.67a.662.662 0 00-.12-.33.5.5 0 00-.27-.18c-.18-.05-.41.46-.68 1.52-.05.2-.09.34-.1.42l-.06.24-.11.41c-.04.13-.08.27-.13.43l-.04.15v.17l.1.03zm2.67.85l.11-.43c.59-2.26 1.18-3.32 1.76-3.17.04.01.09.04.16.08.24.16.48.28.72.37.15.07.26.27.34.59.09.34.12.76.08 1.26-.04.5-.13 1-.26 1.51l-.04.05c-.07.27-.13.51-.17.72l-.18.73c-.11.41-.22.78-.34 1.11-.18.49-.37.9-.58 1.24-.13.2-.26.36-.39.48s-.28.21-.44.28c-.16.06-.33.07-.51.02-.95-.25-1.03-1.86-.25-4.85zm1.18 4c.27-.41.49-.85.64-1.31.16-.48.28-.86.36-1.15.08-.32.18-.81.3-1.45.14-.72.25-1.2.31-1.45l-.02-.11.04-.05c.09-.36.07-.69-.06-1-.13-.31-.34-.5-.62-.58-.37-.1-.64.02-.81.36-.05.12-.11.29-.18.51-.16.6-.29 1-.39 1.21-.03.12-.09.31-.19.56l-.17.57c-.05.18-.08.34-.11.48l-.12.49c-.1.38-.18.83-.24 1.34-.05.38-.07.7-.07.97s.04.51.11.72c.07.23.19.36.35.4.32.08.61-.08.88-.48zm3.92 1.92s-.02-.05 0-.1c.02-.07.03-.14.04-.2.35-1.47.6-2.47.74-3.02l-.02-.06.08-.1c.04-.15.06-.3.07-.46l-.17-.1c-.08 0-.16 0-.25-.03-.07-.02-.19-.07-.39-.17-.13-.08-.25-.13-.36-.16h-.15c-.07.3-.14.55-.21.78-.07.22-.14.48-.21.76v.06c-.05.23-.12.57-.22 1.03-.09.45-.17.79-.23 1.02-.02.09-.06.16-.11.21-.05.05-.1.07-.17.05-.18-.05-.2-.31-.08-.8.11-.41.21-.79.3-1.12l.3-1.1c.19-.74.28-1.14.28-1.2.06-.07.15-.33.27-.79.1-.39.21-.87.32-1.44l.1-.48.22-.96c.02-.06.05-.1.1-.14.05-.04.11-.05.17-.03.16.04.18.3.06.77-.14.55-.28 1.05-.4 1.5-.13.44-.27.93-.41 1.46-.03.1.27.23.89.39h.05c.15.05.27.05.36 0 .08-.04.15-.14.18-.28.11-.43.23-1 .35-1.7.15-.76.27-1.33.37-1.7.01-.05.04-.09.09-.11.05-.03.1-.03.16-.02l.1.07c.05.02.09.04.1.07-.17.63-.39 1.58-.67 2.85-.28 1.28-.51 2.23-.67 2.87-.17.63-.33 1.42-.49 2.37l-.02.07a.62.62 0 01-.3-.01c-.1-.03-.15-.05-.17-.06zm.73-4.55l.02.03h-.02v-.03zm1.93 5.2c-.11-.03-.17-.07-.2-.12-.03-.06-.03-.14 0-.24.94-3.88 1.45-6.13 1.55-6.76.02-.16.05-.4.1-.72.02-.11.06-.19.13-.23.07-.05.15-.06.24-.04.15.04.2.17.15.38-.08.28-.26 1.04-.55 2.29-.1.46-.21.89-.31 1.28-.14.54-.31 1.23-.5 2.05l-.22 1.19.13-.1c.38-.53.87-1.23 1.46-2.09.59-.86.94-1.38 1.06-1.57l.26-.35c.22-.29.4-.55.54-.78.09-.13.21-.35.38-.65.13-.22.25-.42.36-.6.12-.18.21-.29.27-.31.04-.02.09-.02.15-.02s.11.01.15.03c.02.01.04.05.05.1.01.05.01.1 0 .14-.03.14-.07.29-.11.46-.05.17-.09.32-.13.46l-.13.51c-.08.32-.19.8-.32 1.44-.04.21-.1.52-.2.95-.03.15-.08.37-.16.65-.11.44-.2.76-.27.97l-.27.98c-.1.39-.19.78-.27 1.18v.02c-.02.06-.06.1-.12.13-.07.03-.13.04-.21.03a.298.298 0 01-.17-.12c-.04-.06-.05-.12-.02-.18l.27-.89.57-1.87.1-.37c.15-.63.32-1.36.53-2.18.21-.82.32-1.24.33-1.26l-.08-.04-1.45 2.11c-1.27 1.87-2.24 3.26-2.92 4.16l-.15-.03zm5.79 1.33l.11-.45c.03-.13.06-.28.1-.44.02-.08.04-.15.07-.2l.07-.22c.02-.08.03-.18.03-.3.14-.54.36-1.56.67-3.06.29-1.45.5-2.43.63-2.94-.5-.13-.84-.23-1-.3-.15-.08-.22-.17-.19-.26.06-.08.15-.1.26-.07.24.06.59.17 1.05.33.41.15.76.26 1.04.34l.26.07.26.05c.15.04.21.11.18.22-.01.05-.05.08-.11.09-.06.02-.13.01-.2 0-.16-.04-.33-.09-.5-.16l-.52-.16s-.05 0-.06.02c-.02.02-.04.1-.07.23-.21.79-.47 1.99-.79 3.62-.34 1.68-.61 2.88-.8 3.6-.02.06-.06.1-.14.13-.08.03-.15.04-.22.02l-.11-.13zm2.86.84c-.05-.09-.05-.23 0-.4.11-.45.28-1.12.51-2.01l.3-1.03a121.382 121.382 0 00.84-3.07c.07-.25.14-.62.21-1.1l.02-.06c.03-.11.07-.19.11-.22.04-.04.11-.04.19-.02.11.03.18.08.23.16.05.08.05.17.02.27-.28 1.02-.5 1.78-.65 2.27-.12.36-.22.71-.31 1.05l.3.08c.43.13.72.4.84.8.16.52.17 1.04.04 1.56-.11.42-.28.78-.5 1.09-.22.3-.51.55-.86.74-.28.16-.59.2-.95.1-.16-.04-.27-.11-.32-.2zm1.03-.28c.2-.06.37-.14.5-.27.35-.35.59-.75.7-1.21.13-.49.13-.92.02-1.29-.12-.37-.42-.62-.91-.74-.12.36-.23.72-.32 1.07-.09.36-.22.9-.37 1.62-.05.18-.11.45-.19.81.17.05.36.05.56 0zm-42.8 32.91s-.05-.1-.05-.16l.06-.17.34-1.31c.15-.59.26-1.02.33-1.32.1-.41.24-1.03.42-1.87 0-.02.02-.07.04-.15.02-.07.03-.15.04-.22-.08.06-.15.13-.23.22-.08.09-.13.15-.15.17-.09.11-.21.18-.37.21s-.32.03-.48-.01c-.26-.07-.43-.19-.5-.37s-.08-.4 0-.68l.84-3.52s.02-.09.02-.14c0-.05.01-.1.03-.16.05-.19.13-.26.25-.22.07.02.12.07.13.14.01.07 0 .15-.01.22-.05.2-.09.35-.11.45-.2.75-.36 1.42-.49 2.03l-.14.6c-.03.13-.07.33-.14.59-.06.22-.06.38-.02.49.04.11.14.18.29.22.13.03.25.03.35-.01.23-.13.43-.33.62-.6.19-.27.31-.53.38-.77.16-.61.37-1.38.63-2.32a.88.88 0 00.02-.17c0-.06.01-.12.03-.18 0-.03.03-.07.06-.11.03-.05.07-.08.13-.08.05 0 .1 0 .15.04.07.06.09.16.05.29-.08.38-.14.64-.18.77-.07.26-.19.7-.37 1.33-.16.5-.3 1-.42 1.48-.14.53-.28 1.18-.41 1.93l-.17.84-.09.39-.11.4-.36 1.69c-.06.13-.15.18-.27.14a.254.254 0 01-.13-.09zm4.3 1.15s-.03-.12-.01-.24c.08-.61.13-.99.16-1.14l.07-.5c-.17-.09-.37-.16-.59-.22l-.43-.14c-.19-.08-.33-.13-.42-.15-.05-.01-.08 0-.1.04 0 .02-.01.03-.02.03l-.09.24c-.05.14-.17.43-.36.84-.1.21-.19.37-.28.47-.1.12-.18.17-.24.16-.05-.01-.1-.05-.14-.11-.04-.06-.06-.11-.05-.16l.02-.03.02-.03c.3-.54.57-1.08.81-1.62l.34-.72.39-.89.34-.77c.1-.21.26-.54.5-1 .26-.52.43-.88.5-1.08.02-.02.07-.17.17-.44.11-.3.2-.52.26-.66.08-.2.14-.32.17-.34l.09.02s.05.02.08.03c.1.02.18.02.24-.02.06.02.1.05.14.09.03.05.04.1.03.15-.1.39-.19.84-.26 1.36-.04.27-.07.49-.09.67-.18 1.07-.47 3.09-.86 6.07v.04c-.03.08-.08.13-.15.16-.12-.03-.2-.07-.22-.1zm.23-2.23c.22-1.19.52-2.95.89-5.29l-1.51 3.08c-.43.89-.68 1.45-.74 1.69-.01.04.13.12.43.23.3.11.57.2.8.26l.12.03zm2.28 2.63l.11-.45c.02-.13.06-.28.1-.44.02-.08.04-.15.07-.2l.07-.22c.02-.08.03-.18.03-.3.14-.54.37-1.56.67-3.06.29-1.45.5-2.43.63-2.94-.5-.13-.84-.23-1-.3-.15-.08-.22-.17-.19-.26.06-.08.15-.1.27-.07.24.06.59.17 1.05.33.41.15.76.26 1.04.34l.26.07.26.05c.15.04.21.11.18.22-.01.05-.05.08-.11.09a.67.67 0 01-.2 0c-.16-.04-.33-.09-.5-.16l-.52-.16s-.05 0-.06.02c-.01.02-.04.1-.07.23-.21.79-.47 1.99-.79 3.62-.34 1.68-.61 2.88-.8 3.6-.01.06-.06.1-.14.13-.08.03-.16.04-.22.02l-.11-.13z"/><rect class="cls-1" x="20.97" y="60.41" width="98.36" height="190" rx="20.84" ry="20.84" transform="rotate(-14.3 70.142 155.399)"/><path class="cls-2" d="M66.83 142.38l12.18-9.76a6.475 6.475 0 00-6.55-2.11l-16.25 4.14c-2.49.63-4.26 2.63-4.74 4.99l15.36 2.74z"/><path class="cls-2" d="M82.2 142.52l-1.87-7.33c-.08-.31-.18-.6-.3-.88l-12.67 10.15-15.99-2.85c.03.31.08.61.16.92l1.87 7.33c.88 3.47 4.41 5.56 7.88 4.68l16.25-4.14c3.47-.88 5.56-4.41 4.68-7.88z"/><path class="cls-6" d="M53.31 181.98a.505.505 0 01-.15-.27c-.43-1.7-.83-3.12-1.19-4.28-.2.02-.35.04-.43.06-.33.09-.57.17-.7.27.12.46.33 1.13.63 2.03.31.96.52 1.64.63 2.05.02.08.02.16-.02.24a.22.22 0 01-.16.15c-.11.03-.25-.13-.44-.49-.27-.52-.67-1.65-1.2-3.39-.36-1.18-.72-2.46-1.07-3.83-.07-.25-.17-.61-.29-1.07-.04-.15.01-.24.15-.27.08-.02.17-.02.27 0s.17.05.22.09c.03.27.1.58.18.93.09.34.21.75.37 1.23.17.55.29.97.36 1.26l.06.22c0 .07.02.14.05.23.02.08.06.19.11.31.05-.01.13-.04.24-.07s.22-.08.33-.12c.26-.09.46-.15.59-.19-.18-.71-.35-1.36-.52-1.96l-.54-2.03-.08-.33c.11-.03.2-.03.29-.02.09.02.16.05.22.09.1.07.18.21.25.43l.07.28c.18.7.56 2.02 1.14 3.98.53 1.77.91 3.1 1.13 3.99.03.11.02.22-.03.33-.05.11-.12.17-.22.2-.11.03-.19.01-.27-.05zm2.97-.79c-.21-.09-.41-.23-.58-.43-.36-.43-.65-.94-.85-1.51-.21-.53-.39-1.06-.52-1.57-.03-.1-.04-.18-.05-.25l-.06-.22s-.02-.06-.03-.06l-.06-.22-.21-.86c-.06-.26-.13-.68-.22-1.27-.06-.4-.06-.8 0-1.2.02-.18.06-.32.12-.43.07-.11.16-.18.27-.2.32-.08.63-.1.92-.05.29.05.55.16.78.33.21.16.42.38.61.64s.35.56.48.88c.14.33.25.68.35 1.06l.02.1c.06.25.13.48.19.68l.19.69c.6 2.34.35 3.65-.74 3.93-.21.05-.42.04-.64-.05zm.81-.73c.09-.15.14-.33.16-.55.05-.45.03-.92-.06-1.41-.07-.42-.14-.79-.21-1.09-.09-.37-.24-.84-.45-1.42-.21-.61-.35-1.07-.43-1.38l-.06-.22c-.09-.3-.27-.55-.52-.72a.91.91 0 00-.79-.16c-.28.07-.42.28-.43.62-.02.27.03.61.13 1.01.04.15.08.28.11.39l.08.33.12.57c.03.17.07.36.12.57.11.44.23.87.37 1.29.19.6.42 1.17.7 1.72.28.57.55.82.8.76.15-.04.27-.13.36-.28zm2.72-.32c-.06-.09-.11-.22-.15-.4-.09-.35-.18-.78-.28-1.3-.08-.5-.17-.94-.27-1.32-.11-.43-.26-1.08-.46-1.95l-.47-1.93c-.02-.07-.06-.18-.12-.32l-.11-.3-.02-.06c-.05-.19-.05-.33-.02-.43.03-.1.13-.18.28-.22.21-.05.46-.05.74 0 .28.06.5.17.67.32.34.33.58.79.73 1.37.11.44.17.82.17 1.13 0 .31-.05.62-.17.92.27.16.49.39.65.7.16.31.3.71.43 1.21s.15.95.07 1.36c-.09.46-.3.82-.64 1.07-.21.14-.42.24-.65.3-.18.04-.31 0-.39-.15zm-.15-6.26c-.27-1.05-.57-1.55-.92-1.52-.04.21.03.66.2 1.35l.46 1.8c.42-.12.51-.66.26-1.64zm1.19 5.08c.08-.29.08-.6 0-.92-.09-.34-.18-.64-.29-.89-.08-.19-.17-.35-.26-.47s-.19-.23-.31-.32a.567.567 0 00-.4-.13c.09.47.23 1.09.42 1.85l.09.47.08.42s.01.03.02.03v.03l.15.55c.25-.12.41-.33.49-.62zm3.29.23c-.21-.09-.41-.23-.58-.43-.36-.43-.65-.94-.85-1.51-.21-.53-.39-1.06-.52-1.57-.03-.1-.04-.18-.05-.25l-.06-.22s-.02-.06-.03-.06l-.06-.22-.21-.86c-.06-.26-.13-.69-.22-1.27-.06-.4-.06-.8 0-1.2.02-.18.06-.32.12-.43.07-.11.16-.17.27-.2.33-.08.63-.1.92-.05.29.05.55.16.78.33.21.16.42.38.61.64.19.27.35.56.48.88.14.33.25.68.35 1.06l.03.1c.06.25.13.48.19.68l.19.69c.6 2.34.35 3.65-.74 3.93-.21.05-.42.04-.64-.05zm.81-.73c.09-.15.14-.33.16-.55.05-.45.03-.92-.06-1.41-.06-.42-.14-.79-.21-1.09-.09-.37-.24-.84-.45-1.42-.21-.61-.35-1.07-.43-1.38l-.06-.22c-.09-.3-.27-.55-.52-.72a.91.91 0 00-.79-.16c-.28.07-.42.28-.43.61-.02.27.02.61.13 1.01.04.15.08.28.11.39l.08.33.12.57c.03.17.07.36.12.57.11.44.23.87.37 1.29.19.6.42 1.17.7 1.72.28.57.55.82.8.76.15-.04.27-.13.36-.28zm3.01-.23a.429.429 0 01-.21-.23l-.08-.32-.06-.24c-.03-.07-.05-.16-.08-.25-.04-.17-.12-.43-.24-.77l-.22-.77c-.1-.4-.24-.99-.42-1.79-.15-.72-.28-1.31-.4-1.79-.03-.11-.09-.28-.17-.5-.08-.23-.14-.4-.17-.5-.15-.58-.05-.91.29-1 .27-.07.59-.09.97-.08.38.02.59.1.63.24.02.08 0 .17-.05.25-.05.09-.12.16-.21.23-.37-.03-.7-.04-.99 0 .04.12.09.29.15.52.08.33.15.62.21.88.08.4.14.69.19.89l.09.19.19-.06c.06-.02.14-.05.24-.07.39-.1.61-.04.67.19.02.09 0 .17-.05.25-.06.08-.14.13-.26.16-.15.04-.26.06-.35.06l-.3.08c.07.21.16.51.26.92l.27 1.1c.1.5.18.87.25 1.12.12.46.18.68.2.68l.4-.11c.14-.04.3-.09.5-.14.31-.08.49-.02.54.17.03.11 0 .21-.09.3a.74.74 0 01-.35.19l-1.04.26a.42.42 0 01-.31-.04zm7.48-2.06a.39.39 0 01-.18-.26c-.12-.38-.23-.77-.33-1.15-.13-.52-.25-1.04-.36-1.56a80.5 80.5 0 00-.27-1.15c-.24-.55-.53-1.47-.87-2.75-.08-.3-.14-.54-.2-.73-.41.11-.72.17-.91.21l-.07.02c-.12.03-.17.11-.15.24l.21.88c.11.42.18.67.23.76.04.09.07.16.07.19.02.07.03.16.05.3.02.13.03.23.05.3.03.12.08.22.14.3.05.07.09.16.12.29.03.13.05.23.07.29.07.25.16.62.27 1.11a14.447 14.447 0 00.43 1.66c.09.29.16.5.2.62l.11.33c.04.13.04.24 0 .33-.04.09-.12.15-.23.18-.04.01-.1.02-.16.02-.08 0-.14-.03-.18-.09a.685.685 0 01-.1-.21l-.3-1.01-.36-1.48c-.24-.87-.41-1.53-.52-1.96l-.26-.98c-.13-.46-.27-.95-.44-1.46l-.15-.49-.02-.07a.304.304 0 010-.19c.02-.04.08-.09.16-.14.15-.08.29-.14.42-.17.07-.02.13-.03.16-.03.07-.02.16-.03.3-.05.18-.03.33-.06.43-.08.15-.04.29-.09.41-.16.08-.05.2-.06.35-.03.15.03.25.09.3.2.04.11.08.2.09.26.02.07.03.11.03.15 0 .11 0 .23.04.37.02.07.04.15.07.24.03.09.06.18.08.28.02.08.03.15.04.2.01.08.04.19.08.36.07.27.19.64.36 1.12l.12.32a4.496 4.496 0 01.18.71c.02.07.03.14.05.24.02.09.05.21.09.33.04.19.12.47.23.84l.08.26.56 1.9c.02.09.02.17-.01.23-.03.07-.11.12-.24.17-.1.04-.2.04-.29-.01zm2.25-.72l-.05-.18c-.1-.34-.25-.84-.44-1.52-.18-.58-.32-1.03-.41-1.35-.15-.49-.37-1.23-.65-2.21-.05-.17-.12-.4-.2-.7-.09-.3-.15-.53-.19-.68-.03-.09-.07-.21-.11-.37-.05-.19-.08-.33-.08-.42-.03-.26.08-.41.32-.46.23-.06.38.04.46.3l.04.15.77 3.07.37 1.45.19.73c.03.11.07.24.13.39s.09.25.12.31c-.02-.25-.01-.5.02-.78.03-.27.05-.44.06-.5.05-.32.08-.59.09-.79.04-.67.09-1.51.17-2.5.02-.2.03-.45.05-.74.04-.75.08-1.23.11-1.46.02-.21.1-.36.24-.45a.95.95 0 01.21-.09c.11-.03.24-.02.38.02l.15.59c.16.61.33 1.24.52 1.88.04.14.1.34.17.62l.09.35c.02.07.04.17.07.29.03.12.07.26.12.42l.87 3.28c.03.12.04.26.02.42 0 .07-.04.13-.08.18-.05.05-.1.09-.17.1-.23.06-.37-.02-.42-.23-.06-.24-.11-.48-.14-.72a7.43 7.43 0 00-.16-.71c-.43-1.6-.75-2.8-.98-3.59-.03-.12-.1-.32-.2-.59l-.15-.43c-.05.1-.08.16-.08.19l-.04.65c-.02.46-.04.79-.07 1.02l-.31 3.22-.17 1.64c-.02.19-.1.3-.23.33-.02 0-.08.01-.16.02-.11 0-.19-.06-.22-.16zm6.27-1.25c-.21 0-.38-.02-.5-.06-.63-.21-1.15-1.1-1.55-2.66l-.08-.33-.1-.38-.07-.29-.21-.87c-.06-.26-.11-.54-.16-.85a4.52 4.52 0 01-.09-.8c0-.21.02-.46.07-.74.04-.26.11-.47.22-.64.11-.17.27-.32.47-.47.18-.14.42-.25.72-.33.12-.03.22-.03.3.01.08.04.13.11.15.2.02.08.01.16-.02.24-.04.08-.09.13-.16.16l-.57.15c-.16.04-.28.18-.35.41-.07.23-.09.52-.05.86.05.63.12 1.13.21 1.5l.02.06.27 1.18c.07.35.16.75.28 1.19.08.31.15.56.23.75.12.28.25.51.39.68.15.19.36.31.62.35.13.02.27 0 .42-.03.09-.02.17-.08.24-.16.11-.03.2-.03.28 0 .08.03.13.09.15.18.08.32-.1.53-.55.65-.18.05-.37.07-.59.07zm2.21-.99l-.74-3.06-.24-.94-.46-1.8c-.2-.8-.35-1.39-.44-1.79-.01-.05 0-.1.04-.15s.1-.09.19-.11a.38.38 0 01.21.01c.08.02.14.07.19.12.11.11.19.29.26.54.05.18.09.47.13.86.02.18.05.37.09.57.04.21.07.34.09.41.01.12.04.3.09.56.04.26.07.38.09.37.12-.05.28-.06.47-.03.15.01.24.02.26.01.37-.03.7.12.98.44.29.31.49.65.62 1.02.03.09.07.22.11.39.1.41.16.77.16 1.08.06.59-.18 1.07-.73 1.43-.09.06-.21.11-.36.15-.11.03-.24.05-.38.08-.14.02-.23.04-.28.04-.16.03-.28-.03-.35-.18zm.88-.43c.16-.04.29-.12.38-.25.09-.12.13-.26.12-.43 0-.2-.03-.49-.08-.88-.03-.18-.05-.33-.06-.44 0-.05-.02-.13-.04-.22-.09-.34-.23-.64-.44-.89-.2-.26-.43-.37-.68-.34-.18.01-.31.02-.39.04l.94 3.43c.1 0 .18 0 .25-.02zm7.29-1.45l-.2-.78-.2-.78c-.1-.41-.27-.93-.49-1.58-.25-.72-.42-1.22-.49-1.5l-.17-.76c-.04-.22-.09-.47-.16-.75 0 .11 0 .71.03 1.78.01 1.04 0 2.02-.04 2.92-.04.87-.14 1.32-.29 1.36s-.29.02-.41-.04a.534.534 0 01-.24-.35c-.09-.36-.43-1.08-1.01-2.17s-1.09-1.97-1.51-2.65l.28 1.4c.23 1.18.43 2.16.61 2.93.17.75.3 1.27.37 1.54.02.07.04.13.06.18l.04.17c.04.14.03.25 0 .33-.04.08-.14.15-.29.18-.08.02-.17 0-.25-.03a.266.266 0 01-.16-.17c-.21-.83-.47-2.09-.77-3.78-.3-1.69-.56-2.95-.77-3.78a.393.393 0 01-.13-.21c-.02-.1 0-.18.08-.26.08-.08.18-.13.32-.17.11-.03.4.31.88 1s.98 1.49 1.51 2.38c.53.89.89 1.55 1.08 1.96v-.96c-.03-1.2-.03-2.3 0-3.28.01-.6.05-1.08.12-1.43.06-.38.15-.58.27-.61.11-.03.22-.02.33.01.11.04.18.1.2.2.15.59.4 1.46.74 2.61.33 1.07.58 1.91.73 2.51l.15.65.14.65c.02.1.07.24.15.43l.14.42c.03.07.05.13.06.17s.02.06.02.07c.07.1.11.17.12.22.04.14.03.27-.03.4-.05.13-.14.2-.25.23-.25.06-.44-.15-.57-.66zm3.18-.65c-.21-.09-.41-.23-.58-.43-.36-.43-.65-.94-.85-1.51-.21-.53-.39-1.06-.52-1.57-.03-.1-.04-.18-.05-.25l-.06-.22s-.02-.06-.03-.06l-.06-.22-.21-.86c-.06-.26-.13-.68-.22-1.27-.06-.4-.06-.8 0-1.2.02-.18.06-.32.12-.43.07-.11.16-.18.27-.2.33-.08.63-.1.92-.05.29.05.55.16.78.33.21.16.42.38.61.64s.35.56.48.88c.14.33.25.68.35 1.06l.02.1c.06.25.13.48.19.68l.19.69c.6 2.34.35 3.65-.74 3.93-.21.05-.42.04-.64-.05zm.81-.73c.09-.15.14-.33.16-.55.05-.45.03-.92-.06-1.41-.07-.42-.14-.79-.21-1.09-.09-.37-.24-.84-.45-1.42-.21-.61-.35-1.07-.43-1.38l-.06-.22c-.1-.3-.27-.55-.52-.72s-.51-.23-.79-.16-.42.28-.43.62c-.02.27.02.61.13 1.01.04.15.08.28.11.39l.08.33.12.57c.03.17.07.36.12.57.11.44.23.87.37 1.29.19.6.42 1.17.7 1.72.28.57.55.82.8.76.15-.04.27-.13.36-.28z"/><path class="cls-5" d="M139.55 214.71L102.7 70.13c-3.24-12.73-16.24-20.44-28.97-17.2L17.95 67.15C11.78 68.72 6.6 72.6 3.35 78.07S-.82 89.95.75 96.12L37.6 240.7c2.74 10.76 12.46 17.94 23.09 17.94 1.94 0 3.91-.24 5.88-.74l55.78-14.22c6.17-1.57 11.35-5.45 14.6-10.92s4.17-11.88 2.6-18.05zm-8.49 14.55c-2.31 3.9-6.01 6.66-10.4 7.78l-55.78 14.22c-9.07 2.31-18.33-3.19-20.64-12.25L7.39 94.42a16.89 16.89 0 011.85-12.86c2.31-3.9 6.01-6.66 10.4-7.78l8.96-2.28c1.26 3.65 5.13 5.78 8.93 4.81l23.39-5.96a7.49 7.49 0 005.54-8.5l8.96-2.28c1.4-.36 2.81-.53 4.19-.53 7.57 0 14.49 5.11 16.45 12.78l36.85 144.58c1.12 4.39.46 8.96-1.85 12.86z"/></svg>