<svg id="_финальные_цвета" xmlns="http://www.w3.org/2000/svg" viewBox="0 0 342 306.04"><defs><style>.cls-4{fill:#faf5f1}.cls-6{fill:#a30520}.cls-7{fill:#b30017}.cls-8{fill:#241f21}.cls-9{fill:#211f2a}.cls-10{fill:#5b6f58}</style></defs><path class="cls-10" d="M235.89 275.75l-.49-.11 31.55-139.84c2.35-10.41 10.29-18.17 20.73-20.27 10.51-2.11 20.91 2.02 27.13 10.78 6.43 9.05 10.56 17.55 15.29 38.91l-.49.11c-4.71-21.28-8.81-29.73-15.21-38.73-6.11-8.6-16.31-12.65-26.63-10.58-10.24 2.06-18.04 9.68-20.34 19.89l-31.55 139.84z"/><circle class="cls-7" cx="329.86" cy="165.19" r="3.88"/><path class="cls-10" d="M316.07 150.6c0-.28-.19-28.38-16.16-34.23l.17-.47c16.3 5.97 16.49 34.42 16.49 34.7h-.5z"/><circle class="cls-7" cx="316.32" cy="150.6" r="3.88"/><path class="cls-10" d="M295.88 103.12c7.54-5.92 14.58-9.54 15.74-8.07s-4.02 7.46-11.56 13.38c-7.54 5.92-15.74 8.07-15.74 8.07s4.02-7.46 11.56-13.38zm-27.62 39.12c4.05-5.51 8.2-9.35 9.27-8.56s-1.34 5.9-5.39 11.41-9.27 8.56-9.27 8.56 1.34-5.9 5.39-11.41zm-3.57 5.88l-.49-.11c1.55-6.88 3.77-23.84-9.14-32.59l.28-.41c13.16 8.92 10.92 26.13 9.34 33.11z"/><circle class="cls-7" cx="255.2" cy="115.22" r="3.88"/><path d="M249.5 122.98v-.02c-.92-8.13-5.51-11.86-8.86-14.58l-.4-.33c-1.94-1.58-3.07-3.48-3.28-5.5-.21-2.04.54-4.22 2.11-6.14l1.12-1.37c3.29-4.02 2.69-9.96-1.33-13.25l-2.92-2.39c-3.89-3.18-4.47-8.94-1.29-12.84l1.75-2.14a7.695 7.695 0 001.72-5.7 7.752 7.752 0 00-2.82-5.25c-2.43-1.99-2.79-5.59-.8-8.03l1.26-1.54a6.103 6.103 0 001.35-4.48 6.071 6.071 0 00-2.21-4.12c-1.76-1.44-2.02-4.04-.58-5.79l.43-.53-1.55-1.27-.43.53c-2.13 2.61-1.75 6.47.86 8.61a4.1 4.1 0 011.49 2.78c.11 1.09-.21 2.16-.91 3.02l-1.26 1.54a7.647 7.647 0 00-1.7 5.65c.21 2.05 1.2 3.89 2.79 5.2 1.19.98 1.94 2.36 2.09 3.9s-.3 3.04-1.28 4.24l-1.75 2.14c-3.88 4.75-3.18 11.77 1.57 15.65l2.92 2.39a7.337 7.337 0 012.68 5c.2 1.97-.38 3.9-1.64 5.43l-1.12 1.37c-1.91 2.33-2.81 5.03-2.55 7.6.26 2.56 1.64 4.93 4 6.85l.41.33c3.26 2.64 7.31 5.93 8.14 13.27v.02l19.83 146.54 1.98-.27-19.82-146.52z" fill="#3a2413"/><path class="cls-10" d="M260.18 255.21l-22.77-106.53c-3.95-18.48-15.88-34-32.72-42.58l-31.34-15.96.23-.45 31.34 15.96c16.98 8.65 29 24.29 32.98 42.92l22.77 106.53-.49.11z"/><path d="M176.42 91.39a3.628 3.628 0 01-5.07 1.48L148.82 79.6a1.983 1.983 0 01-.76-2.62c.48-.94 1.6-1.34 2.56-.93l24 10.37a3.62 3.62 0 011.79 4.97z" fill="#e7c800"/><path class="cls-10" d="M213.27 112.31c-5.92-3.44-10.69-9.85-13.8-18.55-2.33-6.52-2.91-11.95-2.93-12.17l1.99-.21c.02.21 2.39 21.45 15.75 29.21l-1 1.73zm-27.95-15.22c-5.98-3.48-15.61-.16-15.71-.12l-.66-1.89c.43-.15 10.6-3.67 17.38.28l-1.01 1.73zm26.03 56.24c-6.73 1.24-12.38 1.19-12.62-.12-.24-1.31 5.02-3.38 11.74-4.62 6.73-1.24 12.62.12 12.62.12s-5.02 3.38-11.74 4.62zm-9.53 44.19c-2.08 9.52-5.26 16.91-7.12 16.51-1.85-.4-1.67-8.45.41-17.97s7.12-16.51 7.12-16.51 1.67 8.45-.41 17.97zm-27.26 35.2l-.5-.04c.01-.14 1.22-14.24 10.07-23.62l.36.34c-8.73 9.24-9.93 23.17-9.94 23.31z"/><circle class="cls-7" cx="175.08" cy="232.46" r="3.88"/><path class="cls-10" d="M281.63 242.06l-29.91-78.26c-3.72-9.86-10.25-15.67-18.39-16.37-7.86-.68-16.43 3.72-20.37 10.45-2.41 4.1-4.93 9.5-7.61 15.22-10.89 23.29-25.77 55.11-56.66 55.11-.33 0-.67 0-1-.01v-.5c.34 0 .67.01 1 .01 30.58 0 45.38-31.65 56.21-54.82 2.68-5.73 5.21-11.14 7.63-15.26 4.04-6.88 12.8-11.38 20.85-10.69 8.35.71 15.03 6.64 18.82 16.69l29.9 78.25-.47.18z"/><circle class="cls-7" cx="146.54" cy="227.98" r="3.88"/><path d="M288.91 193.05l-13.01 93.43h-44.57l-12.99-93.3c-.81-5.81-.32-11.78 1.8-17.25 3.1-8.02 9-14.65 16.5-18.69h33.95c3.1 1.67 5.93 3.78 8.4 6.25a35.75 35.75 0 018.89 14.7c1.49 4.79 1.72 9.89 1.03 14.86z" fill="#e5e4e1"/><path class="cls-10" d="M234.01 139.81c-8.87-18.02-27.87-12.93-28.67-12.7l-.54-1.92c.21-.06 21.4-5.79 31.01 13.74l-1.79.88z"/><path fill="#00578d" d="M18.83 186.89h115.89v99.56H18.83z"/><path class="cls-9" d="M51.46 242.73h-1.09l1.66 43.72h7.1l31.48-4.32-39.15-39.4z"/><path transform="rotate(-94.39 85.654 260.776)" fill="#fff" d="M63.99 228.06h43.34v65.43H63.99z"/><path d="M60 267.25a.496.496 0 01-.13-.33c-.02-.27-.04-.5-.07-.7s-.05-.36-.07-.5c-.09-.64-.15-1.12-.17-1.44-.05-.66-.12-1.32-.2-1.98-.06-.47-.12-.93-.2-1.38 0-.11-.03-.27-.07-.46 0-.08-.01-.18-.01-.3s-.02-.26-.04-.41c-.09-.73-.23-1.83-.42-3.29-.02-.15 0-.26.05-.32.06-.07.16-.11.32-.15.4-.07.76-.13 1.1-.18.34-.05.56-.08.67-.1.38 0 .59.16.63.5.17 2.01.31 3.51.41 4.52.07.78.16 1.57.27 2.37.1.88.21 1.75.34 2.6l.06.42c.02.22.05.44.1.64v.04c.02.21-.07.33-.27.34-.1 0-.17-.02-.2-.1-.03-.07-.05-.2-.07-.38-.03-.35-.09-.89-.18-1.61-.02-.15-.05-.34-.07-.56-.03-.23-.05-.49-.08-.79-.02-.22-.05-.55-.11-.99l-.12-.99-.13-1.26c-.05-.63-.11-1.27-.19-1.9-.01-.2-.05-.51-.1-.93-.07-.62-.11-1.09-.14-1.41-.06 0-.17.02-.33.04s-.29.05-.4.08l-1.08.14.15 1.37c.03.31.08.75.14 1.32.06.57.11 1.06.17 1.47.05.46.14 1.11.27 1.95l.13.98.09.75c.07.66.13 1.17.18 1.53l.05.48c.02.11.04.27.05.5l.02.29v.19c-.01.04-.04.06-.09.06-.09 0-.17-.03-.25-.11zm5.03-.07c-.16-.63-.27-1.34-.33-2.16-.03-.32-.05-.79-.06-1.4l-.08-1.4c-.08-.13-.13-.25-.13-.34.09-.17.1-.64.05-1.4-.14-1.83-.24-2.8-.3-2.92.07-.26.13-.39.18-.4l.66-.05c.11 0 .27.03.49.12.21.09.4.19.55.3.27.21.44.79.51 1.75.04.51.06.91.05 1.18 0 .19-.03.35-.06.46-.04.11-.1.24-.18.39-.13.24-.37.46-.72.66-.14.09-.35.19-.61.29l.14 1.79c.02.25.08.74.19 1.47l.07.48.1.98c.01.18-.07.28-.27.29l-.23-.1zm.78-5.9c.06-.11.12-.25.16-.42.05-.18.08-.34.08-.51.04-.3.04-.64.01-1.02l-.03-.41c-.01-.14-.03-.27-.05-.4-.02-.13-.05-.25-.09-.37-.05-.13-.11-.23-.18-.31a.836.836 0 00-.28-.2 1 1 0 00-.44-.06c-.12 0-.2.05-.25.11-.05.06-.06.17-.05.32.02.24.06.6.13 1.08l.11 1.08c.02.26.03.5.02.71l.03.71.12.14c.29-.02.53-.18.71-.46zm3.6 5.38c-.13.01-.22-.01-.28-.06-.05-.05-.08-.14-.1-.27-.46-4.77-.76-7.54-.89-8.28-.05-.19-.1-.47-.17-.85-.02-.13 0-.23.06-.32.06-.08.14-.12.25-.13.19-.01.3.11.32.37.02.35.11 1.29.28 2.81.06.56.11 1.09.15 1.58.05.67.13 1.52.24 2.53l.22 1.44.11-.16c.23-.76.5-1.74.83-2.94.33-1.21.53-1.94.59-2.2l.16-.5c.13-.41.23-.78.31-1.1.05-.19.1-.48.17-.89.06-.3.12-.57.18-.82s.12-.41.18-.46c.04-.03.09-.06.16-.08.07-.02.13-.03.18-.02.03 0 .06.04.1.09.03.05.05.1.06.15.02.17.04.36.05.57.01.21.02.39.04.57l.05.63c.03.39.09.98.2 1.76.04.25.09.63.15 1.15.02.18.05.45.08.8.04.54.07.95.08 1.21l.08 1.22c.04.48.09.96.16 1.44v.03c0 .07-.02.14-.08.2s-.14.1-.23.12c-.09 0-.17-.02-.24-.07a.233.233 0 01-.1-.2l-.04-1.12-.09-2.34-.03-.45c-.08-.77-.16-1.67-.25-2.69s-.13-1.54-.12-1.56h-.1l-.82 2.95c-.71 2.62-1.27 4.58-1.69 5.88l-.18.03zm6.39-.49c-.08 0-.15-.02-.21-.07a.377.377 0 01-.1-.24 320.105 320.105 0 01-.38-4.28l-.06-.81c-.05-.95-.09-1.66-.1-2.13 0-.37-.03-.91-.07-1.62 0-.1 0-.26-.02-.48-.01-.15 0-.26.05-.34.04-.07.13-.12.25-.13.28-.02.63 0 1.05.06l.46.04c.07 0 .12.03.16.08.03.05.04.1.03.16 0 .05-.03.1-.07.15-.04.05-.09.08-.14.11h-.05c-.06 0-.15 0-.27-.04l-.85-.08v.42c0 .91 0 1.5.02 1.77l.09 2.19c0 .38.01.68 0 .89v.48c.03.26.08.7.16 1.33.08.63.16 1.23.25 1.82.02.1.06.28.12.55-.03.01-.07.03-.11.06-.04.03-.08.05-.11.06-.03.01-.06.02-.1.02zm3.08-.22c-.12 0-.2-.05-.24-.16v-.05c0-.07.03-.14.1-.2.08-.06.13-.1.16-.12.18-.18.31-.38.4-.62.09-.24.17-.56.25-.96.14-.79.18-1.68.1-2.67-.02-.25-.06-.63-.12-1.13-.08-.62-.16-1.34-.24-2.15-.08-.81-.13-1.33-.13-1.55-.01 0-.02 0-.04.01-.02 0-.05.01-.08.01-.22.02-.34-.02-.34-.12 0-.11.06-.2.22-.27.14-.07.31-.11.51-.12.19 0 .32-.02.38-.02l.72-.05c.34-.03.53-.05.57-.06.25-.04.43-.03.55.03s.18.19.2.39v.21c-.02.3-.01.63.02 1.02l.1 1.07c.05.61.08 1.07.09 1.37l.09 1.39.03.45c.05.58.14 1.46.29 2.65.01.15.03.32.07.5s.06.32.08.4v.06c.01.1 0 .17-.03.22s-.1.07-.2.09h-.03c-.09 0-.16-.01-.22-.06-.06-.05-.09-.12-.1-.22l-.06-.95c-.02-.37-.06-.93-.11-1.68l-.35-3.96-.06-.94c-.03-.4-.08-.79-.13-1.15 0-.06-.05-.18-.12-.35l-1.64.13.15 1.19.11.87c.15 1.42.25 2.49.31 3.2.06 1.09-.02 2.1-.24 3.03-.13.53-.37.91-.71 1.16-.12.08-.21.12-.29.13zm8.65-.6s-.08-.12-.11-.27c-.15-.73-.24-1.18-.27-1.36l-.12-.6c-.22-.03-.48-.04-.76-.02H85.2c-.06 0-.09.03-.1.08 0 .03 0 .04-.01.05v.3c0 .18-.03.55-.09 1.1-.03.28-.07.49-.13.65-.07.18-.14.27-.21.27-.06 0-.13-.02-.2-.07-.08-.05-.12-.1-.12-.17v-.05l.02-.05c.12-.73.22-1.45.29-2.16l.11-.95.09-1.16.09-1.01c.03-.27.08-.72.17-1.33.09-.69.14-1.17.15-1.42 0-.03.01-.22.02-.56.01-.38.02-.67.04-.85.01-.26.03-.42.06-.46h.21c.12 0 .21-.05.26-.11.07 0 .14.01.19.05.06.04.09.09.1.15.04.48.11 1.03.23 1.65.07.32.12.58.15.79.21 1.29.68 3.7 1.4 7.23v.05c.01.1-.02.18-.1.23-.15.01-.25 0-.29-.03zm-.61-2.63c-.21-1.44-.57-3.56-1.06-6.36l-.51 4.09c-.14 1.17-.2 1.91-.18 2.21 0 .05.2.08.58.09.38.01.72 0 1.01-.02h.15zm6.54 2.1c-.16.01-.28.02-.36.01h-.38l-2.56.18c-.22 0-.36-.01-.41-.06-.05-.05-.08-.18-.1-.4-.1-1.36-.19-2.38-.25-3.06-.13-1.44-.24-2.59-.33-3.43l-.06-.59c-.08-.78-.17-1.48-.27-2.09v-.06c0-.07 0-.12.02-.16.02-.04.07-.07.14-.1l.06-.02c.07 0 .14.01.21.06.07.05.12.1.14.17.02.1.03.25.05.44.13 1.22.22 2.09.26 2.59.03.25.05.63.07 1.15.01.4.03.7.04.91.04.53.12 1.33.24 2.39.02.26.06.66.12 1.2l.09.54h.18c.05 0 .1.01.14.02.04 0 .1.01.18.02h.2c.09 0 .22 0 .39-.02s.29-.03.36-.05c0-.04.01-.09.02-.14v-.18l-.12-1.78-.1-.9c-.05-.42-.12-1.04-.2-1.87l-.15-1.55c-.02-.31-.07-.83-.15-1.55-.03-.29-.09-.72-.18-1.3v-.03c-.02-.19.07-.31.26-.35h.03c.07 0 .14.01.21.06.07.05.11.1.13.17.04.56.08 1.17.11 1.81l.16 2.52c.03.41.1 1.09.2 2.05s.18 1.64.23 2.06c.04.28.07.5.08.65 0 .13.01.23 0 .29 0-.01.16-.03.5-.05.36-.03.57-.03.64-.02h.1c.14-.02.25-.04.34-.08-.01-.67-.03-1.19-.06-1.56-.08-1.03-.17-2.06-.28-3.09-.09-.92-.17-1.66-.23-2.2l-.05-.51c-.03-.26-.06-.49-.1-.69-.03-.2-.06-.37-.08-.51l-.09-.6v-.06c-.02-.15.04-.25.17-.3.03-.01.07-.02.12-.03.12 0 .22.05.29.16.05.09.08.2.09.34.06.84.11 1.47.13 1.9l.07.72.11 1.46c.1 1.02.18 1.79.24 2.3.07.68.13 1.2.18 1.55l.08.74c.03.25 0 .45-.12.61-.11.16-.28.25-.52.29l-.24.03zm3.04-.36v-.2c0-.05 0-.11-.01-.18l-.07-.06c.06-.22.09-.43.07-.63-.02-.23-.06-.56-.12-.99l-.11-.99c-.04-.5-.08-1.26-.13-2.26-.03-.9-.07-1.66-.11-2.28l-.1-.9c-.04-.27-.08-.57-.1-.9-.01-.15.02-.26.08-.33s.17-.11.33-.12c.1 0 .18.01.25.07.02 0 .17.02.44.03.25 0 .47.04.66.08.2.05.3.11.31.2 0 .1-.08.21-.26.32-.59-.15-1-.21-1.24-.19l-.07.1c.02.09.04.31.07.65.03.43.05.82.06 1.16.02.35.04.74.08 1.18.02.28.1.42.24.4l.24-.03c.08-.02.16-.03.25-.03.39-.03.59.05.61.22 0 .11 0 .21-.05.29a.27.27 0 01-.22.13.512.512 0 01-.36-.09l-.49-.04h-.07l-.07.09v.05c.04.17.08.56.13 1.19.03.39.05.75.07 1.07l.07 1.07c.03.39.08.79.14 1.2.03.23.09.38.19.45s.27.09.51.08l.27-.04c.09-.02.19-.03.3-.04.29-.02.44.03.45.16.01.18-.2.29-.64.32l-1.23.09c-.18.01-.29-.08-.33-.29zm6.18-.3s-.04-.05-.05-.11c0-.09-.02-.17-.03-.24-.18-1.81-.3-3.04-.35-3.72l-.05-.06.05-.14c-.01-.18-.05-.37-.1-.55l-.23-.04c-.09.04-.19.06-.3.07-.08 0-.25 0-.5-.04-.18-.04-.33-.05-.47-.04l-.16.07c.03.35.05.67.06.95.01.28.03.6.06.95l.04.06c.02.28.07.7.14 1.26.07.55.12.97.14 1.25 0 .11 0 .2-.04.28-.04.08-.09.12-.17.13-.22.02-.35-.28-.4-.88-.04-.51-.07-.98-.09-1.39l-.09-1.37c-.07-.91-.12-1.4-.16-1.47.04-.1.04-.44 0-1-.04-.48-.1-1.07-.19-1.76l-.08-.59-.12-1.17c0-.07.01-.14.06-.2.05-.06.1-.1.18-.1.2-.02.32.27.37.85.05.68.09 1.3.13 1.86.02.55.06 1.16.11 1.83 0 .12.4.15 1.16.09h.06c.19-.02.32-.07.4-.15.08-.08.11-.21.1-.39-.04-.53-.13-1.22-.26-2.07-.13-.92-.22-1.61-.25-2.07 0-.06.02-.11.06-.16.05-.05.1-.08.17-.08l.14.03c.07 0 .12.02.14.04.06.78.18 1.95.36 3.5.18 1.56.3 2.74.36 3.52.06.78.18 1.74.37 2.88v.09c-.08.06-.2.09-.33.1h-.22zm-.96-5.45l.03.03h-.03v-.03zm4.23 5.15c-.13 0-.22-.01-.28-.06-.05-.05-.09-.14-.1-.27-.46-4.77-.76-7.54-.89-8.28-.05-.19-.1-.47-.17-.85-.02-.13 0-.24.06-.32.06-.08.14-.12.25-.13.19-.02.3.11.32.37.02.35.11 1.29.28 2.81.06.56.11 1.09.15 1.58.05.67.13 1.52.24 2.53l.22 1.44.11-.16c.23-.76.5-1.74.83-2.94.33-1.21.53-1.94.59-2.2l.16-.5c.13-.41.23-.78.31-1.1.05-.19.1-.48.17-.89.06-.3.12-.57.18-.82s.12-.41.18-.46c.04-.03.09-.06.16-.08.07-.02.13-.03.18-.02.03 0 .07.04.1.09.03.05.05.1.06.15.02.17.04.36.05.56.01.21.02.39.04.57l.05.63c.03.39.09.98.2 1.76.04.25.09.63.15 1.16.02.18.05.45.08.8.04.54.07.95.08 1.21l.08 1.22c.04.48.09.97.16 1.44v.03c0 .07-.02.14-.08.19-.06.06-.14.1-.23.12-.09 0-.17-.01-.24-.07a.233.233 0 01-.1-.2l-.04-1.12-.09-2.34-.03-.45c-.08-.77-.16-1.67-.25-2.69s-.13-1.54-.12-1.56h-.1l-.82 2.95c-.71 2.62-1.27 4.58-1.69 5.88l-.18.03zm6.1-.59v-.2c0-.05 0-.11-.01-.18l-.07-.06c.07-.22.09-.43.07-.63-.02-.23-.06-.56-.12-.99l-.11-.99c-.04-.5-.08-1.26-.13-2.26-.03-.9-.07-1.66-.11-2.28l-.1-.9c-.04-.27-.08-.57-.1-.9-.01-.15.02-.26.08-.33.07-.07.17-.11.32-.12.1 0 .18.01.25.07.02 0 .17.02.44.03.25 0 .47.04.66.08.2.05.3.11.31.2 0 .1-.08.21-.27.32-.59-.15-1-.21-1.24-.19l-.07.1c.02.09.04.31.07.65.03.43.05.82.06 1.16.02.35.04.74.08 1.18.02.28.1.42.24.4l.24-.03c.08-.02.16-.03.26-.03.39-.03.59.05.61.22 0 .11 0 .21-.05.29a.27.27 0 01-.22.13.512.512 0 01-.36-.09l-.49-.04h-.08l-.07.09v.05c.04.17.08.56.13 1.19.03.39.05.75.07 1.07l.07 1.07c.03.39.08.79.14 1.2.03.23.09.38.19.45s.26.09.51.08l.27-.04c.09-.02.19-.03.3-.04.29-.02.44.03.45.16.01.18-.2.29-.64.32l-1.23.09c-.18.01-.29-.08-.33-.29z"/><path class="cls-8" d="M94.33 286.45h-2.18l-21.36-51.06-.78-1.86v-.01l-19.5-46.63h2.17l19.31 46.16.78 1.86 21.56 51.54z"/><path class="cls-8" d="M134.72 217.92v1.97l-61.95 15.02-1.98.48-51.96 12.6v-2.05l51.18-12.41v-.01l1.98-.47 62.71-15.21.02.08z"/><path class="cls-8" d="M71.16 235.24l-.6-1.04c-5.24-9.02-4.25-30.05 1.76-37.5 2.11-2.62 4.72-3.52 7.54-2.61 2.77.9 4.59 3.15 5.27 6.51 1.96 9.75-5.82 27.63-13.05 33.85l-.91.78zm6.61-39.49c-1.42 0-2.7.73-3.89 2.21-5.28 6.54-6.33 25.23-2.18 34.11 6.45-6.46 13.19-22.48 11.46-31.07-.53-2.65-1.85-4.34-3.92-5.01-.51-.16-1-.25-1.48-.25z"/><path class="cls-8" d="M61.76 236.28c-5.17 0-9.86-1.41-12.21-4-1.81-2-2.13-4.58-.91-7.26.54-1.17 1.48-1.94 2.74-2.22 5.9-1.33 17.77 8.29 20.08 10.23l1.36 1.14-1.68.57c-3.04 1.04-6.3 1.54-9.39 1.54zm-9.13-11.62c-.29 0-.56.03-.81.08-.65.15-1.09.5-1.36 1.1-.9 1.96-.71 3.67.57 5.08 2.96 3.27 10.76 4.27 17.71 2.45-5.65-4.51-12.48-8.72-16.11-8.72z"/><path class="cls-8" d="M71.62 269.92l-1.11-31.54-3.33 10.13-1.9-.62 4.62-14.08c.19-.58.77-.94 1.37-.85.61.09 1.06.59 1.08 1.2l1.26 35.69-2 .07z"/><path class="cls-6" d="M140.37 187.74l-16.89 15.28-16.89-15.28 3.19-48.12 27.4.09 3.19 48.03z"/><path class="cls-9" d="M123.48 207.98l-.17-.15-20.76-18.79v-.12l5.08-76.55h31.71l.02.23 5.06 76.44-.09.08-20.84 18.86zm-20.42-19.15l20.42 18.47 20.42-18.47-5.03-75.97H108.1l-5.03 75.97z"/><path class="cls-9" d="M123.23 207.64h.5v78.63h-.5z"/><path class="cls-9" d="M99.58 286.03h47.81v.5H99.58zm13.63-181.58c-1.6 0-2.91-1.31-2.91-2.91s1.31-2.91 2.91-2.91 2.91 1.31 2.91 2.91-1.31 2.91-2.91 2.91zm0-5.32c-1.33 0-2.41 1.08-2.41 2.41s1.08 2.41 2.41 2.41 2.41-1.08 2.41-2.41-1.08-2.41-2.41-2.41zm12.05 29.62c-1.25 0-2.27-1.02-2.27-2.27s1.02-2.27 2.27-2.27 2.27 1.02 2.27 2.27-1.02 2.27-2.27 2.27zm0-4.03c-.97 0-1.77.79-1.77 1.77s.79 1.77 1.77 1.77 1.77-.79 1.77-1.77-.79-1.77-1.77-1.77z"/><path class="cls-4" d="M129.45 172.79c-2.25 0-4.08-1.83-4.08-4.08s1.83-4.08 4.08-4.08 4.08 1.83 4.08 4.08-1.83 4.08-4.08 4.08zm0-7.66c-1.97 0-3.58 1.61-3.58 3.58s1.61 3.58 3.58 3.58 3.58-1.61 3.58-3.58-1.61-3.58-3.58-3.58zm-10.85-10.09c-1.6 0-2.91-1.31-2.91-2.91s1.31-2.91 2.91-2.91 2.91 1.31 2.91 2.91-1.31 2.91-2.91 2.91zm0-5.32c-1.33 0-2.41 1.08-2.41 2.41s1.08 2.41 2.41 2.41 2.41-1.08 2.41-2.41-1.08-2.41-2.41-2.41z"/><path class="cls-9" d="M0 286.23h342v.5H0zM190.37 144.2c-2.48 0-4.5-2.02-4.5-4.5s2.02-4.5 4.5-4.5 4.5 2.02 4.5 4.5-2.02 4.5-4.5 4.5zm0-8.49c-2.2 0-4 1.79-4 4s1.79 4 4 4 4-1.79 4-4-1.79-4-4-4zm-9.48-25.18c-2.16 0-3.92-1.76-3.92-3.92s1.76-3.92 3.92-3.92 3.92 1.76 3.92 3.92-1.76 3.92-3.92 3.92zm0-7.33c-1.88 0-3.42 1.53-3.42 3.42s1.53 3.42 3.42 3.42 3.42-1.53 3.42-3.42-1.53-3.42-3.42-3.42z"/><path class="cls-6" d="M202.12 187.74l-16.89 15.28-16.88-15.28 3.19-48.12 27.4.09 3.18 48.03z"/><path class="cls-9" d="M185.23 207.98l-.17-.15-20.76-18.79v-.12l5.08-76.55h31.71l.02.23 5.06 76.44-.09.08-20.84 18.86zm-20.42-19.15l20.42 18.47 20.42-18.47-5.03-75.97h-30.77l-5.03 75.97z"/><path class="cls-9" d="M184.98 207.64h.5v78.63h-.5z"/><path class="cls-9" d="M161.33 286.03h47.81v.5h-47.81z"/><path class="cls-4" d="M178.23 162.45c-1.6 0-2.91-1.31-2.91-2.91s1.31-2.91 2.91-2.91 2.91 1.31 2.91 2.91-1.31 2.91-2.91 2.91zm0-5.32c-1.33 0-2.41 1.08-2.41 2.41s1.08 2.41 2.41 2.41 2.41-1.08 2.41-2.41-1.08-2.41-2.41-2.41z"/><path class="cls-9" d="M189.01 94.68c-1.25 0-2.27-1.02-2.27-2.27s1.02-2.27 2.27-2.27 2.27 1.02 2.27 2.27-1.02 2.27-2.27 2.27zm0-4.03c-.97 0-1.77.79-1.77 1.77s.79 1.77 1.77 1.77 1.77-.79 1.77-1.77-.79-1.77-1.77-1.77z"/><path class="cls-4" d="M190.37 144.2c-2.48 0-4.5-2.02-4.5-4.5h.5a3.999 3.999 0 108 0h.5c0 2.48-2.02 4.5-4.5 4.5z"/></svg>