<svg id="_главная_страница" xmlns="http://www.w3.org/2000/svg" viewBox="0 0 342 659.42"><defs><style>.cls-3{fill:#b30017}.cls-4{fill:#e2c934}.cls-5{fill:#db9b7b}.cls-7{fill:#211f2a}.cls-9{fill:#363441}.cls-11{fill:#281a10}.cls-12{fill:#3a2413}</style></defs><path class="cls-11" d="M123.93 120.44l-.45-.22c.09-.19 9.12-18.87 7.98-30.89l.5-.05c1.15 12.16-7.93 30.96-8.02 31.15z"/><path class="cls-11" d="M130.96 82.35c.82 6.71 1.67 17.99-3.54 33.99-4.15 12.75 11.8 5.92 11.8 5.92l21.64-8.38-7.62-17.98-22.28-13.54z"/><path class="cls-12" d="M206.51 138.27l-.45-.21c.03-.07 3.03-6.66 2.67-16.19-.33-8.79-3.68-21.96-17.72-34.75-7.8-7.1-10.88-15.78-13.6-23.44-3.27-9.21-6.09-17.16-15.63-21.32l.2-.46c9.74 4.24 12.73 12.68 15.9 21.61 2.83 7.97 5.76 16.22 13.46 23.23 14.18 12.92 17.55 26.23 17.89 35.12.36 9.64-2.68 16.33-2.72 16.4z"/><path class="cls-5" d="M200.09 115.96l-16.12 10.58-35.18 2.16-3.81-7.61-11.36-6.05c4.04-1.36 7.07-2.8 9.34-4.19.94-.58 1.76-1.15 2.46-1.69 3.95-3.09 4.31-5.53 4.31-5.53l.26-6.11v-.05l.03-.77 15.39-10.79 1.58-1.11 1.1-.77 1.36-.95.02-.02.14-3.51 4.32 15.36c1.82 5.73 5.83 10.5 11.16 13.27l6.35 3.3 1.05.55 7.59 3.94zm-89.85 106.5l-24.1-9.97-5.74 78.58c-.26 3.53-1.41 6.93-3.36 9.89L57.42 330.8l-2.74 4.21s.77.38 1.83.37c.97 0 2.2-.34 3.26-1.61l4.71-5.74L60 339.2l-2.28 5.26s.7.3 1.68.24c.33-.01.69-.06 1.04-.18 1.05-.32 2.22-1.11 3.2-2.88l.28-.52-1.38 4.46-1.39 4.52s.79.24 1.86.14c1.35-.13 3.14-.84 4.23-3.36l2.2-5.29.55-1.34 3.77-9.09-2.95 8.25-1.43 4.02-1.76 4.9s.82.27 1.93.12c1.41-.18 3.6-1.08 4.89-4.09l10.13-21.58c.65-1.48 1.93-2.88 3.48-3.32v11.43c.06 2.82 1.51 4.37 2.77 5.19.88.57 1.66.78 1.82.83h.03l.77-6.75.1-.9 3.85-32.42 12.82-74.39z"/><path class="cls-9" d="M59.43 344.73c-.99.06-1.7-.24-1.7-.24l2.28-5.26c1.72 1.6-.58 5.51-.58 5.51zm3.62 5.52c-1.06.11-1.86-.14-1.86-.14l1.77-5.71c1.97 1.35.13 5.72.09 5.85zm6.53-1.79c-1.11.15-1.92-.13-1.92-.13l1.98-5.52c1.82 1.19-.06 5.65-.06 5.65zM56.52 335.4c-1.06 0-1.83-.37-1.83-.37l2.74-4.21c.89 1.41-.51 3.93-.9 4.59zm36.19 1.53h-.03c-.17-.05-.94-.26-1.82-.82.05-1.06.39-4.68 2.63-5.93l-.77 6.75z"/><path class="cls-7" d="M162.03 94.1c-.04.13-.1.26-.13.39-3.59 13.16-14.56 14.32-16.47 14.66 3.95-3.09 4.31-5.53 4.31-5.53-.11.03-.24.06-.38.08l.53-6.16.11-.03 12.03-3.41z"/><path class="cls-5" d="M177.35 60.24c-.25 3.68-1.27 7.83-2.6 12.64-.41 1.47-.84 3.01-1.29 4.61-.06.2-.11.39-.17.59-.05.17-.09.34-.14.51-.12.41-3.57 2.49-3.57 2.49l.48 1.58-.42.39c-.28.27-.52.49-.68.65-.14.13-.23.22-.24.22-.06.01-.32.51-.77 1.33-.32.61-.76 1.39-1.29 2.3-.14.25-.3.51-.46.77-1.09 1.82-2.54 4-4.3 6.17-2.93 3.6-6.32 6.99-10.9 8.74-.03.01-.75.28-1.26.39-.11.03-.24.06-.38.08-2.1.43-6.61.91-10.89-1.33-6.44-3.38-9.94-14.41-11.06-26.04-.11-1.08-.19-2.18-.26-3.27 0-.04-.01-.09-.01-.14l-.03-.45c-.01-.1-.01-.21-.02-.3-.08-1.42-.14-2.84-.16-4.2 0-.05-.01-.11-.01-.16 0-.19-.01-.38-.01-.57v-.75c-.02-.29-.02-.58-.02-.86-.01-.64-.02-1.27-.01-1.89-.02-1.14-.01-2.22 0-3.23 0-.26 0-.52.01-.77 0-.33.02-.66.03-.99.07-1.31.23-2.61.5-3.89.06-.29.12-.58.19-.87.02-.15.06-.3.1-.45.17-.66.37-1.32.6-1.96.17-.53.37-1.05.6-1.56.11-.29.24-.57.38-.85.91-1.74 2.04-3.42 3.41-4.9 2.49-2.71 5.75-5.56 10.52-7.02 5.25-.61 12.05.56 20.86 4.64 4.21 1.95 7.24 3.99 9.33 6.2 1.43 2.32 2.45 4.86 2.98 7.52.03.13.06.27.08.41.28 1.49.58 2.9.89 4.22z"/><path class="cls-12" d="M205.68 139.32c-7.38 8.19-14.96.13-21.49-12.92l15.9-10.44-7.59-3.94-1.05-.55-6.35-3.3a22.687 22.687 0 01-11.16-13.27l-4.32-15.36-.99.92c-1.94-7.07-2.77-8.83-2.77-8.83l.69-1.04 9.83-14.98c.03.13.06.27.08.41.28 1.49.58 2.9.89 4.22 5.44 22.93 10.53 24.2 20.89 37.69 12.01 15.65 12.64 35.62 7.44 41.39z"/><path class="cls-7" d="M138.21 81.65l-.44-7.36c-.63-7.52-6.06-10.73-10.83-10.53l-.02-.5c5.03-.2 10.69 3.14 11.35 11l.44 7.37-.5.03z"/><path class="cls-7" transform="rotate(-33.19 168.418 71.382)" d="M165.04 71.14h6.7v.5h-6.7z"/><path d="M146.2 89.24c-.49-2.04-5.62-3.77-8.02-3.04-2.11.64-3.16 3.11-2.45 4.77l10.47-1.73z" fill="#a30520"/><path d="M135.75 91.09c.67 1.77 3.19 3.18 6.02 2.4 2.54-.7 4.72-2.52 4.45-4.15 0-.03-.01-.07-.03-.1l-10.47 1.73s.01.07.03.12z" fill="#460003"/><path class="cls-7" transform="rotate(-2.92 169.094 73.997)" d="M169.22 70.91h.5v6.21h-.5z"/><path class="cls-5" d="M124.78 646.35l11.88-49.08a78.752 78.752 0 002.14-22.06l-1.71-38.65h34.95l-7.71 53.7-18 57.73-25.71 3.99 4.17-5.63z"/><path class="cls-3" d="M177.01 611.14l-2.41 38.43-.18 2.8-.26 4.16h-3.26l-.17-4.33-.1-2.63-1.11-28.86a16.083 16.083 0 00-10.87 8.56l-10.05 20.3-.78 1.56-1.03 2.09a5.94 5.94 0 01-5.33 3.31h-37.6l.16-1.33c.2-1.61 1.32-2.95 2.87-3.42l7.28-2.21 10.61-3.22s9.02 4.05 15.03-3.57c6.95-8.8 24.52-52.52 24.52-52.52l8.14 8.49c3.18 3.31 4.83 7.8 4.54 12.39z"/><path class="cls-9" transform="rotate(177.64 172.324 573.091)" d="M170.15 561.99h4.36v22.19h-4.36z"/><path class="cls-3" d="M256.88 634.1s7.67-1.31 15.71-2.89c3.46-.68 7.32-1.57 9.76-2.15 1.21-.29 2.33.71 2.2 1.95l-2.63 24.25a1.413 1.413 0 01-2.39.86l-22.65-22.02z"/><path class="cls-4" d="M275.84 634.51l1.28 4.71-4.71 1.28-1.28-4.71 4.71-1.28zm2.11-3.68l-10.51 2.85 2.85 10.51 10.51-2.85-2.85-10.51z"/><path d="M287.31 635.06s-10.88-24.28-16.64-48.26c-8.26-34.4-17.23-73.52-28.85-109-7.22-22.05-20.61-34.71-23.08-49.89-6.84-42.01 4.14-88.64-10.96-138.94-3.02-10.04-9.68-39.36-9.68-39.36l-68.46-9.69-16.03 18.81a51.666 51.666 0 00-12.35 33.52v357.33h83.48V546.94l20 102.64 82.58-14.52z" fill="#1b5589"/><path class="cls-7" d="M184.73 623.1s-31.61-129.13-32.48-178.83c-1.12-63.79-1.12-116.4-1.12-116.4l.41 2.23s0 .03.01.08c0 .03.01.06.01.1l.02.14c.74 6.52 12.77 111.63 14.33 119.91l18.82 96.6v76.17z"/><path class="cls-7" d="M153.34 261.38l-.5-.05c-1.16 10.81-1.65 29.86-1.86 47.04l-5.04-3.37a8.933 8.933 0 01-3.99-7.73c.01-.34 1.37-33.74 2.42-44.76l-.5-.05c-1.04 11.03-2.4 44.45-2.42 44.79a9.474 9.474 0 004.21 8.17l5.31 3.56c-.22 19.01.15 35.58.15 35.9h.5c0-.61-.74-60.58 1.71-83.48z"/><path d="M152.27 254.32c0-.08-.01-.14-.02-.18l-.09-.91-.46.37-.23-.29-.1.18-.09-.57-.35 1.33c-14.06 11.56-21.01 27.59-18.66 35.48.95 3.18 3.31 5.05 6.82 5.4.34.03.68.05 1.01.05h.11l-.43 1.64.97.25.52-1.97c1.92-.24 3.63-1.1 5.08-2.56 2.38-2.39 3.9-6.18 4.87-10.47.29.4.6.76.92 1.1 1.05 1.1 2.18 1.81 3.36 2.15l4.13 25.46.99-.16-4.07-25.1c.17.02.34.03.51.03.93 0 1.88-.23 2.82-.71 1.91-.96 3.11-2.5 3.57-4.58 1.86-8.4-9.07-23.17-11.19-25.93zm-1.54 24.99c-1.55-3.07-2.42-7.12-2.33-11.46l2.65-10.12.65 3.99c.14 4.94.05 11.59-.96 17.59zm-11.54 14.8c-3.12-.31-5.13-1.88-5.96-4.69-2.6-8.74 6.36-23.72 16.63-32.96-1.58 3.62-2.34 7.47-2.44 11.16l-6.94 26.51c-.42.02-.85.02-1.29-.02zm6.46-2.3c-1.19 1.19-2.56 1.92-4.1 2.21l5.99-22.87c.34 3.75 1.37 7.15 2.91 9.72-.91 4.53-2.4 8.54-4.8 10.95zm7.23-9.35c-.49-.52-.94-1.12-1.36-1.78.79-4.06 1.13-8.45 1.22-12.48l2.59 15.99c-.98-.39-1.81-1.05-2.45-1.73zm9.6-2.43c-.4 1.79-1.39 3.07-3.05 3.9-1.11.56-2.13.68-3.04.55l-3.67-22.66c-.07-2.31-.19-4.24-.29-5.6 3.28 4.51 11.6 16.82 10.05 23.81z" fill="#e5e4e1"/><path class="cls-7" d="M187.83 272.39l-1.64 3.78c-4.91.38-8.55.97-15.83.25-13.95-1.39-29.95-20.83-45.31-22.04 3.01.14 6.72.8 11.03 2.47 9.38 3.64 25.78 18.54 41.81 16.47 3.75-.49 7.05-.78 9.94-.93zm-66.97 143.86l-.49.1c-.18-.95-16.88-89.29-19.12-118.71v-5.39h.25c0 21.59 19.17 122.98 19.36 124zm-6.69 233.32h34.43l-.78 1.56-33.65-1.56zm60.43 0l-.18 2.8-3.69-.17-.1-2.63h3.97zm68.89-72.49c-2.77-12.8-28.14-69.68-43.3-103.66-3.98-8.92-7.12-15.97-9.04-20.38-7.63-17.56-16.71-66.17-16.8-66.66l.49-.09c.09.49 9.17 49.04 16.77 66.55 1.91 4.41 5.06 11.45 9.04 20.37 15.17 34 40.55 90.91 43.33 103.76l-.49.11z"/><path class="cls-12" d="M186.59 83.56s-4.31-4.26-5.25-20.87c-.78-13.86-9.37-26.43-26.27-28.39-18.26-2.11-27.82 8.64-28.19 25.19v.24c-.01.26-.01.52-.01.78-.01 1.01-.02 2.09 0 3.22s.01.06.01.08l8.63-11.38 31.04 18.16 5.13 3.48c1.61-2.04 2.81-4.17 3.65-6.34l6.51 23.75 4.75-7.92z"/><path class="cls-5" d="M162.37 72.23c.58 3.54 2.41 8.41 6.21 8.83 2.97.33 6.2-2.33 6.36-7.21.16-4.81-1.77-7.8-5.1-8.33-3.78-.6-8.18 2.47-7.48 6.71z"/><path class="cls-7" transform="rotate(-33.19 168.409 69.388)" d="M165.04 69.14h6.7v.5h-6.7z"/><path class="cls-7" transform="rotate(-2.92 169.15 71.84)" d="M169.22 68.91h.5v6.21h-.5z"/><path class="cls-4" d="M174.99 69.39h-.13v.01c-.45.05-.54-.38-.21-.59l.11-.07-.19-.3-1.96 1.21.11.33 2.29-.25-.04-.35z"/><path class="cls-4" d="M172.65 70.12l-.18-.51 2.15-1.33.32.51-.22.14c-.13.08-.16.18-.14.25.03.08.13.12.26.11l.25-.03.06.6-2.51.27zm.12-.41l.05.14 2.06-.22v-.1c-.27.03-.48-.08-.54-.28-.06-.2.03-.41.24-.54s-.05-.09-.05-.09l-1.77 1.1zm-3.15 20.33c-3.23 0-5.86-2.63-5.86-5.86s2.63-5.86 5.86-5.86v1c-2.68 0-4.86 2.18-4.86 4.86s2.18 4.86 4.86 4.86 4.86-2.18 4.86-4.86c0-1.66-.83-3.18-2.22-4.08l.54-.84a5.847 5.847 0 012.68 4.92c0 3.23-2.63 5.86-5.86 5.86z"/><ellipse class="cls-7" cx="149.63" cy="71.95" rx="7.99" ry="4.83" transform="rotate(-15.4 149.6 71.93)"/><ellipse class="cls-7" cx="127.36" cy="73.44" rx="4.83" ry="7.99" transform="rotate(-78.44 127.366 73.433)"/><path class="cls-7" d="M284.04 635.63l-20.05 5.38-1.61-1.57 21.66-3.81zm-86.71-377.21l1.4-1.2c-.76.7-1.28 1.11-1.4 1.2z"/><path class="cls-3" d="M220.5 186.32l-5.7-13.62-27.06-64.67s-19.27 8.2-46.17 2.1l-18.46 9.7a56.072 56.072 0 00-27.55 33.33l-18.67 61.47v.01c-4.61 15.58-1.31 23.8.7 27.01.68 1.08.59 2.48-.21 3.48l-2.26 2.85c-.58.74-.65 1.76-.17 2.56l5.65 9.31.25 7.6 21.37 2.85 2.26-7.59 4.21-3.56c1.16-.97 2-2.26 2.42-3.71l1.5-5.1.08-.28c1.07 2.35 2.26 4.24 3.55 5.56 0 0 7.46-3.59 19.84 1.22 9.38 3.64 25.78 18.54 41.81 16.47 28.63-3.7 30.58 3.97 33.02-4.66 2.77-9.81 5.45-19.11 6.9-27.81.12-.73.24-1.47.35-2.19 3.69-23.81 2.34-52.33 2.34-52.33z"/><path class="cls-7" d="M220.42 212.91l-.71.68c-.97.64-1.63 1.66-1.81 2.82l-.66 4.32c-.09.65-.31 1.27-.64 1.84l-2.77 4.82a5.8 5.8 0 00-.45 4.86l1 2.87-5.5 8.47 2.79 2.53-12.94 11.11c2.79-2.61 8.76-9.35 9.74-19.99 1.29-13.96 9.36-17.48 4.98-31.67-2.16-6.99-3.42-14.79-4.14-20.61l11.11 27.95z"/><path class="cls-4" transform="rotate(21.06 73.165 322.65)" d="M69.58 321.3h7.14v2.58h-7.14z"/><path d="M71.09 339.51l-.48-.17 6.47-18.06.47.17-6.46 18.06zm-6.88 1.67l-.47-.15 6.8-22 .48.15-6.81 22z" fill="#1f1e1e"/><path class="cls-4" transform="rotate(14.07 88.59 295.887)" d="M78.55 294.82h20.06v2.23H78.55z"/><path class="cls-5" d="M235.2 248.25l-30.15 27.95-2.42 16.47c-11.51-4.11-15.69-10.59-17.21-14.7l3.15-7.31a27.47 27.47 0 014.23-6.85l26.82-31.92 15.58 16.36z"/><path class="cls-3" d="M261.6 211.87l-22.75-59.29c-6.92-15.67-17.97-27.86-32.9-35.38l-18.21-9.17 16.74 64.78 15.94 40.1-.71.67c-.97.64-1.63 1.66-1.81 2.82l-.66 4.32c-.09.65-.31 1.27-.64 1.84l-2.77 4.82a5.8 5.8 0 00-.45 4.86l1 2.87-5.49 8.47 16.35 14.86 8.25-5.97 3.66-.31c1.18-.11 2.26-.73 2.94-1.72l1.52-2.21c.63-.92 1.73-1.4 2.83-1.26l4.18.56c1.5.2 2.99-.4 3.94-1.57l4.27-6.04c.71-.89 1.48-1.95 2.23-3.16.62-.99 1.23-2.09 1.79-3.28 2.63-5.56 4.18-13.1.76-21.61z"/><path class="cls-7" transform="rotate(-83.81 87.54 260.61)" d="M87.27 253.65h.5v13.91h-.5z"/><path class="cls-7" d="M207.63 294.71c-12.16-3.03-17.92-8.45-20.61-12.46-2.93-4.37-2.97-7.97-2.97-8.12h.5c0 .14.29 14.39 23.2 20.1l-.12.48zm-53.58 298.71c-.07-.64-7.59-64.72-16.07-99.09l.49-.12c8.49 34.4 16.01 98.51 16.08 99.15l-.5.06zM75.24 247.86l4.9-5.71c.36-.42-.02-1.05-.55-.93l-2 .43s1.09 1.04-2.35 6.2zm164.32 3.19l.61-3.4c.11-.63.69-1.06 1.32-.99l2.93.31c-2.22.09-3.5 2.82-4.87 4.08z"/><path class="cls-7" transform="rotate(-49.45 226.174 246.204)" d="M225.9 236.55h.5v19.31h-.5z"/><path class="cls-7" transform="rotate(-36.65 225.287 209.105)" d="M216.65 208.87H234v.5h-17.35z"/><path class="cls-7" d="M112.61 250.34l-1.5 5.1a7.58 7.58 0 01-2.42 3.71c-2.1-5.64-8.06-18.81-2.42-34.6s7.23-35.87 7.23-35.87c2.06 33.96-7.02 52.5-.88 61.66z"/><path class="cls-4" transform="rotate(40.24 198.102 271.797)" d="M187.54 270.24h21.12v3.07h-21.12z"/><rect class="cls-7" x="193.13" y="268.87" width="8.81" height="4.86" rx=".62" ry=".62" transform="rotate(40.24 197.536 271.308)"/><path class="cls-4" d="M197.25 272.7h-.03c-.07-.01-.11-.08-.09-.15l.31-1.37 2.68-.03c.07 0 .12.05.12.12 0 .07-.05.12-.12.13l-2.48.03-.26 1.18c-.01.06-.06.1-.12.1zm-78.4-108.93l.99-.74c.19.36.46.53.7.53.39 0 .61-.19.61-.88v-3.48h1.46v3.6c0 1.1-.59 2.02-1.87 2.02-.9 0-1.48-.34-1.89-1.05zm4.6-1.18c0-1.41 1.02-2.23 2.11-2.23s2.11.82 2.11 2.23-1.02 2.23-2.11 2.23-2.11-.82-2.11-2.23zm2.72 0c0-.64-.17-1.05-.61-1.05s-.61.41-.61 1.05.17 1.05.61 1.05.61-.41.61-1.05zm2.26-2.12h1.19l.1.51h.03c.34-.32.77-.61 1.34-.61.94 0 1.33.68 1.33 1.73v2.62h-1.46v-2.43c0-.54-.14-.68-.42-.68-.27 0-.42.12-.65.32v2.79h-1.46v-4.25zm4.78 3.04c0-.88.68-1.38 2.31-1.55-.03-.3-.22-.44-.59-.44-.31 0-.63.12-1.07.36l-.51-.95c.59-.36 1.21-.56 1.87-.56 1.11 0 1.77.6 1.77 1.99v2.36h-1.19l-.1-.41h-.03c-.34.31-.71.51-1.17.51-.8 0-1.28-.61-1.28-1.31zm2.31-.1v-.58c-.7.1-.92.32-.92.56 0 .2.14.31.39.31.24 0 .37-.12.53-.29zm2.07.82l.65-.9c.39.29.74.42 1.04.42s.42-.08.42-.25c0-.22-.39-.32-.82-.49-.49-.2-1.07-.56-1.07-1.26 0-.83.68-1.38 1.68-1.38.7 0 1.19.28 1.56.56l-.65.87c-.31-.22-.6-.36-.87-.36-.25 0-.37.07-.37.24 0 .22.37.31.8.46.51.19 1.09.51 1.09 1.28s-.63 1.41-1.82 1.41c-.54 0-1.21-.24-1.65-.59z"/><path class="cls-7" d="M160.62 122.26c-8.7 0-16.95-1.04-22.25-3.18l.19-.46c11.42 4.62 36.77 4.08 50.23-1.05l.18.47c-7.32 2.79-18.13 4.23-28.35 4.23z"/><path d="M225.32 140.49c-5.55 5.71-10.09 12.97-13.73 20.39m-103.47-.42c2.11 5.66 3.32 11.08 4.25 17.23" fill="none" stroke="#211f2a" stroke-miterlimit="10" stroke-width=".5"/><path class="cls-7" d="M209.4 244.05l15.31 13.92-.51.48-14.8-14.4zM102 270.27l-19.88-2.65 19.77 3.3.11-.65z"/></svg>