<svg width="212" height="40" fill="none" xmlns="http://www.w3.org/2000/svg"><path d="M1.175 17.824c-.414 0-.732-.178-.954-.533C0 16.936-.023 16.56.155 16.16L6.388 1.277C6.609.759 6.972.5 7.475.5c.532 0 .894.258 1.086.776l6.255 14.927c.163.414.133.791-.089 1.132-.207.325-.524.488-.953.488a1.28 1.28 0 01-.643-.178 1.153 1.153 0 01-.422-.532L7.21 3.45h.62L2.24 17.114a1.1 1.1 0 01-.465.532 1.127 1.127 0 01-.599.178zm1.176-3.816l.887-1.907h8.695l.887 1.907H2.35zm19.433-8.295c.222 0 .421.06.599.177.177.119.318.304.421.555l4.57 9.915c.132.295.147.562.044.798a1.056 1.056 0 01-.533.51c-.325.148-.606.185-.843.111-.236-.074-.436-.259-.599-.554l-4.17-9.471h1.132l-4.303 9.47c-.133.282-.333.466-.6.555-.25.074-.531.037-.842-.11-.28-.134-.48-.311-.599-.533-.103-.222-.081-.48.067-.776l4.591-9.915c.222-.488.577-.732 1.065-.732zm14.171 12.199c-1.227 0-2.321-.258-3.282-.776a5.967 5.967 0 01-2.24-2.174c-.533-.931-.8-1.996-.8-3.194 0-1.212.252-2.277.755-3.194a5.574 5.574 0 012.13-2.173c.901-.533 1.936-.799 3.105-.799 1.153 0 2.144.259 2.972.776a4.832 4.832 0 011.885 2.108c.444.887.666 1.914.666 3.083a.97.97 0 01-.289.71 1.037 1.037 0 01-.732.266h-8.939V10.77h8.873l-.91.621c-.015-.74-.163-1.397-.443-1.974a3.353 3.353 0 00-1.198-1.397c-.518-.34-1.146-.51-1.886-.51-.842 0-1.567.184-2.173.554-.592.37-1.043.88-1.353 1.53-.31.636-.466 1.361-.466 2.174 0 .814.185 1.538.555 2.174a4.05 4.05 0 001.53 1.508c.65.37 1.397.555 2.24.555a4.28 4.28 0 001.398-.244c.487-.178.88-.377 1.175-.6a1.18 1.18 0 01.71-.243.944.944 0 01.688.222c.25.221.384.465.399.732.015.266-.104.495-.355.687-.503.4-1.131.725-1.886.976a6.588 6.588 0 01-2.129.377zm17.925-.355c-.193.178-.467.267-.822.267-.34-.015-.606-.119-.798-.31l-5.39-5.79 5.08-5.678c.192-.207.458-.326.798-.355.355-.03.628.044.82.222.222.207.348.443.378.71.03.25-.052.48-.244.687l-4.015 4.303 4.259 4.57a.94.94 0 01.288.687c0 .251-.118.48-.355.687zm-8.784.289c-.326 0-.584-.104-.777-.31a1.209 1.209 0 01-.288-.821V6.822c0-.34.096-.614.288-.82.193-.208.451-.311.777-.311.34 0 .613.103.82.31.222.207.333.48.333.821v3.704h2.84v2.085h-2.84v4.104c0 .325-.11.598-.333.82-.207.207-.48.31-.82.31zm16.306.066c-1.183 0-2.24-.266-3.172-.798a6.067 6.067 0 01-2.174-2.196c-.517-.932-.776-1.981-.776-3.15 0-1.198.259-2.262.776-3.194a5.575 5.575 0 012.13-2.173c.902-.533 1.937-.799 3.105-.799.872 0 1.67.17 2.395.51.725.326 1.376.82 1.952 1.486.207.237.281.48.222.732-.059.252-.222.473-.488.666a.877.877 0 01-.687.155 1.43 1.43 0 01-.688-.4c-.725-.768-1.627-1.153-2.706-1.153-.754 0-1.42.178-1.996.533a3.54 3.54 0 00-1.353 1.441c-.326.622-.488 1.353-.488 2.196 0 .799.162 1.509.488 2.13a3.97 3.97 0 001.397 1.486c.592.355 1.28.532 2.063.532.517 0 .968-.06 1.353-.177a3.4 3.4 0 001.087-.6c.236-.191.48-.295.732-.31a.838.838 0 01.665.2c.251.207.392.443.421.71.03.251-.059.48-.266.687-1.064.99-2.395 1.486-3.992 1.486zm12.878 0c-1.08 0-2.048-.266-2.906-.798a5.95 5.95 0 01-2.04-2.196c-.489-.932-.733-1.981-.733-3.15 0-1.168.267-2.218.799-3.15a6.015 6.015 0 012.196-2.195c.931-.547 1.974-.82 3.127-.82 1.154 0 2.189.273 3.106.82a5.847 5.847 0 012.173 2.196c.547.931.82 1.981.82 3.15h-.864c0 1.168-.252 2.217-.754 3.149a5.774 5.774 0 01-2.019 2.196c-.857.532-1.826.798-2.905.798zm.443-1.996c.754 0 1.427-.177 2.019-.532a3.97 3.97 0 001.397-1.486c.34-.636.51-1.346.51-2.13 0-.798-.17-1.508-.51-2.129a3.763 3.763 0 00-1.397-1.486c-.592-.37-1.265-.555-2.019-.555-.74 0-1.412.185-2.018.555a3.924 3.924 0 00-1.42 1.486c-.34.621-.51 1.33-.51 2.13 0 .783.17 1.493.51 2.129a4.148 4.148 0 001.42 1.486 3.92 3.92 0 002.018.532zm4.969 1.93c-.326 0-.6-.104-.821-.31a1.157 1.157 0 01-.31-.821V13.32l.42-2.351 1.842.798v4.947c0 .325-.111.598-.333.82-.207.207-.473.31-.798.31zm14.701-.022c-.325 0-.599-.104-.82-.31a1.158 1.158 0 01-.311-.822v-9.87c0-.34.103-.614.31-.82.222-.208.496-.311.821-.311.34 0 .606.103.799.31.192.207.288.48.288.821v9.87c0 .326-.096.6-.288.821-.193.207-.459.31-.799.31zm-9.116 0c-.326 0-.592-.104-.799-.31a1.21 1.21 0 01-.288-.822v-9.87c0-.34.096-.614.288-.82.207-.208.474-.311.799-.311.34 0 .614.103.82.31.208.207.311.48.311.821v9.87c0 .326-.103.6-.31.821-.207.207-.481.31-.821.31zm.843-5.302v-1.996h7.785v1.996H86.12zm18.42 5.39c-1.109 0-2.093-.258-2.95-.776a5.663 5.663 0 01-1.997-2.174c-.488-.931-.732-1.996-.732-3.194 0-1.212.26-2.277.777-3.194a5.689 5.689 0 012.173-2.173c.917-.533 1.974-.799 3.172-.799 1.183 0 2.233.266 3.15.799a5.524 5.524 0 012.151 2.173c.533.917.799 1.982.799 3.194h-1.309c0 1.198-.229 2.263-.687 3.194-.444.917-1.058 1.642-1.841 2.174-.784.518-1.686.776-2.706.776zm.399 4.947a7.083 7.083 0 01-2.95-.622 6.206 6.206 0 01-2.33-1.818c-.191-.252-.265-.51-.221-.777.06-.266.207-.48.444-.643.266-.177.539-.236.82-.177.296.059.533.207.71.443a4.09 4.09 0 001.508 1.176c.607.28 1.294.421 2.063.421.71 0 1.361-.17 1.952-.51.606-.34 1.087-.843 1.442-1.508.355-.666.532-1.479.532-2.44v-3.15l.732-1.951 1.442.465v4.791c0 1.168-.259 2.226-.776 3.172a5.879 5.879 0 01-2.174 2.285c-.917.562-1.982.843-3.194.843zm.044-6.943c.769 0 1.449-.177 2.041-.532a3.645 3.645 0 001.375-1.464c.34-.621.51-1.338.51-2.152 0-.813-.17-1.53-.51-2.151a3.611 3.611 0 00-1.375-1.486c-.592-.355-1.272-.533-2.041-.533-.769 0-1.449.178-2.04.533a3.76 3.76 0 00-1.398 1.486c-.34.62-.51 1.338-.51 2.151 0 .814.17 1.53.51 2.152a3.8 3.8 0 001.398 1.464c.591.355 1.271.532 2.04.532zm10.598 7.098c-.325 0-.599-.111-.821-.333-.207-.207-.31-.473-.31-.798V11.768c.015-1.168.288-2.218.821-3.15a5.848 5.848 0 012.173-2.195c.917-.547 1.952-.82 3.106-.82 1.168 0 2.21.273 3.127.82a5.851 5.851 0 012.174 2.196c.547.931.82 1.981.82 3.15 0 1.168-.251 2.217-.754 3.149a5.779 5.779 0 01-2.018 2.196c-.858.532-1.826.798-2.906.798a5.51 5.51 0 01-2.417-.532 5.88 5.88 0 01-1.864-1.486v5.989c0 .325-.103.591-.31.798-.207.222-.481.333-.821.333zm4.969-7.098c.754 0 1.427-.177 2.018-.532a3.963 3.963 0 001.397-1.486 4.293 4.293 0 00.533-2.13c0-.798-.178-1.508-.533-2.129a3.758 3.758 0 00-1.397-1.486c-.591-.37-1.264-.555-2.018-.555-.74 0-1.413.185-2.019.555a3.765 3.765 0 00-1.397 1.486c-.34.621-.51 1.33-.51 2.13 0 .783.17 1.493.51 2.129.34.62.806 1.116 1.397 1.486a3.921 3.921 0 002.019.532zm14.553 1.996c-1.08 0-2.048-.266-2.906-.798a5.94 5.94 0 01-2.04-2.196c-.488-.932-.732-1.981-.732-3.15 0-1.168.266-2.218.798-3.15a6.012 6.012 0 012.196-2.195c.932-.547 1.974-.82 3.127-.82 1.154 0 2.189.273 3.106.82a5.848 5.848 0 012.173 2.196c.548.931.821 1.981.821 3.15h-.865c0 1.168-.251 2.217-.754 3.149a5.774 5.774 0 01-2.019 2.196c-.857.532-1.826.798-2.905.798zm.443-1.996c.755 0 1.427-.177 2.019-.532a3.971 3.971 0 001.397-1.486c.34-.636.51-1.346.51-2.13 0-.798-.17-1.508-.51-2.129a3.765 3.765 0 00-1.397-1.486c-.592-.37-1.264-.555-2.019-.555a3.8 3.8 0 00-2.018.555 3.929 3.929 0 00-1.42 1.486c-.34.621-.51 1.33-.51 2.13 0 .783.17 1.493.51 2.129a4.154 4.154 0 001.42 1.486 3.92 3.92 0 002.018.532zm4.969 1.93c-.325 0-.599-.104-.821-.31a1.157 1.157 0 01-.31-.821V13.32l.421-2.351 1.841.798v4.947c0 .325-.111.598-.333.82-.207.207-.473.31-.798.31zM8.727 35.971a.515.515 0 01-.355-.129.515.515 0 01-.13-.355v-4.339c0-.71-.14-1.296-.419-1.758a2.517 2.517 0 00-1.113-1.033c-.462-.236-.99-.354-1.58-.354-.581 0-1.103.112-1.565.338a2.677 2.677 0 00-1.097.904 2.237 2.237 0 00-.404 1.306h-.806a3.555 3.555 0 01.597-1.79 3.718 3.718 0 011.387-1.259c.57-.311 1.2-.467 1.887-.467.775 0 1.468.16 2.081.484a3.445 3.445 0 011.468 1.387c.355.602.533 1.35.533 2.242v4.34a.48.48 0 01-.146.354.458.458 0 01-.338.13zm-7.147 0a.515.515 0 01-.354-.129.515.515 0 01-.13-.355v-7.856a.48.48 0 01.13-.354.515.515 0 01.354-.13.48.48 0 01.355.13.48.48 0 01.13.354v7.856c0 .14-.044.258-.13.355a.48.48 0 01-.355.13zm14.274.081c-.85 0-1.607-.188-2.274-.565a4.169 4.169 0 01-1.549-1.597c-.376-.677-.564-1.451-.564-2.323 0-.881.177-1.656.532-2.322a4.05 4.05 0 011.468-1.597c.624-.387 1.339-.581 2.145-.581.796 0 1.5.188 2.114.564a3.797 3.797 0 011.435 1.533c.344.645.516 1.393.516 2.242 0 .14-.043.253-.129.339a.495.495 0 01-.338.113h-7.098v-.839h7.356l-.71.532c.021-.699-.097-1.317-.355-1.855a2.947 2.947 0 00-1.113-1.258c-.473-.312-1.032-.468-1.678-.468a2.97 2.97 0 00-1.645.468c-.473.301-.85.72-1.13 1.258-.268.538-.403 1.162-.403 1.871 0 .7.146 1.318.436 1.856.29.537.694.962 1.21 1.274.516.301 1.107.452 1.774.452.42 0 .84-.07 1.259-.21.43-.15.768-.344 1.016-.58a.419.419 0 01.306-.13.416.416 0 01.323.097c.118.097.177.204.177.323.011.118-.037.225-.145.322-.344.312-.796.57-1.355.775a4.52 4.52 0 01-1.58.306zm6.411 3.694a.483.483 0 01-.355-.145.458.458 0 01-.13-.339v-7.791c.022-.85.226-1.603.613-2.259a4.374 4.374 0 011.614-1.58c.677-.388 1.435-.581 2.274-.581.86 0 1.63.199 2.307.597A4.155 4.155 0 0130.2 29.26c.398.677.597 1.446.597 2.306 0 .85-.199 1.619-.597 2.307a4.302 4.302 0 01-1.613 1.613c-.678.388-1.447.581-2.307.581-.774 0-1.473-.166-2.097-.5a3.75 3.75 0 01-1.436-1.339v5.033c0 .14-.043.253-.129.339a.45.45 0 01-.354.145zm4.016-4.581c.678 0 1.28-.156 1.807-.468a3.574 3.574 0 001.274-1.29 3.654 3.654 0 00.468-1.84c0-.688-.156-1.3-.468-1.838a3.414 3.414 0 00-1.274-1.29c-.527-.324-1.13-.485-1.807-.485-.667 0-1.269.161-1.807.484a3.414 3.414 0 00-1.274 1.29c-.301.538-.452 1.151-.452 1.84 0 .677.151 1.29.452 1.838.312.538.737.968 1.274 1.291.538.312 1.14.468 1.807.468zm10.84.903c-.839 0-1.592-.199-2.258-.597a4.416 4.416 0 01-1.565-1.613c-.376-.677-.565-1.44-.565-2.29 0-.86.178-1.63.533-2.307a4.05 4.05 0 011.468-1.597c.623-.398 1.339-.597 2.145-.597a4.37 4.37 0 011.888.403 3.93 3.93 0 011.484 1.194c.086.107.118.22.096.339a.431.431 0 01-.21.29.443.443 0 01-.322.097.503.503 0 01-.306-.194c-.689-.817-1.565-1.226-2.63-1.226-.634 0-1.194.156-1.677.468a3.21 3.21 0 00-1.113 1.274c-.259.538-.388 1.157-.388 1.855 0 .678.145 1.291.436 1.84.29.537.688.967 1.194 1.29.516.312 1.113.468 1.79.468.441 0 .855-.065 1.242-.194a2.743 2.743 0 001.033-.597.552.552 0 01.322-.145c.119-.01.22.027.307.113.107.097.161.21.161.339a.35.35 0 01-.129.306c-.785.72-1.764 1.081-2.936 1.081zm9.691 0c-.86 0-1.634-.193-2.322-.58a4.461 4.461 0 01-1.614-1.614c-.387-.688-.58-1.457-.58-2.307 0-.86.193-1.629.58-2.306a4.302 4.302 0 011.614-1.613c.688-.398 1.462-.597 2.322-.597.86 0 1.63.199 2.307.597.678.387 1.21.925 1.597 1.613.398.677.597 1.446.597 2.306 0 .85-.199 1.619-.597 2.307a4.337 4.337 0 01-1.597 1.613c-.677.388-1.446.581-2.307.581zm0-.903c.678 0 1.28-.156 1.807-.468a3.45 3.45 0 001.258-1.29c.312-.549.468-1.167.468-1.856 0-.677-.156-1.285-.468-1.822a3.3 3.3 0 00-1.258-1.29c-.527-.324-1.13-.485-1.807-.485-.666 0-1.269.161-1.806.484a3.415 3.415 0 00-1.275 1.29c-.312.538-.468 1.151-.468 1.84 0 .677.157 1.29.468 1.838.312.538.737.968 1.275 1.291.537.312 1.14.468 1.806.468zm14.546.806a.515.515 0 01-.355-.129.515.515 0 01-.129-.355v-7.856a.48.48 0 01.13-.354.515.515 0 01.354-.13.48.48 0 01.355.13.48.48 0 01.13.354v7.856c0 .14-.044.258-.13.355a.48.48 0 01-.355.13zm-7.146 0a.515.515 0 01-.355-.129.515.515 0 01-.129-.355v-7.856a.48.48 0 01.13-.354.515.515 0 01.354-.13.48.48 0 01.355.13.48.48 0 01.129.354v7.856c0 .14-.043.258-.13.355a.48.48 0 01-.354.13zm.274-3.92v-.87h6.792v.87h-6.792zm14.286 4.017c-.86 0-1.634-.193-2.323-.58a4.461 4.461 0 01-1.613-1.614c-.387-.688-.58-1.457-.58-2.307 0-.86.193-1.629.58-2.306a4.302 4.302 0 011.614-1.613c.688-.398 1.462-.597 2.322-.597.86 0 1.63.199 2.307.597.678.387 1.21.925 1.597 1.613.398.677.597 1.446.597 2.306l-.403.646c0 .731-.183 1.387-.549 1.968a3.912 3.912 0 01-1.451 1.387c-.614.334-1.313.5-2.098.5zm0-.903c.678 0 1.28-.156 1.807-.468a3.449 3.449 0 001.258-1.29 3.655 3.655 0 00.468-1.84c0-.688-.156-1.3-.468-1.838a3.299 3.299 0 00-1.258-1.29c-.527-.324-1.13-.485-1.807-.485-.666 0-1.269.161-1.806.484a3.415 3.415 0 00-1.275 1.29c-.312.538-.468 1.151-.468 1.84 0 .677.156 1.29.468 1.838.312.538.737.968 1.275 1.291.537.312 1.14.468 1.806.468zm4.017.806a.515.515 0 01-.355-.129.515.515 0 01-.129-.355v-2.952l.307-.967h.661v3.92c0 .14-.043.258-.129.354a.48.48 0 01-.355.13zm6.174-8.84c.107 0 .21.027.306.081.097.054.167.14.21.258l3.63 7.888a.375.375 0 010 .34.44.44 0 01-.242.257.491.491 0 01-.371.016.44.44 0 01-.259-.242l-3.548-7.823h.66l-3.612 7.807a.442.442 0 01-.29.242.49.49 0 01-.372-.016.44.44 0 01-.242-.258.46.46 0 010-.339l3.678-7.872c.118-.226.269-.339.452-.339zm9.79 9.002c-.7 0-1.318-.13-1.855-.388a3.26 3.26 0 01-1.275-1.096 2.94 2.94 0 01-.452-1.614v-5.42a.517.517 0 01.146-.338.458.458 0 01.339-.13.48.48 0 01.354.13.48.48 0 01.13.354v2.63h2.613c.71 0 1.317.129 1.823.387.516.258.908.608 1.177 1.049.28.44.42.94.42 1.5 0 .57-.146 1.08-.436 1.532-.29.441-.694.785-1.21 1.033-.516.247-1.108.37-1.774.37zm0-.871c.72 0 1.306-.172 1.758-.517.462-.344.694-.86.694-1.548 0-.635-.21-1.135-.63-1.5-.408-.377-1.016-.565-1.822-.565h-2.614v1.92c0 .43.103.812.307 1.145.215.333.516.597.903.79.398.183.866.275 1.404.275zm13.06.709a.513.513 0 01-.355-.129.515.515 0 01-.129-.355v-7.856a.48.48 0 01.129-.354.514.514 0 01.355-.13c.15 0 .268.044.354.13a.48.48 0 01.129.354v7.856c0 .14-.043.258-.129.355a.478.478 0 01-.354.13zm-7.147 0a.515.515 0 01-.355-.129.515.515 0 01-.129-.355v-7.856a.48.48 0 01.13-.354.515.515 0 01.354-.13.48.48 0 01.355.13.48.48 0 01.13.354v7.856c0 .14-.044.258-.13.355a.48.48 0 01-.355.13zm.275-3.92v-.87h6.791v.87h-6.791zm13.721 4.082c-.677 0-1.28-.13-1.807-.388a3.197 3.197 0 01-1.226-1.096 3.025 3.025 0 01-.435-1.614v-5.42a.518.518 0 01.145-.338.458.458 0 01.339-.13.48.48 0 01.355.13.48.48 0 01.129.354v2.63h2.5c.624 0 1.178.124 1.662.37.484.248.86.592 1.129 1.033.279.441.419.952.419 1.533 0 .57-.14 1.08-.419 1.532a2.768 2.768 0 01-1.129 1.033c-.484.247-1.038.37-1.662.37zm0-.871c.656 0 1.194-.172 1.613-.517.42-.344.629-.86.629-1.548 0-.689-.209-1.205-.629-1.549-.419-.344-.957-.516-1.613-.516h-2.5v1.92c0 .645.236 1.177.71 1.597.473.408 1.07.613 1.79.613zm5.082.71a.513.513 0 01-.355-.13.515.515 0 01-.129-.355v-7.856a.48.48 0 01.129-.354.514.514 0 01.355-.13c.15 0 .268.044.354.13a.48.48 0 01.129.354v7.856c0 .14-.043.258-.129.355a.478.478 0 01-.354.13zm7.311.112c-.775 0-1.468-.156-2.081-.468a3.684 3.684 0 01-1.468-1.403c-.355-.613-.532-1.36-.532-2.242v-4.34c0-.14.043-.252.129-.338a.48.48 0 01.354-.145.43.43 0 01.339.145.43.43 0 01.145.338v4.34c0 .699.135 1.285.404 1.758.279.463.65.812 1.113 1.049a3.66 3.66 0 001.597.338c.581 0 1.102-.112 1.565-.338a2.85 2.85 0 001.096-.904c.269-.387.404-.822.404-1.306h.806a3.647 3.647 0 01-.597 1.806 3.897 3.897 0 01-1.387 1.259c-.559.3-1.188.451-1.887.451zm3.549-.113a.515.515 0 01-.355-.129.515.515 0 01-.129-.355v-7.856a.48.48 0 01.129-.354.516.516 0 01.355-.13.48.48 0 01.355.13.48.48 0 01.129.354v7.856c0 .14-.043.258-.129.355a.48.48 0 01-.355.13zm-3.485-9.953c-.505 0-.962-.086-1.371-.258-.409-.172-.731-.403-.968-.693a1.65 1.65 0 01-.339-1.017.48.48 0 01.13-.355.481.481 0 01.354-.145c.14 0 .253.054.339.162.097.096.145.236.145.419 0 .312.162.56.484.742.334.183.742.274 1.226.274s.888-.091 1.21-.274c.334-.183.5-.43.5-.742 0-.183.043-.323.129-.42a.46.46 0 01.355-.16c.14 0 .253.048.339.144a.45.45 0 01.145.355 1.6 1.6 0 01-.355 1.017c-.226.29-.543.521-.952.693-.397.172-.855.258-1.371.258zm15.5 10.05c-.839 0-1.592-.199-2.259-.597a4.423 4.423 0 01-1.565-1.613c-.376-.677-.564-1.44-.564-2.29 0-.86.177-1.63.532-2.307a4.05 4.05 0 011.468-1.597c.624-.398 1.339-.597 2.146-.597.688 0 1.317.134 1.887.403.57.258 1.065.656 1.484 1.194a.41.41 0 01.097.339.434.434 0 01-.21.29.442.442 0 01-.322.097.502.502 0 01-.307-.194c-.688-.817-1.565-1.226-2.629-1.226-.635 0-1.194.156-1.678.468a3.213 3.213 0 00-1.113 1.274c-.258.538-.387 1.157-.387 1.855 0 .678.145 1.291.435 1.84.291.537.689.967 1.194 1.29.516.312 1.113.468 1.791.468a3.9 3.9 0 001.242-.194 2.738 2.738 0 001.032-.597.552.552 0 01.323-.145.37.37 0 01.306.113c.108.097.162.21.162.339a.353.353 0 01-.13.306c-.785.72-1.763 1.081-2.935 1.081zm17.805-.097a.515.515 0 01-.355-.129.515.515 0 01-.129-.355v-4.662c0-.828-.22-1.505-.661-2.032-.431-.527-.995-.79-1.694-.79-.742 0-1.35.247-1.823.741-.462.485-.683 1.14-.661 1.969h-.968c.021-.742.183-1.388.484-1.936a3.248 3.248 0 011.226-1.275 3.303 3.303 0 011.742-.467c.656 0 1.231.16 1.726.484.495.322.882.769 1.161 1.339.291.57.436 1.225.436 1.968v4.661c0 .14-.043.258-.129.355a.48.48 0 01-.355.13zm-11.663 0a.515.515 0 01-.355-.129.515.515 0 01-.129-.355v-7.856a.48.48 0 01.129-.354.516.516 0 01.355-.13.48.48 0 01.355.13.48.48 0 01.129.354v7.856c0 .14-.043.258-.129.355a.479.479 0 01-.355.13zm5.856 0a.515.515 0 01-.355-.129.515.515 0 01-.129-.355v-4.662c0-.828-.221-1.505-.662-2.032-.43-.527-.994-.79-1.693-.79-.743 0-1.35.236-1.823.71-.473.473-.71 1.085-.71 1.838h-.807c.033-.688.194-1.296.484-1.823a3.394 3.394 0 011.194-1.242 3.135 3.135 0 011.662-.451c.656 0 1.231.16 1.726.484a3.29 3.29 0 011.161 1.339c.29.57.436 1.225.436 1.968v4.661c0 .14-.043.258-.129.355a.482.482 0 01-.355.13zm12.955.113c-.774 0-1.468-.156-2.081-.468a3.684 3.684 0 01-1.468-1.403c-.355-.613-.532-1.36-.532-2.242v-4.34c0-.14.043-.252.129-.338a.483.483 0 01.355-.145.43.43 0 01.339.145.434.434 0 01.145.338v4.34c0 .699.134 1.285.403 1.758.28.463.651.812 1.113 1.049a3.663 3.663 0 001.597.338c.581 0 1.102-.112 1.565-.338a2.86 2.86 0 001.097-.904c.269-.387.403-.822.403-1.306h.807a3.647 3.647 0 01-.597 1.806 3.909 3.909 0 01-1.388 1.259c-.559.3-1.188.451-1.887.451zm3.549-.113a.515.515 0 01-.355-.129.515.515 0 01-.129-.355v-7.856a.48.48 0 01.129-.354.516.516 0 01.355-.13.48.48 0 01.355.13.48.48 0 01.129.354v7.856c0 .14-.043.258-.129.355a.479.479 0 01-.355.13zm6.66-8.84a.62.62 0 01.306.081c.097.054.167.14.21.258l3.63 7.888a.38.38 0 010 .34.44.44 0 01-.242.257.491.491 0 01-.371.016.44.44 0 01-.259-.242l-3.548-7.823h.661l-3.613 7.807a.444.444 0 01-.291.242.49.49 0 01-.371-.016.44.44 0 01-.242-.258.46.46 0 010-.339l3.678-7.872c.118-.226.269-.339.452-.339zm10.129 8.953c-.775 0-1.468-.156-2.081-.468a3.677 3.677 0 01-1.468-1.403c-.355-.613-.533-1.36-.533-2.242v-4.34c0-.14.043-.252.129-.338a.483.483 0 01.355-.145.43.43 0 01.339.145.43.43 0 01.145.338v4.34c0 .699.135 1.285.403 1.758.28.463.651.812 1.114 1.049a3.66 3.66 0 001.597.338c.58 0 1.102-.112 1.564-.338a2.853 2.853 0 001.097-.904c.269-.387.403-.822.403-1.306h.807a3.647 3.647 0 01-.597 1.806 3.906 3.906 0 01-1.387 1.259c-.559.3-1.188.451-1.887.451zm3.548-.113a.513.513 0 01-.354-.129.511.511 0 01-.13-.355v-7.856c0-.15.043-.268.13-.354a.513.513 0 01.354-.13.48.48 0 01.355.13.48.48 0 01.129.354v7.856c0 .14-.043.258-.129.355a.479.479 0 01-.355.13zm7.289.097c-.838 0-1.591-.199-2.258-.597a4.415 4.415 0 01-1.565-1.613c-.376-.677-.564-1.44-.564-2.29 0-.86.177-1.63.532-2.307a4.05 4.05 0 011.468-1.597c.624-.398 1.339-.597 2.145-.597.689 0 1.318.134 1.888.403a3.93 3.93 0 011.484 1.194.41.41 0 01.097.339.434.434 0 01-.21.29.443.443 0 01-.323.097.502.502 0 01-.306-.194c-.688-.817-1.565-1.226-2.63-1.226-.634 0-1.193.156-1.677.468a3.213 3.213 0 00-1.113 1.274c-.258.538-.387 1.157-.387 1.855 0 .678.145 1.291.435 1.84.29.537.688.967 1.194 1.29.516.312 1.113.468 1.79.468a3.9 3.9 0 001.242-.194 2.742 2.742 0 001.033-.597.552.552 0 01.323-.145.37.37 0 01.306.113c.108.097.161.21.161.339a.35.35 0 01-.129.306c-.785.72-1.763 1.081-2.936 1.081zm17.806-.097a.515.515 0 01-.355-.129.515.515 0 01-.129-.355v-4.662c0-.828-.221-1.505-.662-2.032-.43-.527-.994-.79-1.693-.79-.742 0-1.35.247-1.823.741-.463.485-.683 1.14-.662 1.969h-.968c.022-.742.183-1.388.484-1.936.302-.549.71-.973 1.226-1.275a3.306 3.306 0 011.743-.467c.656 0 1.231.16 1.726.484a3.29 3.29 0 011.161 1.339c.29.57.436 1.225.436 1.968v4.661c0 .14-.043.258-.129.355a.48.48 0 01-.355.13zm-11.663 0a.515.515 0 01-.355-.129.515.515 0 01-.129-.355v-7.856a.48.48 0 01.129-.354.516.516 0 01.355-.13.48.48 0 01.355.13.48.48 0 01.129.354v7.856c0 .14-.043.258-.129.355a.48.48 0 01-.355.13zm5.855 0a.513.513 0 01-.354-.129.516.516 0 01-.13-.355v-4.662c0-.828-.22-1.505-.661-2.032-.43-.527-.995-.79-1.694-.79-.742 0-1.349.236-1.823.71-.473.473-.709 1.085-.709 1.838h-.807c.032-.688.194-1.296.484-1.823a3.394 3.394 0 011.194-1.242 3.129 3.129 0 011.661-.451c.656 0 1.232.16 1.726.484.495.322.882.769 1.162 1.339.29.57.435 1.225.435 1.968v4.661c0 .14-.043.258-.129.355a.479.479 0 01-.355.13z" fill="#000"/></svg>