<svg id="_финальные_цвета" xmlns="http://www.w3.org/2000/svg" viewBox="0 0 342 306.04"><defs><style>.cls-2{fill:#fff}.cls-3{fill:#e5e4e1}.cls-5{fill:#241f21}.cls-6{fill:#211f2a}.cls-7{fill:#1b5589}</style></defs><path class="cls-6" d="M152.93 107.42v173.09l-18.32-.21 18.32-172.88z"/><path d="M171.31 139.36c2.01-9.49-11.18-51.36 34.62-58.42 37.33-5.75 46.18 21.52 73.96 20.92 27.78-.61 30.35 24.88 30.35 24.88l-138.93 12.62z" fill="#e7c800"/><path class="cls-3" d="M152.93 107.42h172.61v173.09H152.93z"/><path class="cls-3" d="M218.55 75.19h7.49v32.51h-7.49z"/><path class="cls-6" transform="rotate(-90 246.045 71.445)" d="M242.3 51.44h7.49v40h-7.49z"/><path class="cls-3" d="M266.04 75.19h7.49v32.51h-7.49zm0-7.49v7.49h7.5l-7.5-7.49zm-39.99 0v7.49h-7.5l7.5-7.49zm-23.48 7.49h7.49v32.51h-7.49z"/><path class="cls-6" transform="rotate(-90 230.06 71.44)" d="M226.31 51.44h7.49v40h-7.49z"/><path class="cls-3" d="M250.06 75.19h7.49v32.51h-7.49zm0-7.49v7.49h7.49l-7.49-7.49zm-40 0v7.49h-7.49l7.49-7.49z"/><path class="cls-6" d="M288.32 129.3l-12.91 2.73-2.22 5.96 8.06 32.72 18.06-5.9-6.55-30.96-4.44-4.55zm-4.92 8.62c-.85.18-1.69-.36-1.87-1.22s.36-1.69 1.22-1.87 1.69.36 1.87 1.22-.36 1.69-1.22 1.87z"/><path class="cls-2" d="M293.26 131.71l-4.9-4.06-6.33 2.06-.48.15-5.74 1.87-1.58 6.17 9.77 30.09 19.04-6.18-9.78-30.1zm-8.89 5.04c-.82.27-1.71-.19-1.98-1.02-.23-.71.07-1.47.68-1.82.1-.07.21-.12.33-.16.04 0 .09-.03.13-.03.79-.19 1.6.25 1.86 1.04.27.83-.19 1.72-1.02 1.99z"/><path class="cls-6" d="M272.9 107.46l.03-.32c.53-6 4.19-14.48 8.58-17.07 1.48-.87 2.93-1.01 4.31-.4 2.98 1.32 3.34 3.53 3.12 5.14-.8 5.83-9.26 11.66-15.72 12.6l-.31.05zm11.19-17.66c-.76 0-1.54.23-2.33.7-4.07 2.39-7.68 10.52-8.31 16.36 7.58-1.25 14.36-7.59 14.98-12.12.28-2.07-.69-3.67-2.83-4.62-.49-.22-1-.33-1.52-.33z"/><path class="cls-6" d="M273.39 107.51l-.3-.11c-3.92-1.38-8.96-5.28-9.93-8.66-.33-1.15-.17-2.16.49-2.98.84-1.06 2.09-1.32 3.51-.73 3.35 1.38 6.81 6.99 6.25 12.17l-.03.31zm-7.64-12.29c-.59 0-1.2.21-1.7.85-.55.69-.69 1.54-.4 2.53.88 3.06 5.56 6.79 9.31 8.22.36-4.88-2.86-10.05-5.98-11.33-.36-.15-.79-.27-1.23-.27z"/><path class="cls-6" d="M263.19 124.93l-.43-.25 10.76-18.35-1.13 13.64-.5-.04.95-11.45-9.65 16.45z"/><path class="cls-5" d="M279.13 142.22c.04-.15.11-.24.22-.29l.17.05s.03.16.05.34c0 .15 0 .26.03.35.08.26.26.47.54.6.27.14.6.21.97.21.68-.03 1.29-.13 1.85-.3.83-.26 1.64-.79 2.43-1.6.45-.49.82-.87 1.09-1.14.27-.27.6-.54.98-.8.44-.31.89-.54 1.35-.68.43-.14.98-.19 1.63-.16.31.02.58.1.82.25.24.14.39.33.46.56.05.16.04.33-.02.51s-.15.3-.27.33c-.1.03-.17-.03-.22-.19-.02-.05-.02-.11 0-.2.01-.08.01-.16 0-.22a.722.722 0 00-.37-.42c-.19-.1-.41-.15-.66-.15-.49 0-.92.05-1.29.17-.23.07-.45.18-.67.31-.07.03-.12.07-.17.09-.04.03-.08.04-.1.05l-.33.22-.3.19-.28.25c-.07.06-.14.12-.19.19l-.15.18-.31.34c-.06.07-.2.23-.42.47-.22.24-.46.48-.72.7-.21.2-.42.36-.63.49-.2.13-.45.27-.75.41-.29.13-.61.25-.97.37-.58.18-1.14.27-1.7.28-.67-.03-1.19-.21-1.56-.54-.22-.18-.37-.43-.47-.73l-.06-.08c-.02-.14 0-.28.03-.43zm12.17-1.83s.02-.01.01-.02h-.02v.02zm-9.74 9.67c.03-.06.13-.13.3-.21.84-.38 1.37-.62 1.58-.72l.69-.32c-.02-.28-.09-.59-.19-.93l-.17-.66c-.05-.3-.1-.52-.14-.65-.02-.07-.07-.1-.13-.1-.04.01-.06.01-.06 0l-.37.08c-.22.06-.67.13-1.36.21-.34.04-.62.05-.83.02-.23-.03-.36-.09-.39-.17a.449.449 0 01.03-.27c.04-.1.1-.17.17-.19h.12c.92-.05 1.83-.14 2.71-.26l1.19-.13 1.44-.22 1.25-.18c.34-.04.9-.1 1.67-.17.87-.09 1.46-.16 1.77-.22.04 0 .27-.05.69-.14.47-.1.82-.16 1.05-.19.32-.06.52-.08.57-.06l.04.13s0 .08.02.13c.05.14.12.24.21.29.03.08.02.17-.01.25-.03.08-.09.14-.16.16-.58.18-1.22.43-1.94.75-.37.17-.68.31-.92.41-1.51.62-4.31 1.87-8.41 3.76l-.05.02a.31.31 0 01-.32-.06c-.06-.18-.07-.3-.04-.36zm3.03-1.49c1.69-.67 4.17-1.7 7.45-3.1l-5.12.54c-1.47.16-2.38.29-2.74.41-.06.02-.04.26.05.74.1.47.2.88.31 1.23l.06.18zm-1.98 3.85c.08 0 .28-.05.61-.15 1.11-.35 2.75-.85 4.94-1.5 2.17-.65 3.74-1.12 4.7-1.42l.66-.17.56-.12c.08-.03.14 0 .17.09.02.06.03.15.03.27v.06c-.27.08-.51.15-.73.21l-.7.22-1.97.62c-.57.19-1.23.41-1.96.64-.06 0-.2.04-.4.11l-.38.1c-.24.06-.49.14-.74.22-.28.09-.53.17-.75.26l-.77.26h-.16.02c-.04.01-.06.01-.08 0l-.07.02c-.1.03-.17.08-.24.13l-1.75.49-.11.03c-.2.06-.32.11-.35.13-.06.02-.08.06-.06.12l.26.95c.09.28.14.47.17.57.03.1.04.17.05.19l.02.05c.02.06 0 .13-.04.21a.39.39 0 01-.18.16c-.14.05-.25-.03-.33-.22-.05-.21-.2-.71-.45-1.5v.04c-.04-.12-.09-.23-.13-.34-.05-.09-.1-.19-.14-.31-.05-.17.05-.31.32-.44zm1.36 4.47l.23-.07c.06 0 .14-.02.22-.05l.05-.09c.28.02.54-.01.78-.09.28-.09.67-.23 1.17-.43l1.18-.41c.6-.19 1.51-.45 2.72-.8 1.08-.29 2-.55 2.74-.78l1.07-.38c.32-.13.67-.25 1.07-.38.18-.06.32-.05.43 0 .1.06.19.18.24.36.04.12.03.23-.02.32 0 .03.03.21.09.54.06.31.09.59.08.83 0 .25-.05.39-.16.43-.12.04-.28-.04-.47-.23.01-.76-.03-1.28-.12-1.57l-.14-.06c-.1.05-.36.13-.77.26-.52.16-.98.3-1.4.4-.43.12-.9.26-1.41.43-.34.11-.48.24-.43.41l.11.28c.04.09.08.19.11.3.15.47.11.74-.1.81-.13.04-.25.05-.36.02-.11-.03-.18-.11-.22-.23a.602.602 0 01.01-.46l-.09-.61-.03-.09-.12-.06-.05.02c-.2.09-.67.25-1.41.48-.47.15-.9.28-1.29.39l-1.29.39c-.47.15-.94.32-1.43.51-.27.1-.44.22-.49.35-.06.14-.04.35.05.64l.12.32c.05.1.09.22.13.36.11.35.09.55-.07.6-.22.07-.41-.16-.57-.69l-.47-1.48c-.07-.22.02-.38.26-.48z"/><path class="cls-6" transform="rotate(-89.3 269.472 107.208)" d="M269.22 103.76h.5v6.89h-.5z"/><path class="cls-6" d="M283.53 133.72l-.13.03c-.12.04-.23.09-.33.16l-1.52-4.05-8.51-22.61.47-.17 8.52 22.63 1.5 4.01z"/><path fill="#a30520" d="M25.96 128.07h168.9v152.22H25.96z"/><path class="cls-5" d="M144.59 128.07h-2c0-15.66-12.74-28.4-28.4-28.4s-28.4 12.74-28.4 28.4h-2c0-16.76 13.64-30.4 30.4-30.4s30.4 13.64 30.4 30.4z"/><path class="cls-5" d="M137.03 128.07h-2c0-15.66-12.74-28.4-28.4-28.4s-28.4 12.74-28.4 28.4h-2c0-16.76 13.64-30.4 30.4-30.4s30.4 13.64 30.4 30.4z"/><path class="cls-2" d="M25.96 142.63h168.9v9.24H25.96zm0 28.69h168.9v9.24H25.96zm0 28.68h168.9v9.26H25.96zm0 28.69h168.9v9.24H25.96zm0 28.7h168.9v9.24H25.96z"/><path class="cls-6" d="M25.96 128.07v152.22l-9.19.01 9.19-152.23z"/><path class="cls-6" d="M0 280.05h342v.5H0z"/><rect class="cls-6" x="111.56" y="171.55" width="116.28" height="78.61" rx="8.7" ry="8.7" transform="rotate(-10.99 169.754 210.94)"/><path class="cls-3" d="M210.67 179.81c-1.73 0-3.3-1.01-3.8-2.61-.63-2.01.67-4.21 2.89-4.9 2.21-.69 4.53.39 5.16 2.4.3.98.17 2.03-.38 2.96-.55.92-1.44 1.61-2.5 1.94-.45.14-.91.21-1.36.21zm.45-7.22c-.4 0-.81.06-1.21.18-1.95.61-3.1 2.53-2.56 4.28.54 1.75 2.57 2.68 4.53 2.07.95-.3 1.74-.91 2.22-1.72.48-.8.6-1.71.33-2.56-.43-1.39-1.8-2.26-3.32-2.26zm-19.2 10.42c-1.73 0-3.3-1.01-3.8-2.61-.3-.98-.17-2.03.38-2.96a4.4 4.4 0 012.5-1.94c2.22-.69 4.53.39 5.16 2.4.63 2.01-.67 4.21-2.88 4.9-.45.14-.91.21-1.36.21zm.45-7.22c-.4 0-.81.06-1.21.19-.95.3-1.74.91-2.22 1.72-.48.8-.6 1.71-.33 2.56.54 1.75 2.58 2.68 4.53 2.08 1.95-.61 3.1-2.53 2.56-4.28-.43-1.39-1.8-2.26-3.32-2.26zm-19.22 10.42c-.62 0-1.24-.13-1.8-.39-.98-.45-1.69-1.24-1.99-2.22s-.17-2.03.38-2.96c.55-.92 1.44-1.61 2.5-1.94 1.07-.33 2.19-.27 3.16.18.98.45 1.69 1.24 1.99 2.22s.17 2.03-.38 2.96c-.55.92-1.44 1.61-2.5 1.94-.45.14-.91.21-1.37.21zm.46-7.23c-.4 0-.82.06-1.22.19-.95.3-1.74.91-2.22 1.72-.48.8-.6 1.71-.33 2.56s.87 1.52 1.72 1.92c.86.4 1.85.45 2.81.16.95-.3 1.74-.91 2.22-1.72.48-.8.6-1.71.33-2.56-.26-.84-.87-1.52-1.72-1.92-.5-.23-1.04-.34-1.59-.34zM154.4 189.4c-1.73 0-3.3-1.01-3.8-2.61-.63-2.01.67-4.21 2.88-4.9 1.07-.33 2.19-.27 3.16.18.98.45 1.69 1.24 1.99 2.22s.17 2.03-.38 2.96a4.4 4.4 0 01-2.5 1.94c-.45.14-.91.21-1.36.21zm.45-7.22c-.41 0-.82.06-1.22.19-1.95.61-3.1 2.53-2.56 4.28.54 1.75 2.58 2.68 4.53 2.08.95-.3 1.74-.91 2.22-1.72.48-.8.6-1.71.33-2.56-.26-.84-.87-1.52-1.72-1.92-.5-.23-1.04-.34-1.59-.34zm-19.21 10.42c-1.73 0-3.3-1.01-3.8-2.61-.3-.98-.17-2.03.38-2.96.55-.92 1.44-1.61 2.5-1.94 2.22-.69 4.53.39 5.16 2.4.63 2.01-.67 4.21-2.89 4.9-.45.14-.91.21-1.36.21zm.45-7.22c-.4 0-.81.06-1.21.19-.95.3-1.74.91-2.22 1.72-.48.8-.6 1.71-.33 2.56.54 1.75 2.58 2.67 4.53 2.08 1.95-.61 3.1-2.53 2.56-4.28-.43-1.39-1.8-2.26-3.32-2.26z"/><path class="cls-3" transform="rotate(-9.9 190.178 188.228)" d="M156.28 187.9h67.6v.5h-67.6z"/><path class="cls-2" d="M86.39 187.46h167.55v108.45H86.39z"/><path class="cls-6" d="M171.12 233.41c-18.51 0-33.56-15.06-33.56-33.56h2c0 17.4 14.16 31.56 31.56 31.56s31.56-14.16 31.56-31.56h2c0 18.51-15.06 33.56-33.56 33.56zm-84.73-45.95l-5.91 108.46h5.91V187.46z"/><path fill="#363441" d="M86.39 257.39h169.47v38.53H86.39z"/><path class="cls-6" d="M129.98 199.6h82.29v.5h-82.29z"/><path class="cls-7" d="M208.59 236.48h99.52v59.43h-99.52z"/><path class="cls-7" d="M205.52 229.95h105.67v13.07H205.52z"/><path class="cls-6" d="M208.59 243.02v3.51l99.52-3.51h-99.52zM66.56 295.67h256.55v.5H66.56z"/></svg>