<svg id="_финальные_цвета" xmlns="http://www.w3.org/2000/svg" viewBox="0 0 342 316.23"><defs><style>.cls-1{fill:#e7c800}.cls-2{fill:#fff}.cls-4{fill:#e5e4e1}.cls-5{fill:#a30520}.cls-7{fill:#1f1e1e}.cls-8{fill:#211f2a}.cls-9{fill:#1b5589}.cls-10{fill:#363441}.cls-11{fill:#3e230f}.cls-13{fill:#5b6f58}.cls-14,.cls-15{stroke-width:2px;fill:none;stroke:#211f2a;stroke-miterlimit:10}.cls-15{stroke-width:.5px}</style></defs><path class="cls-8" d="M30.24 292.59a8.34 8.34 0 00-5.9-2.44c-4.62 0-8.38 3.75-8.38 8.38s3.76 8.38 8.38 8.38c2.3 0 4.38-.93 5.9-2.43 1.53-1.52 2.48-3.62 2.48-5.95s-.95-4.43-2.48-5.94zm-5.9 11.81c-3.24 0-5.87-2.63-5.87-5.87s2.63-5.87 5.87-5.87 5.87 2.63 5.87 5.87-2.63 5.87-5.87 5.87z"/><path class="cls-9" d="M30.23 286.53h33.33v25.59H30.23z"/><path class="cls-8" d="M32.88 312.13H60.9v4H32.88zm2.06-12.81v.01l-.03.07-.23.69-4.03 12.03h-.42v-.32l4.2-12.47v-.01l-4.2-12.45v-.34h.41l4.04 12.01.26.78z"/><path class="cls-8" d="M42.82 298.55l-4.07-12.02-4.06 12.01-.24.71-.02.07.26.77 4.06 12.03 4.07-12.03.23-.69.03-.07-.26-.78zm-4.07 12.04l-3.8-11.26 3.8-11.27 3.81 11.27-3.81 11.26z"/><path class="cls-8" d="M50.95 298.55l-4.07-12.02-4.06 12.02-.24.7-.02.08.26.76 4.06 12.03 4.07-12.03.23-.69.03-.07-.26-.78zm-4.07 12.04l-3.8-11.26 3.8-11.27 3.82 11.27-3.82 11.26z"/><path class="cls-8" d="M59.34 299.32l-.25-.76-4.07-12.03-4.07 12.02-.23.7-.02.08.25.76 4.07 12.03 4.07-12.03.23-.69.03-.06v-.02h-.01zm-4.32 11.27l-3.81-11.26 3.81-11.27 3.81 11.26-3.81 11.27z"/><path class="cls-8" d="M63.15 312.13l-4.33-12.81 4.33-12.79h.41v.36l-4.22 12.43 4.22 12.47v.34h-.41z"/><path class="cls-14" d="M272.62 303.3l57.2-149.08-122.04-80.23"/><path class="cls-4" d="M219.42 158.36l-49.32-32.64 40.44-40 29.88 19.78-21 52.86z"/><path class="cls-15" d="M225.36 94.93c31.26-10.45 57.01-.48 72.36 22.32 20.84 30.95 32.1 36.96 32.1 36.96s-30.19 79.5 4.39 161.92"/><rect class="cls-10" x="319.06" y="264.62" width="5.66" height="19.32" rx="2.83" ry="2.83" transform="rotate(-10.7 321.925 274.295)"/><path class="cls-14" d="M225.36 95.53l4.57-6.95"/><path class="cls-10" d="M311.43 303.69c-4.4-3.18-10.5-5.16-17.24-5.16h-36.1c-6.73 0-12.83 1.97-17.24 5.16-4.42 3.18-7.14 7.59-7.14 12.45h84.85c0-4.86-2.72-9.26-7.14-12.45zM76.28 257.06h169.45v15.74c0 4.05-3.29 7.35-7.35 7.35H83.63c-4.05 0-7.35-3.29-7.35-7.35v-15.74z"/><path class="cls-10" d="M185.84 316.34h-49.67l6.01-35.7.08-.49.04-.24h37.42l.04.24.08.49 6 35.7z"/><path class="cls-2" d="M152.62 240.94l-1.41-17.56-.04-.49-.13-.27-15.71-33.16c-1.5-3.19-4.63-5.17-8.15-5.17s-6.65 1.98-8.16 5.17l-1.06 2.23-2.73 5.75c-1.15-.12-2.3.49-2.81 1.59l-1.72 3.59c-.52 1.1-.26 2.38.54 3.2l-1.58 3.33c-1.16-.12-2.3.49-2.82 1.59l-1.71 3.58c-.53 1.11-.27 2.38.54 3.21l-2.39 5.05s-.03-.02-.05-.03v.15l-.07.66-1.41 17.58c-.39 4.94 3.67 9.15 8.82 9.15h33.23c5.16 0 9.22-4.21 8.83-9.15zm-40.13-37.47l1.69-3.54 1.56.75-1.68 3.54s-.02.03-.02.04l-1.56-.75s0-.03.01-.04zm-3.92 8.24l1.56.74-1.62 3.41-1.56-.74 1.62-3.41zm35.95 12.96h-34.68c-1.69 0-3.36-.37-4.86-1.09l2.47-5.2c.09.02.18.02.27.02 1.05 0 2.07-.6 2.56-1.62l1.71-3.59c.52-1.09.28-2.35-.54-3.19l1.57-3.33h.01c.09.02.17.02.26.02.32 0 .64-.05.95-.16.72-.26 1.28-.77 1.61-1.45l1.71-3.6c.52-1.08.28-2.35-.53-3.18l.95-2.01 2.84-5.99c1.17-2.48 3.61-4.02 6.36-4.02s5.18 1.54 6.35 4.02l15.78 33.31c-1.48.7-3.12 1.06-4.79 1.06zm30.77-16.65v1.99h12.07v-1.99h-12.07zm0 14.09v1.99h12.07v-1.99h-12.07zm0-28.27v1.99h19.51v-1.99h-19.51zm0 23.57v1.99h19.51v-1.99h-19.51zm0-4.69v1.99h30.45v-1.99h-30.45zm0-28.48v1.99h45.28v-1.99h-45.28zm0 4.91v1.99h45.28v-1.99h-45.28zm43.29 45.19h-41.3c-1.1 0-1.99.9-1.99 1.99v.05c0 1.1.89 2 1.99 2h41.3c1.09 0 1.99-.9 1.99-2v-.05c0-1.09-.9-1.99-1.99-1.99zm-.52 9.5h-10.98c-1.54 0-2.8 1.26-2.8 2.79v.86c0 1.55 1.26 2.8 2.8 2.8h10.98c1.54 0 2.79-1.25 2.79-2.8v-.86c0-1.53-1.25-2.79-2.79-2.79zM91.42 172.85v.5h139.17v-.5H91.42zm0 0v.5h139.17v-.5H91.42zm126.64 70.99h-10.98c-1.54 0-2.8 1.26-2.8 2.79v.86c0 1.55 1.26 2.8 2.8 2.8h10.98c1.54 0 2.79-1.25 2.79-2.8v-.86c0-1.53-1.25-2.79-2.79-2.79zm.52-9.5h-41.3c-1.1 0-1.99.9-1.99 1.99v.05c0 1.1.89 2 1.99 2h41.3c1.09 0 1.99-.9 1.99-2v-.05c0-1.09-.9-1.99-1.99-1.99zm-43.29-45.19v1.99h45.28v-1.99h-45.28zm0-4.91v1.99h45.28v-1.99h-45.28zm0 28.48v1.99h30.45v-1.99h-30.45zm0 4.69v1.99h19.51v-1.99h-19.51zm0-23.57v1.99h19.51v-1.99h-19.51zm0 28.27v1.99h12.07v-1.99h-12.07zm0-14.09v1.99h12.07v-1.99h-12.07zm-22.67 32.92l-1.41-17.56-.04-.49-.13-.27-15.71-33.16c-1.5-3.19-4.63-5.17-8.15-5.17s-6.65 1.98-8.16 5.17l-1.06 2.23-2.73 5.75c-1.15-.12-2.3.49-2.81 1.59l-1.72 3.59c-.52 1.1-.26 2.38.54 3.2l-1.58 3.33c-1.16-.12-2.3.49-2.82 1.59l-1.71 3.58c-.53 1.11-.27 2.38.54 3.21l-2.39 5.05s-.03-.02-.05-.03v.15l-.07.66-1.41 17.58c-.39 4.94 3.67 9.15 8.82 9.15h33.23c5.16 0 9.22-4.21 8.83-9.15zm-40.13-37.47l1.69-3.54 1.56.75-1.68 3.54s-.02.03-.02.04l-1.56-.75s0-.03.01-.04zm-3.92 8.24l1.56.74-1.62 3.41-1.56-.74 1.62-3.41zm35.95 12.96h-34.68c-1.69 0-3.36-.37-4.86-1.09l2.47-5.2c.09.02.18.02.27.02 1.05 0 2.07-.6 2.56-1.62l1.71-3.59c.52-1.09.28-2.35-.54-3.19l1.57-3.33h.01c.09.02.17.02.26.02.32 0 .64-.05.95-.16.72-.26 1.28-.77 1.61-1.45l1.71-3.6c.52-1.08.28-2.35-.53-3.18l.95-2.01 2.84-5.99c1.17-2.48 3.61-4.02 6.36-4.02s5.18 1.54 6.35 4.02l15.78 33.31c-1.48.7-3.12 1.06-4.79 1.06zm8.1 16.27l-1.41-17.56-.04-.49-.13-.27-15.71-33.16c-1.5-3.19-4.63-5.17-8.15-5.17s-6.65 1.98-8.16 5.17l-1.06 2.23-2.73 5.75c-1.15-.12-2.3.49-2.81 1.59l-1.72 3.59c-.52 1.1-.26 2.38.54 3.2l-1.58 3.33c-1.16-.12-2.3.49-2.82 1.59l-1.71 3.58c-.53 1.11-.27 2.38.54 3.21l-2.39 5.05s-.03-.02-.05-.03v.15l-.07.66-1.41 17.58c-.39 4.94 3.67 9.15 8.82 9.15h33.23c5.16 0 9.22-4.21 8.83-9.15zm-40.13-37.47l1.69-3.54 1.56.75-1.68 3.54s-.02.03-.02.04l-1.56-.75s0-.03.01-.04zm-3.92 8.24l1.56.74-1.62 3.41-1.56-.74 1.62-3.41zm35.95 12.96h-34.68c-1.69 0-3.36-.37-4.86-1.09l2.47-5.2c.09.02.18.02.27.02 1.05 0 2.07-.6 2.56-1.62l1.71-3.59c.52-1.09.28-2.35-.54-3.19l1.57-3.33h.01c.09.02.17.02.26.02.32 0 .64-.05.95-.16.72-.26 1.28-.77 1.61-1.45l1.71-3.6c.52-1.08.28-2.35-.53-3.18l.95-2.01 2.84-5.99c1.17-2.48 3.61-4.02 6.36-4.02s5.18 1.54 6.35 4.02l15.78 33.31c-1.48.7-3.12 1.06-4.79 1.06zm30.77-16.65v1.99h12.07v-1.99h-12.07zm0 14.09v1.99h12.07v-1.99h-12.07zm0-28.27v1.99h19.51v-1.99h-19.51zm0 23.57v1.99h19.51v-1.99h-19.51zm0-4.69v1.99h30.45v-1.99h-30.45zm0-28.48v1.99h45.28v-1.99h-45.28zm0 4.91v1.99h45.28v-1.99h-45.28zm43.29 45.19h-41.3c-1.1 0-1.99.9-1.99 1.99v.05c0 1.1.89 2 1.99 2h41.3c1.09 0 1.99-.9 1.99-2v-.05c0-1.09-.9-1.99-1.99-1.99zm-.52 9.5h-10.98c-1.54 0-2.8 1.26-2.8 2.79v.86c0 1.55 1.26 2.8 2.8 2.8h10.98c1.54 0 2.79-1.25 2.79-2.8v-.86c0-1.53-1.25-2.79-2.79-2.79zM91.42 172.85v.5h139.17v-.5H91.42zm0 0v.5h139.17v-.5H91.42zm126.64 70.99h-10.98c-1.54 0-2.8 1.26-2.8 2.79v.86c0 1.55 1.26 2.8 2.8 2.8h10.98c1.54 0 2.79-1.25 2.79-2.8v-.86c0-1.53-1.25-2.79-2.79-2.79zm.52-9.5h-41.3c-1.1 0-1.99.9-1.99 1.99v.05c0 1.1.89 2 1.99 2h41.3c1.09 0 1.99-.9 1.99-2v-.05c0-1.09-.9-1.99-1.99-1.99zm-43.29-45.19v1.99h45.28v-1.99h-45.28zm0-4.91v1.99h45.28v-1.99h-45.28zm0 28.48v1.99h30.45v-1.99h-30.45zm0 4.69v1.99h19.51v-1.99h-19.51zm0-23.57v1.99h19.51v-1.99h-19.51zm0 28.27v1.99h12.07v-1.99h-12.07zm0-14.09v1.99h12.07v-1.99h-12.07zm-22.67 32.92l-1.41-17.56-.04-.49-.13-.27-15.71-33.16c-1.5-3.19-4.63-5.17-8.15-5.17s-6.65 1.98-8.16 5.17l-1.06 2.23-2.73 5.75c-1.15-.12-2.3.49-2.81 1.59l-1.72 3.59c-.52 1.1-.26 2.38.54 3.2l-1.58 3.33c-1.16-.12-2.3.49-2.82 1.59l-1.71 3.58c-.53 1.11-.27 2.38.54 3.21l-2.39 5.05s-.03-.02-.05-.03v.15l-.07.66-1.41 17.58c-.39 4.94 3.67 9.15 8.82 9.15h33.23c5.16 0 9.22-4.21 8.83-9.15zm-40.13-37.47l1.69-3.54 1.56.75-1.68 3.54s-.02.03-.02.04l-1.56-.75s0-.03.01-.04zm-3.92 8.24l1.56.74-1.62 3.41-1.56-.74 1.62-3.41zm35.95 12.96h-34.68c-1.69 0-3.36-.37-4.86-1.09l2.47-5.2c.09.02.18.02.27.02 1.05 0 2.07-.6 2.56-1.62l1.71-3.59c.52-1.09.28-2.35-.54-3.19l1.57-3.33h.01c.09.02.17.02.26.02.32 0 .64-.05.95-.16.72-.26 1.28-.77 1.61-1.45l1.71-3.6c.52-1.08.28-2.35-.53-3.18l.95-2.01 2.84-5.99c1.17-2.48 3.61-4.02 6.36-4.02s5.18 1.54 6.35 4.02l15.78 33.31c-1.48.7-3.12 1.06-4.79 1.06zm8.1 16.27l-1.41-17.56-.04-.49-.13-.27-15.71-33.16c-1.5-3.19-4.63-5.17-8.15-5.17s-6.65 1.98-8.16 5.17l-1.06 2.23-2.73 5.75c-1.15-.12-2.3.49-2.81 1.59l-1.72 3.59c-.52 1.1-.26 2.38.54 3.2l-1.58 3.33c-1.16-.12-2.3.49-2.82 1.59l-1.71 3.58c-.53 1.11-.27 2.38.54 3.21l-2.39 5.05s-.03-.02-.05-.03v.15l-.07.66-1.41 17.58c-.39 4.94 3.67 9.15 8.82 9.15h33.23c5.16 0 9.22-4.21 8.83-9.15zm-40.13-37.47l1.69-3.54 1.56.75-1.68 3.54s-.02.03-.02.04l-1.56-.75s0-.03.01-.04zm-3.92 8.24l1.56.74-1.62 3.41-1.56-.74 1.62-3.41zm35.95 12.96h-34.68c-1.69 0-3.36-.37-4.86-1.09l2.47-5.2c.09.02.18.02.27.02 1.05 0 2.07-.6 2.56-1.62l1.71-3.59c.52-1.09.28-2.35-.54-3.19l1.57-3.33h.01c.09.02.17.02.26.02.32 0 .64-.05.95-.16.72-.26 1.28-.77 1.61-1.45l1.71-3.6c.52-1.08.28-2.35-.53-3.18l.95-2.01 2.84-5.99c1.17-2.48 3.61-4.02 6.36-4.02s5.18 1.54 6.35 4.02l15.78 33.31c-1.48.7-3.12 1.06-4.79 1.06zm30.77-16.65v1.99h12.07v-1.99h-12.07zm0 14.09v1.99h12.07v-1.99h-12.07zm0-28.27v1.99h19.51v-1.99h-19.51zm0 23.57v1.99h19.51v-1.99h-19.51zm0-4.69v1.99h30.45v-1.99h-30.45zm0-28.48v1.99h45.28v-1.99h-45.28zm0 4.91v1.99h45.28v-1.99h-45.28zm43.29 45.19h-41.3c-1.1 0-1.99.9-1.99 1.99v.05c0 1.1.89 2 1.99 2h41.3c1.09 0 1.99-.9 1.99-2v-.05c0-1.09-.9-1.99-1.99-1.99zm-.52 9.5h-10.98c-1.54 0-2.8 1.26-2.8 2.79v.86c0 1.55 1.26 2.8 2.8 2.8h10.98c1.54 0 2.79-1.25 2.79-2.8v-.86c0-1.53-1.25-2.79-2.79-2.79zM91.42 172.85v.5h139.17v-.5H91.42zm0 0v.5h139.17v-.5H91.42zm126.64 70.99h-10.98c-1.54 0-2.8 1.26-2.8 2.79v.86c0 1.55 1.26 2.8 2.8 2.8h10.98c1.54 0 2.79-1.25 2.79-2.8v-.86c0-1.53-1.25-2.79-2.79-2.79zm.52-9.5h-41.3c-1.1 0-1.99.9-1.99 1.99v.05c0 1.1.89 2 1.99 2h41.3c1.09 0 1.99-.9 1.99-2v-.05c0-1.09-.9-1.99-1.99-1.99zm-43.29-45.19v1.99h45.28v-1.99h-45.28zm0-4.91v1.99h45.28v-1.99h-45.28zm0 28.48v1.99h30.45v-1.99h-30.45zm0 4.69v1.99h19.51v-1.99h-19.51zm0-23.57v1.99h19.51v-1.99h-19.51zm0 28.27v1.99h12.07v-1.99h-12.07zm0-14.09v1.99h12.07v-1.99h-12.07zm-22.67 32.92l-1.41-17.56-.04-.49-.13-.27-15.71-33.16c-1.5-3.19-4.63-5.17-8.15-5.17s-6.65 1.98-8.16 5.17l-1.06 2.23-2.73 5.75c-1.15-.12-2.3.49-2.81 1.59l-1.72 3.59c-.52 1.1-.26 2.38.54 3.2l-1.58 3.33c-1.16-.12-2.3.49-2.82 1.59l-1.71 3.58c-.53 1.11-.27 2.38.54 3.21l-2.39 5.05s-.03-.02-.05-.03v.15l-.07.66-1.41 17.58c-.39 4.94 3.67 9.15 8.82 9.15h33.23c5.16 0 9.22-4.21 8.83-9.15zm-40.13-37.47l1.69-3.54 1.56.75-1.68 3.54s-.02.03-.02.04l-1.56-.75s0-.03.01-.04zm-3.92 8.24l1.56.74-1.62 3.41-1.56-.74 1.62-3.41zm35.95 12.96h-34.68c-1.69 0-3.36-.37-4.86-1.09l2.47-5.2c.09.02.18.02.27.02 1.05 0 2.07-.6 2.56-1.62l1.71-3.59c.52-1.09.28-2.35-.54-3.19l1.57-3.33h.01c.09.02.17.02.26.02.32 0 .64-.05.95-.16.72-.26 1.28-.77 1.61-1.45l1.71-3.6c.52-1.08.28-2.35-.53-3.18l.95-2.01 2.84-5.99c1.17-2.48 3.61-4.02 6.36-4.02s5.18 1.54 6.35 4.02l15.78 33.31c-1.48.7-3.12 1.06-4.79 1.06zm8.1 16.27l-1.41-17.56-.04-.49-.13-.27-15.71-33.16c-1.5-3.19-4.63-5.17-8.15-5.17s-6.65 1.98-8.16 5.17l-1.06 2.23-2.73 5.75c-1.15-.12-2.3.49-2.81 1.59l-1.72 3.59c-.52 1.1-.26 2.38.54 3.2l-1.58 3.33c-1.16-.12-2.3.49-2.82 1.59l-1.71 3.58c-.53 1.11-.27 2.38.54 3.21l-2.39 5.05s-.03-.02-.05-.03v.15l-.07.66-1.41 17.58c-.39 4.94 3.67 9.15 8.82 9.15h33.23c5.16 0 9.22-4.21 8.83-9.15zm-40.13-37.47l1.69-3.54 1.56.75-1.68 3.54s-.02.03-.02.04l-1.56-.75s0-.03.01-.04zm-3.92 8.24l1.56.74-1.62 3.41-1.56-.74 1.62-3.41zm35.95 12.96h-34.68c-1.69 0-3.36-.37-4.86-1.09l2.47-5.2c.09.02.18.02.27.02 1.05 0 2.07-.6 2.56-1.62l1.71-3.59c.52-1.09.28-2.35-.54-3.19l1.57-3.33h.01c.09.02.17.02.26.02.32 0 .64-.05.95-.16.72-.26 1.28-.77 1.61-1.45l1.71-3.6c.52-1.08.28-2.35-.53-3.18l.95-2.01 2.84-5.99c1.17-2.48 3.61-4.02 6.36-4.02s5.18 1.54 6.35 4.02l15.78 33.31c-1.48.7-3.12 1.06-4.79 1.06zm30.77-16.65v1.99h12.07v-1.99h-12.07zm0 14.09v1.99h12.07v-1.99h-12.07zm0-28.27v1.99h19.51v-1.99h-19.51zm0 23.57v1.99h19.51v-1.99h-19.51zm0-4.69v1.99h30.45v-1.99h-30.45zm0-28.48v1.99h45.28v-1.99h-45.28zm0 4.91v1.99h45.28v-1.99h-45.28zm43.29 45.19h-41.3c-1.1 0-1.99.9-1.99 1.99v.05c0 1.1.89 2 1.99 2h41.3c1.09 0 1.99-.9 1.99-2v-.05c0-1.09-.9-1.99-1.99-1.99zm-.52 9.5h-10.98c-1.54 0-2.8 1.26-2.8 2.79v.86c0 1.55 1.26 2.8 2.8 2.8h10.98c1.54 0 2.79-1.25 2.79-2.8v-.86c0-1.53-1.25-2.79-2.79-2.79zM91.42 172.85v.5h139.17v-.5H91.42zm0 0v.5h139.17v-.5H91.42zm126.64 70.99h-10.98c-1.54 0-2.8 1.26-2.8 2.79v.86c0 1.55 1.26 2.8 2.8 2.8h10.98c1.54 0 2.79-1.25 2.79-2.8v-.86c0-1.53-1.25-2.79-2.79-2.79zm.52-5.46c1.09 0 1.99-.9 1.99-2v-.05c0-1.09-.9-1.99-1.99-1.99h-41.3c-1.1 0-1.99.9-1.99 1.99v.05c0 1.1.89 2 1.99 2h41.3zm-43.29-47.24h45.28v-1.99h-45.28v1.99zm45.28-6.9h-45.28v1.99h45.28v-1.99zm-45.28 30.47h30.45v-1.99h-30.45v1.99zm0 4.69h19.51v-1.99h-19.51v1.99zm0-23.57h19.51v-1.99h-19.51v1.99zm0 28.27h12.07v-1.99h-12.07v1.99zm0-14.09h12.07v-1.99h-12.07v1.99zm-24.08 13.37l-.04-.49-.13-.27-15.71-33.16c-1.5-3.19-4.63-5.17-8.15-5.17s-6.65 1.98-8.16 5.17l-1.06 2.23-2.73 5.75c-1.15-.12-2.3.49-2.81 1.59l-1.72 3.59c-.52 1.1-.26 2.38.54 3.2l-1.58 3.33c-1.16-.12-2.3.49-2.82 1.59l-1.71 3.58c-.53 1.11-.27 2.38.54 3.21l-2.39 5.05s-.03-.02-.05-.03v.15l-.07.66-1.41 17.58c-.39 4.94 3.67 9.15 8.82 9.15h33.23c5.16 0 9.22-4.21 8.83-9.15l-1.41-17.56zm-38.72-19.91l1.69-3.54 1.56.75-1.68 3.54s-.02.03-.02.04l-1.56-.75s0-.03.01-.04zm-3.92 8.24l1.56.74-1.62 3.41-1.56-.74 1.62-3.41zm35.95 12.96h-34.68c-1.69 0-3.36-.37-4.86-1.09l2.47-5.2c.09.02.18.02.27.02 1.05 0 2.07-.6 2.56-1.62l1.71-3.59c.52-1.09.28-2.35-.54-3.19l1.57-3.33h.01c.09.02.17.02.26.02.32 0 .64-.05.95-.16.72-.26 1.28-.77 1.61-1.45l1.71-3.6c.52-1.08.28-2.35-.53-3.18l.95-2.01 2.84-5.99c1.17-2.48 3.61-4.02 6.36-4.02s5.18 1.54 6.35 4.02l15.78 33.31c-1.48.7-3.12 1.06-4.79 1.06zm93.3-61.61H84.2c-4.37 0-7.91 3.54-7.91 7.91v86.09h169.44v-86.09c0-4.37-3.54-7.91-7.91-7.91zm7.42 93.5H76.79v-85.59c0-4.09 3.32-7.42 7.41-7.42h5.56a88.72 88.72 0 00-.73 7.52c-.35 1.19-.96 3.77-.8 6.72.2 4.05 1.02 7.31 1.82 7.27.78-.04 1.25-3.37 1.03-7.43-.16-3.01-1.08-5.56-1.54-6.66.13-2.55.39-5.03.73-7.42h3.86c.42 1.05.86 1.65 1.22 1.6.35-.04.6-.63.74-1.6h141.73c4.09 0 7.42 3.33 7.42 7.42v85.59zM91.42 173.35h139.17v-.5H91.42v.5zm126.64 70.49h-10.98c-1.54 0-2.8 1.26-2.8 2.79v.86c0 1.55 1.26 2.8 2.8 2.8h10.98c1.54 0 2.79-1.25 2.79-2.8v-.86c0-1.53-1.25-2.79-2.79-2.79zm.52-5.46c1.09 0 1.99-.9 1.99-2v-.05c0-1.09-.9-1.99-1.99-1.99h-41.3c-1.1 0-1.99.9-1.99 1.99v.05c0 1.1.89 2 1.99 2h41.3zm-43.29-47.24h45.28v-1.99h-45.28v1.99zm45.28-6.9h-45.28v1.99h45.28v-1.99zm-45.28 30.47h30.45v-1.99h-30.45v1.99zm0 4.69h19.51v-1.99h-19.51v1.99zm0-23.57h19.51v-1.99h-19.51v1.99zm0 28.27h12.07v-1.99h-12.07v1.99zm0-14.09h12.07v-1.99h-12.07v1.99zm-24.08 13.37l-.04-.49-.13-.27-15.71-33.16c-1.5-3.19-4.63-5.17-8.15-5.17s-6.65 1.98-8.16 5.17l-1.06 2.23-2.73 5.75c-1.15-.12-2.3.49-2.81 1.59l-1.72 3.59c-.52 1.1-.26 2.38.54 3.2l-1.58 3.33c-1.16-.12-2.3.49-2.82 1.59l-1.71 3.58c-.53 1.11-.27 2.38.54 3.21l-2.39 5.05s-.03-.02-.05-.03v.15l-.07.66-1.41 17.58c-.39 4.94 3.67 9.15 8.82 9.15h33.23c5.16 0 9.22-4.21 8.83-9.15l-1.41-17.56zm-38.72-19.91l1.69-3.54 1.56.75-1.68 3.54s-.02.03-.02.04l-1.56-.75s0-.03.01-.04zm-3.92 8.24l1.56.74-1.62 3.41-1.56-.74 1.62-3.41zm35.95 12.96h-34.68c-1.69 0-3.36-.37-4.86-1.09l2.47-5.2c.09.02.18.02.27.02 1.05 0 2.07-.6 2.56-1.62l1.71-3.59c.52-1.09.28-2.35-.54-3.19l1.57-3.33h.01c.09.02.17.02.26.02.32 0 .64-.05.95-.16.72-.26 1.28-.77 1.61-1.45l1.71-3.6c.52-1.08.28-2.35-.53-3.18l.95-2.01 2.84-5.99c1.17-2.48 3.61-4.02 6.36-4.02s5.18 1.54 6.35 4.02l15.78 33.31c-1.48.7-3.12 1.06-4.79 1.06zm8.1 16.27l-1.41-17.56-.04-.49-.13-.27-15.71-33.16c-1.5-3.19-4.63-5.17-8.15-5.17s-6.65 1.98-8.16 5.17l-1.06 2.23-2.73 5.75c-1.15-.12-2.3.49-2.81 1.59l-1.72 3.59c-.52 1.1-.26 2.38.54 3.2l-1.58 3.33c-1.16-.12-2.3.49-2.82 1.59l-1.71 3.58c-.53 1.11-.27 2.38.54 3.21l-2.39 5.05s-.03-.02-.05-.03v.15l-.07.66-1.41 17.58c-.39 4.94 3.67 9.15 8.82 9.15h33.23c5.16 0 9.22-4.21 8.83-9.15zm-40.13-37.47l1.69-3.54 1.56.75-1.68 3.54s-.02.03-.02.04l-1.56-.75s0-.03.01-.04zm-3.92 8.24l1.56.74-1.62 3.41-1.56-.74 1.62-3.41zm35.95 12.96h-34.68c-1.69 0-3.36-.37-4.86-1.09l2.47-5.2c.09.02.18.02.27.02 1.05 0 2.07-.6 2.56-1.62l1.71-3.59c.52-1.09.28-2.35-.54-3.19l1.57-3.33h.01c.09.02.17.02.26.02.32 0 .64-.05.95-.16.72-.26 1.28-.77 1.61-1.45l1.71-3.6c.52-1.08.28-2.35-.53-3.18l.95-2.01 2.84-5.99c1.17-2.48 3.61-4.02 6.36-4.02s5.18 1.54 6.35 4.02l15.78 33.31c-1.48.7-3.12 1.06-4.79 1.06zm30.77-16.65v1.99h12.07v-1.99h-12.07zm0 14.09v1.99h12.07v-1.99h-12.07zm0-28.27v1.99h19.51v-1.99h-19.51zm0 23.57v1.99h19.51v-1.99h-19.51zm0-4.69v1.99h30.45v-1.99h-30.45zm0-28.48v1.99h45.28v-1.99h-45.28zm0 4.91v1.99h45.28v-1.99h-45.28zm43.29 45.19h-41.3c-1.1 0-1.99.9-1.99 1.99v.05c0 1.1.89 2 1.99 2h41.3c1.09 0 1.99-.9 1.99-2v-.05c0-1.09-.9-1.99-1.99-1.99zm-.52 9.5h-10.98c-1.54 0-2.8 1.26-2.8 2.79v.86c0 1.55 1.26 2.8 2.8 2.8h10.98c1.54 0 2.79-1.25 2.79-2.8v-.86c0-1.53-1.25-2.79-2.79-2.79zM91.42 172.85v.5h139.17v-.5H91.42zm0 0v.5h139.17v-.5H91.42zm126.64 70.99h-10.98c-1.54 0-2.8 1.26-2.8 2.79v.86c0 1.55 1.26 2.8 2.8 2.8h10.98c1.54 0 2.79-1.25 2.79-2.8v-.86c0-1.53-1.25-2.79-2.79-2.79zm.52-9.5h-41.3c-1.1 0-1.99.9-1.99 1.99v.05c0 1.1.89 2 1.99 2h41.3c1.09 0 1.99-.9 1.99-2v-.05c0-1.09-.9-1.99-1.99-1.99zm-43.29-45.19v1.99h45.28v-1.99h-45.28zm0-4.91v1.99h45.28v-1.99h-45.28zm0 28.48v1.99h30.45v-1.99h-30.45zm0 4.69v1.99h19.51v-1.99h-19.51zm0-23.57v1.99h19.51v-1.99h-19.51zm0 28.27v1.99h12.07v-1.99h-12.07zm0-14.09v1.99h12.07v-1.99h-12.07zm-22.67 32.92l-1.41-17.56-.04-.49-.13-.27-15.71-33.16c-1.5-3.19-4.63-5.17-8.15-5.17s-6.65 1.98-8.16 5.17l-1.06 2.23-2.73 5.75c-1.15-.12-2.3.49-2.81 1.59l-1.72 3.59c-.52 1.1-.26 2.38.54 3.2l-1.58 3.33c-1.16-.12-2.3.49-2.82 1.59l-1.71 3.58c-.53 1.11-.27 2.38.54 3.21l-2.39 5.05s-.03-.02-.05-.03v.15l-.07.66-1.41 17.58c-.39 4.94 3.67 9.15 8.82 9.15h33.23c5.16 0 9.22-4.21 8.83-9.15zm-40.13-37.47l1.69-3.54 1.56.75-1.68 3.54s-.02.03-.02.04l-1.56-.75s0-.03.01-.04zm-3.92 8.24l1.56.74-1.62 3.41-1.56-.74 1.62-3.41zm35.95 12.96h-34.68c-1.69 0-3.36-.37-4.86-1.09l2.47-5.2c.09.02.18.02.27.02 1.05 0 2.07-.6 2.56-1.62l1.71-3.59c.52-1.09.28-2.35-.54-3.19l1.57-3.33h.01c.09.02.17.02.26.02.32 0 .64-.05.95-.16.72-.26 1.28-.77 1.61-1.45l1.71-3.6c.52-1.08.28-2.35-.53-3.18l.95-2.01 2.84-5.99c1.17-2.48 3.61-4.02 6.36-4.02s5.18 1.54 6.35 4.02l15.78 33.31c-1.48.7-3.12 1.06-4.79 1.06zm8.1 16.27l-1.41-17.56-.04-.49-.13-.27-15.71-33.16c-1.5-3.19-4.63-5.17-8.15-5.17s-6.65 1.98-8.16 5.17l-1.06 2.23-2.73 5.75c-1.15-.12-2.3.49-2.81 1.59l-1.72 3.59c-.52 1.1-.26 2.38.54 3.2l-1.58 3.33c-1.16-.12-2.3.49-2.82 1.59l-1.71 3.58c-.53 1.11-.27 2.38.54 3.21l-2.39 5.05s-.03-.02-.05-.03v.15l-.07.66-1.41 17.58c-.39 4.94 3.67 9.15 8.82 9.15h33.23c5.16 0 9.22-4.21 8.83-9.15zm-40.13-37.47l1.69-3.54 1.56.75-1.68 3.54s-.02.03-.02.04l-1.56-.75s0-.03.01-.04zm-3.92 8.24l1.56.74-1.62 3.41-1.56-.74 1.62-3.41zm35.95 12.96h-34.68c-1.69 0-3.36-.37-4.86-1.09l2.47-5.2c.09.02.18.02.27.02 1.05 0 2.07-.6 2.56-1.62l1.71-3.59c.52-1.09.28-2.35-.54-3.19l1.57-3.33h.01c.09.02.17.02.26.02.32 0 .64-.05.95-.16.72-.26 1.28-.77 1.61-1.45l1.71-3.6c.52-1.08.28-2.35-.53-3.18l.95-2.01 2.84-5.99c1.17-2.48 3.61-4.02 6.36-4.02s5.18 1.54 6.35 4.02l15.78 33.31c-1.48.7-3.12 1.06-4.79 1.06zm30.77-16.65v1.99h12.07v-1.99h-12.07zm0 14.09v1.99h12.07v-1.99h-12.07zm0-28.27v1.99h19.51v-1.99h-19.51zm0 23.57v1.99h19.51v-1.99h-19.51zm0-4.69v1.99h30.45v-1.99h-30.45zm0-28.48v1.99h45.28v-1.99h-45.28zm0 4.91v1.99h45.28v-1.99h-45.28zm43.29 45.19h-41.3c-1.1 0-1.99.9-1.99 1.99v.05c0 1.1.89 2 1.99 2h41.3c1.09 0 1.99-.9 1.99-2v-.05c0-1.09-.9-1.99-1.99-1.99zm-.52 9.5h-10.98c-1.54 0-2.8 1.26-2.8 2.79v.86c0 1.55 1.26 2.8 2.8 2.8h10.98c1.54 0 2.79-1.25 2.79-2.8v-.86c0-1.53-1.25-2.79-2.79-2.79zM91.42 172.85v.5h139.17v-.5H91.42zm0 0v.5h139.17v-.5H91.42zm126.64 70.99h-10.98c-1.54 0-2.8 1.26-2.8 2.79v.86c0 1.55 1.26 2.8 2.8 2.8h10.98c1.54 0 2.79-1.25 2.79-2.8v-.86c0-1.53-1.25-2.79-2.79-2.79zm.52-9.5h-41.3c-1.1 0-1.99.9-1.99 1.99v.05c0 1.1.89 2 1.99 2h41.3c1.09 0 1.99-.9 1.99-2v-.05c0-1.09-.9-1.99-1.99-1.99zm-43.29-45.19v1.99h45.28v-1.99h-45.28zm0-4.91v1.99h45.28v-1.99h-45.28zm0 28.48v1.99h30.45v-1.99h-30.45zm0 4.69v1.99h19.51v-1.99h-19.51zm0-23.57v1.99h19.51v-1.99h-19.51zm0 28.27v1.99h12.07v-1.99h-12.07zm0-14.09v1.99h12.07v-1.99h-12.07zm-22.67 32.92l-1.41-17.56-.04-.49-.13-.27-15.71-33.16c-1.5-3.19-4.63-5.17-8.15-5.17s-6.65 1.98-8.16 5.17l-1.06 2.23-2.73 5.75c-1.15-.12-2.3.49-2.81 1.59l-1.72 3.59c-.52 1.1-.26 2.38.54 3.2l-1.58 3.33c-1.16-.12-2.3.49-2.82 1.59l-1.71 3.58c-.53 1.11-.27 2.38.54 3.21l-2.39 5.05s-.03-.02-.05-.03v.15l-.07.66-1.41 17.58c-.39 4.94 3.67 9.15 8.82 9.15h33.23c5.16 0 9.22-4.21 8.83-9.15zm-40.13-37.47l1.69-3.54 1.56.75-1.68 3.54s-.02.03-.02.04l-1.56-.75s0-.03.01-.04zm-3.92 8.24l1.56.74-1.62 3.41-1.56-.74 1.62-3.41zm35.95 12.96h-34.68c-1.69 0-3.36-.37-4.86-1.09l2.47-5.2c.09.02.18.02.27.02 1.05 0 2.07-.6 2.56-1.62l1.71-3.59c.52-1.09.28-2.35-.54-3.19l1.57-3.33h.01c.09.02.17.02.26.02.32 0 .64-.05.95-.16.72-.26 1.28-.77 1.61-1.45l1.71-3.6c.52-1.08.28-2.35-.53-3.18l.95-2.01 2.84-5.99c1.17-2.48 3.61-4.02 6.36-4.02s5.18 1.54 6.35 4.02l15.78 33.31c-1.48.7-3.12 1.06-4.79 1.06zm8.1 16.27l-1.41-17.56-.04-.49-.13-.27-15.71-33.16c-1.5-3.19-4.63-5.17-8.15-5.17s-6.65 1.98-8.16 5.17l-1.06 2.23-2.73 5.75c-1.15-.12-2.3.49-2.81 1.59l-1.72 3.59c-.52 1.1-.26 2.38.54 3.2l-1.58 3.33c-1.16-.12-2.3.49-2.82 1.59l-1.71 3.58c-.53 1.11-.27 2.38.54 3.21l-2.39 5.05s-.03-.02-.05-.03v.15l-.07.66-1.41 17.58c-.39 4.94 3.67 9.15 8.82 9.15h33.23c5.16 0 9.22-4.21 8.83-9.15zm-40.13-37.47l1.69-3.54 1.56.75-1.68 3.54s-.02.03-.02.04l-1.56-.75s0-.03.01-.04zm-3.92 8.24l1.56.74-1.62 3.41-1.56-.74 1.62-3.41zm35.95 12.96h-34.68c-1.69 0-3.36-.37-4.86-1.09l2.47-5.2c.09.02.18.02.27.02 1.05 0 2.07-.6 2.56-1.62l1.71-3.59c.52-1.09.28-2.35-.54-3.19l1.57-3.33h.01c.09.02.17.02.26.02.32 0 .64-.05.95-.16.72-.26 1.28-.77 1.61-1.45l1.71-3.6c.52-1.08.28-2.35-.53-3.18l.95-2.01 2.84-5.99c1.17-2.48 3.61-4.02 6.36-4.02s5.18 1.54 6.35 4.02l15.78 33.31c-1.48.7-3.12 1.06-4.79 1.06zm30.77-16.65v1.99h12.07v-1.99h-12.07zm0 14.09v1.99h12.07v-1.99h-12.07zm0-28.27v1.99h19.51v-1.99h-19.51zm0 23.57v1.99h19.51v-1.99h-19.51zm0-4.69v1.99h30.45v-1.99h-30.45zm0-28.48v1.99h45.28v-1.99h-45.28zm0 4.91v1.99h45.28v-1.99h-45.28zm43.29 45.19h-41.3c-1.1 0-1.99.9-1.99 1.99v.05c0 1.1.89 2 1.99 2h41.3c1.09 0 1.99-.9 1.99-2v-.05c0-1.09-.9-1.99-1.99-1.99zm-.52 9.5h-10.98c-1.54 0-2.8 1.26-2.8 2.79v.86c0 1.55 1.26 2.8 2.8 2.8h10.98c1.54 0 2.79-1.25 2.79-2.8v-.86c0-1.53-1.25-2.79-2.79-2.79zM91.42 172.85v.5h139.17v-.5H91.42zm0 0v.5h139.17v-.5H91.42zm126.64 70.99h-10.98c-1.54 0-2.8 1.26-2.8 2.79v.86c0 1.55 1.26 2.8 2.8 2.8h10.98c1.54 0 2.79-1.25 2.79-2.8v-.86c0-1.53-1.25-2.79-2.79-2.79zm.52-9.5h-41.3c-1.1 0-1.99.9-1.99 1.99v.05c0 1.1.89 2 1.99 2h41.3c1.09 0 1.99-.9 1.99-2v-.05c0-1.09-.9-1.99-1.99-1.99zm-43.29-45.19v1.99h45.28v-1.99h-45.28zm0-4.91v1.99h45.28v-1.99h-45.28zm0 28.48v1.99h30.45v-1.99h-30.45zm0 4.69v1.99h19.51v-1.99h-19.51zm0-23.57v1.99h19.51v-1.99h-19.51zm0 28.27v1.99h12.07v-1.99h-12.07zm0-14.09v1.99h12.07v-1.99h-12.07zm-22.67 32.92l-1.41-17.56-.04-.49-.13-.27-15.71-33.16c-1.5-3.19-4.63-5.17-8.15-5.17s-6.65 1.98-8.16 5.17l-1.06 2.23-2.73 5.75c-1.15-.12-2.3.49-2.81 1.59l-1.72 3.59c-.52 1.1-.26 2.38.54 3.2l-1.58 3.33c-1.16-.12-2.3.49-2.82 1.59l-1.71 3.58c-.53 1.11-.27 2.38.54 3.21l-2.39 5.05s-.03-.02-.05-.03v.15l-.07.66-1.41 17.58c-.39 4.94 3.67 9.15 8.82 9.15h33.23c5.16 0 9.22-4.21 8.83-9.15zm-40.13-37.47l1.69-3.54 1.56.75-1.68 3.54s-.02.03-.02.04l-1.56-.75s0-.03.01-.04zm-3.92 8.24l1.56.74-1.62 3.41-1.56-.74 1.62-3.41zm35.95 12.96h-34.68c-1.69 0-3.36-.37-4.86-1.09l2.47-5.2c.09.02.18.02.27.02 1.05 0 2.07-.6 2.56-1.62l1.71-3.59c.52-1.09.28-2.35-.54-3.19l1.57-3.33h.01c.09.02.17.02.26.02.32 0 .64-.05.95-.16.72-.26 1.28-.77 1.61-1.45l1.71-3.6c.52-1.08.28-2.35-.53-3.18l.95-2.01 2.84-5.99c1.17-2.48 3.61-4.02 6.36-4.02s5.18 1.54 6.35 4.02l15.78 33.31c-1.48.7-3.12 1.06-4.79 1.06zm8.1 16.27l-1.41-17.56-.04-.49-.13-.27-15.71-33.16c-1.5-3.19-4.63-5.17-8.15-5.17s-6.65 1.98-8.16 5.17l-1.06 2.23-2.73 5.75c-1.15-.12-2.3.49-2.81 1.59l-1.72 3.59c-.52 1.1-.26 2.38.54 3.2l-1.58 3.33c-1.16-.12-2.3.49-2.82 1.59l-1.71 3.58c-.53 1.11-.27 2.38.54 3.21l-2.39 5.05s-.03-.02-.05-.03v.15l-.07.66-1.41 17.58c-.39 4.94 3.67 9.15 8.82 9.15h33.23c5.16 0 9.22-4.21 8.83-9.15zm-40.13-37.47l1.69-3.54 1.56.75-1.68 3.54s-.02.03-.02.04l-1.56-.75s0-.03.01-.04zm-3.92 8.24l1.56.74-1.62 3.41-1.56-.74 1.62-3.41zm35.95 12.96h-34.68c-1.69 0-3.36-.37-4.86-1.09l2.47-5.2c.09.02.18.02.27.02 1.05 0 2.07-.6 2.56-1.62l1.71-3.59c.52-1.09.28-2.35-.54-3.19l1.57-3.33h.01c.09.02.17.02.26.02.32 0 .64-.05.95-.16.72-.26 1.28-.77 1.61-1.45l1.71-3.6c.52-1.08.28-2.35-.53-3.18l.95-2.01 2.84-5.99c1.17-2.48 3.61-4.02 6.36-4.02s5.18 1.54 6.35 4.02l15.78 33.31c-1.48.7-3.12 1.06-4.79 1.06zm30.77-16.65v1.99h12.07v-1.99h-12.07zm0 14.09v1.99h12.07v-1.99h-12.07zm0-28.27v1.99h19.51v-1.99h-19.51zm0 23.57v1.99h19.51v-1.99h-19.51zm0-4.69v1.99h30.45v-1.99h-30.45zm0-28.48v1.99h45.28v-1.99h-45.28zm0 4.91v1.99h45.28v-1.99h-45.28zm43.29 45.19h-41.3c-1.1 0-1.99.9-1.99 1.99v.05c0 1.1.89 2 1.99 2h41.3c1.09 0 1.99-.9 1.99-2v-.05c0-1.09-.9-1.99-1.99-1.99zm-.52 9.5h-10.98c-1.54 0-2.8 1.26-2.8 2.79v.86c0 1.55 1.26 2.8 2.8 2.8h10.98c1.54 0 2.79-1.25 2.79-2.8v-.86c0-1.53-1.25-2.79-2.79-2.79zM91.42 172.85v.5h139.17v-.5H91.42zm0 0v.5h139.17v-.5H91.42zm126.64 70.99h-10.98c-1.54 0-2.8 1.26-2.8 2.79v.86c0 1.55 1.26 2.8 2.8 2.8h10.98c1.54 0 2.79-1.25 2.79-2.8v-.86c0-1.53-1.25-2.79-2.79-2.79zm.52-9.5h-41.3c-1.1 0-1.99.9-1.99 1.99v.05c0 1.1.89 2 1.99 2h41.3c1.09 0 1.99-.9 1.99-2v-.05c0-1.09-.9-1.99-1.99-1.99zm-43.29-45.19v1.99h45.28v-1.99h-45.28zm0-4.91v1.99h45.28v-1.99h-45.28zm0 28.48v1.99h30.45v-1.99h-30.45zm0 4.69v1.99h19.51v-1.99h-19.51zm0-23.57v1.99h19.51v-1.99h-19.51zm0 28.27v1.99h12.07v-1.99h-12.07zm0-14.09v1.99h12.07v-1.99h-12.07zm-22.67 32.92l-1.41-17.56-.04-.49-.13-.27-15.71-33.16c-1.5-3.19-4.63-5.17-8.15-5.17s-6.65 1.98-8.16 5.17l-1.06 2.23-2.73 5.75c-1.15-.12-2.3.49-2.81 1.59l-1.72 3.59c-.52 1.1-.26 2.38.54 3.2l-1.58 3.33c-1.16-.12-2.3.49-2.82 1.59l-1.71 3.58c-.53 1.11-.27 2.38.54 3.21l-2.39 5.05s-.03-.02-.05-.03v.15l-.07.66-1.41 17.58c-.39 4.94 3.67 9.15 8.82 9.15h33.23c5.16 0 9.22-4.21 8.83-9.15zm-40.13-37.47l1.69-3.54 1.56.75-1.68 3.54s-.02.03-.02.04l-1.56-.75s0-.03.01-.04zm-3.92 8.24l1.56.74-1.62 3.41-1.56-.74 1.62-3.41zm35.95 12.96h-34.68c-1.69 0-3.36-.37-4.86-1.09l2.47-5.2c.09.02.18.02.27.02 1.05 0 2.07-.6 2.56-1.62l1.71-3.59c.52-1.09.28-2.35-.54-3.19l1.57-3.33h.01c.09.02.17.02.26.02.32 0 .64-.05.95-.16.72-.26 1.28-.77 1.61-1.45l1.71-3.6c.52-1.08.28-2.35-.53-3.18l.95-2.01 2.84-5.99c1.17-2.48 3.61-4.02 6.36-4.02s5.18 1.54 6.35 4.02l15.78 33.31c-1.48.7-3.12 1.06-4.79 1.06z"/><path class="cls-11" d="M151.21 223.38l-1.64.78-.26-.55-15.78-33.31c-1.17-2.48-3.6-4.02-6.35-4.02s-5.19 1.54-6.36 4.02l-2.84 5.99-1.79-.86 1.77-3.74 1.06-2.23c1.51-3.19 4.64-5.17 8.16-5.17s6.65 1.98 8.15 5.17l15.71 33.16.13.26.04.5z"/><path class="cls-1" d="M117.03 198.3a2.8 2.8 0 00-.85-.61 2.58 2.58 0 00-.96-.25c-1.15-.12-2.3.49-2.81 1.59l-1.72 3.59c-.52 1.1-.26 2.38.54 3.2.22.23.49.43.79.57l.06.03c.31.14.62.23.94.25h.01c.09.02.17.02.26.02.32 0 .64-.05.95-.16.72-.26 1.28-.77 1.61-1.45l1.71-3.6c.52-1.08.28-2.35-.53-3.18zm-2.97 5.92s-.02.03-.02.04c-.23.39-.71.55-1.11.36l-.04-.02a.836.836 0 01-.41-1.09c0-.01 0-.03.01-.04l1.69-3.54.02-.04a.846.846 0 011.16-.38c.42.2.6.7.4 1.12l-.02.05-1.68 3.54zm-2.61 5.78c-.23-.25-.52-.44-.85-.6-.3-.15-.63-.23-.95-.25-1.16-.12-2.3.49-2.82 1.59l-1.71 3.58c-.53 1.11-.27 2.38.54 3.21.22.23.48.43.78.57l.06.03c.31.14.63.23.95.25.09.02.18.02.27.02 1.05 0 2.07-.6 2.56-1.62l1.71-3.59c.52-1.09.28-2.35-.54-3.19zm-2.94 5.86l-.03.07c-.19.41-.7.6-1.12.4l-.04-.03a.82.82 0 01-.4-1.12l.03-.06 1.62-3.41.05-.11c.1-.21.27-.36.48-.44.09-.03.18-.05.28-.05.13 0 .27.04.41.11.42.2.6.7.4 1.11l-.06.12-1.62 3.41z"/><path class="cls-1" d="M114.15 204.31l-1.12 2.36h-.01l-1.57 3.33-1.19 2.51-.13-.06-1.56-.74-.11-.05 1.19-2.51 1.58-3.33 1.12-2.37.13.06 1.56.75.11.05zm-5.53 11.6l-1.17 2.47-2.47 5.2-.25.53-1.58-.75.06-.66.06-.12 2.39-5.05 1.16-2.47.13.06 1.56.74.11.05zm11.13-23.38l-1.77 3.76-.95 2.01-1.16 2.44-.13-.06-1.56-.75-.11-.05 1.15-2.44 2.73-5.76.01.01 1.79.84z"/><path class="cls-11" d="M143.79 250.09h-33.23c-5.15 0-9.21-4.21-8.82-9.15l1.41-17.58.06-.66v-.15l.06.03c.54.39 1.11.72 1.71 1 1.5.72 3.17 1.09 4.86 1.09h34.68c1.67 0 3.31-.36 4.79-1.06.61-.28 1.18-.6 1.73-.99l.13.26.04.5 1.41 17.56c.39 4.94-3.67 9.15-8.83 9.15z"/><path class="cls-1" d="M111.09 228.34h32.17v.5h-32.17zm16.09 1.67c-1.04 0-1.88.85-1.88 1.88s.84 1.9 1.88 1.9 1.88-.85 1.88-1.9-.83-1.88-1.88-1.88zm0 3.28c-.77 0-1.38-.63-1.38-1.4s.61-1.38 1.38-1.38 1.38.63 1.38 1.38-.61 1.4-1.38 1.4z"/><path class="cls-7" d="M237.82 163.06H84.2c-4.37 0-7.91 3.54-7.91 7.91v86.09h169.44v-86.09c0-4.37-3.54-7.91-7.91-7.91zm7.42 93.5H76.79v-85.59c0-4.09 3.32-7.42 7.41-7.42h153.62c4.09 0 7.42 3.33 7.42 7.42v85.59z"/><path class="cls-4" d="M161.01 263.94c-2.67 0-4.85 2.17-4.85 4.85s2.18 4.85 4.85 4.85 4.85-2.18 4.85-4.85-2.17-4.85-4.85-4.85zm0 9.2c-2.4 0-4.35-1.95-4.35-4.35s1.95-4.35 4.35-4.35 4.35 1.95 4.35 4.35-1.95 4.35-4.35 4.35z"/><path class="cls-13" d="M186.61 234.34v4.03h-9.33c-1.1 0-1.99-.9-1.99-1.99v-.05c0-1.09.89-1.99 1.99-1.99h9.33z"/><path class="cls-9" d="M186.61 234.34h11.32v4.03h-11.32z"/><path class="cls-11" d="M197.93 234.34h11.32v4.03h-11.32z"/><path class="cls-8" d="M220.57 236.33v.05c0 1.1-.9 1.99-1.99 1.99h-9.33v-4.03h9.33c1.1 0 1.99.9 1.99 1.99zm-45.28-47.18h45.28v1.99h-45.28zm0-4.91h45.28v1.99h-45.28zm0 9.6h19.51v1.99h-19.51zm0 14.18h12.07v1.99h-12.07zm0 4.7h30.44v1.99h-30.44zm0 4.69h19.51v1.99h-19.51zm0 4.7h12.07v1.99h-12.07z"/><path fill="#faf5f1" d="M179.84 280.64h-37.66l.08-.49h37.5l.08.49z"/><path class="cls-5" d="M220.84 246.63v.87c0 1.54-1.24 2.8-2.79 2.8h-10.98c-1.54 0-2.8-1.25-2.8-2.8v-.87a2.8 2.8 0 012.8-2.79h10.98c1.54 0 2.79 1.25 2.79 2.79z"/><path class="cls-7" d="M91.42 172.85h139.17v.5H91.42z"/><path class="cls-13" d="M72.84 115.75c-.32-4.05 1.89-11.86 9.31-16.77l.28.41c-8.1 5.36-9.31 13.6-9.09 16.32l-.5.04zm-4.43.01c-.02-.2-1.76-20.48 7.71-29.12l.34.37c-9.28 8.47-7.57 28.5-7.55 28.7l-.5.04zM19.4 250.28l-.34-.36c25.82-24.06 25.1-70.02 24.58-103.58-.23-14.9-.43-27.77 1.83-34.94 1.07-3.38 4.77-5.83 9-5.94 5.22-.16 9.65 3.23 11.83 9.02l5.47 15.94-.47.16-5.47-15.94c-2.1-5.58-6.32-8.81-11.35-8.69-4.02.11-7.54 2.41-8.54 5.59-2.24 7.09-2.04 19.92-1.81 34.78.52 33.65 1.24 79.74-24.74 103.95z"/><path fill="#b30017" d="M53.91 132.8h35.27v3.52H53.91z"/><path class="cls-8" d="M33.82 135.81h74.99v1.99H33.82z"/><path class="cls-13" d="M46.9 108.3c-2.38.59-4.41.7-4.52.23s1.72-1.32 4.11-1.91c2.38-.59 4.52-.23 4.52-.23s-1.72 1.32-4.11 1.91zm41.92-1.75c1.42-.87 2.71-1.36 2.88-1.08s-.85 1.21-2.27 2.08-2.88 1.08-2.88 1.08.85-1.21 2.27-2.08zm-36.46-6.48c-.85-1.5-1.31-2.86-1.01-3.02s1.22.92 2.07 2.42 1.01 3.02 1.01 3.02-1.22-.92-2.07-2.42zM77 104.95c1.34-1.1 2.59-1.77 2.81-1.51s-.7 1.36-2.03 2.46-2.81 1.51-2.81 1.51.7-1.36 2.03-2.46zm1.98-6.64c.81-2.15 1.8-3.77 2.22-3.62s.11 2.03-.7 4.18c-.81 2.15-2.22 3.62-2.22 3.62s-.11-2.03.7-4.18zm4.67-.6c1.74-1.02 3.32-1.57 3.52-1.23s-1.06 1.44-2.8 2.46-3.52 1.23-3.52 1.23 1.06-1.44 2.8-2.46zm-15.98 1.21c-.21-2.45 0-4.46.48-4.5s1.03 1.91 1.25 4.36c.21 2.45-.48 4.5-.48 4.5s-1.03-1.91-1.25-4.36zm3.89-15.34c-.41-1.87-.45-3.46-.09-3.54s1 1.37 1.41 3.25.09 3.54.09 3.54-1-1.37-1.41-3.25zm1.75 8.91c2.06-2.11 4.07-3.49 4.48-3.09s-.93 2.44-2.99 4.55-4.48 3.09-4.48 3.09.93-2.44 2.99-4.55zm4.54-8.87c2.21-2.26 4.36-3.74 4.8-3.31s-1 2.61-3.21 4.87-4.8 3.31-4.8 3.31 1-2.61 3.21-4.87zm-31.62 35.33c.32 2.47.2 4.52-.28 4.58s-1.13-1.89-1.46-4.35c-.32-2.47.28-4.58.28-4.58s1.13 1.89 1.46 4.35zm.77 71.92c.85 4.99.75 9.16-.22 9.33s-2.45-3.74-3.3-8.73c-.85-4.99.22-9.33.22-9.33s2.45 3.74 3.3 8.73zm-15.22 30.77c-2.9 4.15-4.59 7.97-3.79 8.53.81.56 3.81-2.34 6.71-6.49s3.79-8.53 3.79-8.53-3.81 2.34-6.71 6.49zm-1.23 17.14c-.42 4.04-.12 7.39.67 7.47s1.76-3.13 2.18-7.18c.42-4.04-.67-7.47-.67-7.47s-1.76 3.13-2.18 7.18zm-12.01 10c-2.27 2.04-3.78 4.05-3.39 4.49s2.56-.85 4.82-2.89c2.27-2.04 3.39-4.49 3.39-4.49s-2.56.85-4.82 2.89zm21.15-76.9c-1.52 4.83-1.98 8.98-1.04 9.27s2.93-3.38 4.45-8.21c1.52-4.83 1.04-9.27 1.04-9.27s-2.93 3.38-4.45 8.21zm7.61-20.96c1.1 4.07 1.34 7.54.55 7.75s-2.32-2.91-3.42-6.98-.55-7.75-.55-7.75 2.32 2.91 3.42 6.98zm-4.34-18.67c-1.1 3.48-2.54 6.12-3.22 5.91s-.33-3.21.76-6.69c1.1-3.48 3.22-5.91 3.22-5.91s.33 3.21-.76 6.69z"/><path class="cls-8" d="M53.91 133.8h35.27l-35.27 1.3v-1.3z"/><path d="M72.39 92.6l-.47-.17c1.24-3.38.63-6.38.62-6.41l.49-.1c.03.13.64 3.17-.64 6.69z" fill="#46542e"/><path class="cls-13" d="M59.47 107.04c-3.98-1.79-5.71-5.19-5.79-5.33l.45-.22s1.73 3.39 5.55 5.1l-.2.45z"/><path class="cls-5" d="M51.66 110.58h39.76v20.65a2.57 2.57 0 01-2.57 2.57H54.24a2.57 2.57 0 01-2.57-2.57v-20.65z"/><path class="cls-13" d="M97.63 124.79c-.03 3.64-.54 7.28-1.28 11.02-.13.67-.27 1.32-.43 1.99-.56 2.59-1.21 5.23-1.9 7.95-.23.92-.47 1.85-.7 2.8-.28 1.1-.55 2.22-.81 3.35-.84 3.53-1.61 7.24-2.18 11.15-.02.16-.05.33-.07.5-.34 2.39-.6 4.87-.73 7.42-.1 1.75-.14 3.53-.12 5.37h-.5c-.02-1.78.02-3.54.11-5.27.14-2.59.39-5.09.73-7.52.03-.17.05-.34.07-.5.92-6.29 2.36-12.08 3.7-17.42.29-1.15.57-2.28.85-3.39.37-1.51.72-2.99 1.05-4.44.04-.21.09-.43.13-.64.09-.45.18-.9.28-1.34 1.51-7.54 2.04-14.62-.33-22.01-.05-.2-.12-.37-.18-.56-.14-.4-.3-.78-.5-1.14-.93-1.74-2.49-2.96-4.42-3.41-2.39-.56-4.89.14-6.73 1.88-.06.04-.12.1-.17.15l-.15-.15-.2-.21a8.16 8.16 0 013.67-2.1 7.05 7.05 0 011.64-.23c.68-.04 1.36.02 2.04.18 2.5.58 4.41 2.36 5.27 4.87.72 2.11 1.2 4.2 1.48 6.27.25 1.81.35 3.62.34 5.43z"/><path class="cls-13" d="M95.55 115.79c-.17 2.27-.66 4.09-1.1 4.05s-.67-1.9-.5-4.17c.17-2.27 1.1-4.05 1.1-4.05s.67 1.9.5 4.17zm4.03 8.25c.8 2.85.99 5.29.44 5.44s-1.65-2.03-2.45-4.88c-.8-2.85-.44-5.44-.44-5.44s1.65 2.03 2.45 4.88zm-5.72 19.2c-1.79 3.21-3.75 5.52-4.38 5.17s.32-3.23 2.12-6.44c1.79-3.21 4.38-5.17 4.38-5.17s-.32 3.23-2.12 6.44zm2.29 19.82c-.02.18-.04.34-.06.5-.14.97-.39 1.55-.74 1.59-.37.05-.81-.55-1.22-1.59-.06-.16-.12-.32-.18-.5-.53-1.5-1.03-3.69-1.35-6.16a22.82 22.82 0 01-.08-4.99c.19-2.23.61-3.71.61-3.71s.08.13.2.36c.56 1.03 2.07 4.1 2.57 7.9.35 2.62.42 5 .26 6.6zm-6.11 22c-.8.04-1.61-3.22-1.82-7.27-.16-2.95.46-5.52.81-6.72.13-.45.23-.71.23-.71s.11.22.28.61c.46 1.1 1.38 3.65 1.54 6.66.22 4.06-.25 7.39-1.04 7.43z"/><path class="cls-2" d="M91.42 130.24c-1.81 0-2.68-1.68-3.53-3.31-.82-1.57-1.59-3.05-3.09-3.05s-2.28 1.48-3.09 3.05c-.85 1.63-1.73 3.31-3.53 3.31s-2.68-1.68-3.53-3.31c-.82-1.57-1.59-3.05-3.09-3.05s-2.28 1.48-3.09 3.05c-.85 1.63-1.73 3.31-3.53 3.31s-2.69-1.68-3.54-3.31c-.82-1.57-1.59-3.05-3.09-3.05s-2.28 1.48-3.09 3.05c-.85 1.63-1.73 3.31-3.54 3.31v-.5c1.51 0 2.28-1.48 3.09-3.05.85-1.63 1.73-3.31 3.54-3.31s2.69 1.68 3.54 3.31c.82 1.57 1.59 3.05 3.09 3.05s2.28-1.48 3.09-3.05c.85-1.63 1.73-3.31 3.53-3.31s2.68 1.68 3.53 3.31c.82 1.57 1.59 3.05 3.09 3.05s2.28-1.48 3.09-3.05c.85-1.63 1.73-3.31 3.53-3.31s2.68 1.68 3.53 3.31c.82 1.57 1.59 3.05 3.09 3.05v.5z"/><path class="cls-15" d="M0 316.13h342"/></svg>