<svg width="24" height="24" fill="none" xmlns="http://www.w3.org/2000/svg"><g clip-path="url(#clip0_174_107)"><path d="M23.198 1.556a2.234 2.234 0 00-2.267-.354L1.381 9.096a2.229 2.229 0 00.114 4.165l3.954 1.376 2.205 7.289c.03.097.073.19.129.275.008.014.02.023.03.036a1.079 1.079 0 00.306.29c.104.068.218.118.339.148l.013.001.007.003c.073.015.147.023.22.023.008 0 .014-.004.021-.004.112-.002.223-.021.329-.057.024-.008.045-.022.07-.033.078-.032.153-.074.222-.125l.166-.14 2.948-3.254 4.397 3.406c.387.301.864.465 1.354.465a2.241 2.241 0 002.19-1.78l3.56-17.474a2.214 2.214 0 00-.757-2.15zM9.131 14.984c-.15.15-.254.343-.297.552l-.338 1.64-.855-2.828 4.435-2.31-2.945 2.946zm9.057 5.786l-5.196-4.025a1.092 1.092 0 00-1.476.13l-.944 1.042.333-1.622 7.727-7.727a1.09 1.09 0 00-1.275-1.738l-11.09 5.774-4.063-1.487L21.818 3.27l-3.63 17.5z" fill="#000"/></g><defs><clipPath id="clip0_174_107"><path fill="#fff" d="M0 0h24v24H0z"/></clipPath></defs></svg>