<svg id="_финальные_цвета" xmlns="http://www.w3.org/2000/svg" viewBox="0 0 342 316.23"><defs><style>.cls-2{fill:#fff}.cls-3{fill:#faf5f1}.cls-5{fill:#b30017}.cls-6{fill:#211f2a}.cls-7{fill:#0b090c}.cls-8{fill:#1b5589}.cls-9{fill:#363441}</style></defs><path class="cls-6" d="M8.91 249.79h324.18v2H8.91z"/><path class="cls-5" d="M53.04 271.08l8.05-12.91 5.22 11.87-6.89 7.17-6.38-6.13z"/><path class="cls-5" d="M87.02 295.05l-4.33 4.51-14.76-14.18-1.62-15.33c1.03-.33 1.62-1.4 1.36-2.44l-3.59-14.19 2.81-1.27 6.32 24.6c.75 2.92 2.3 5.59 4.48 7.69l5.61 5.39 3.74 5.24z"/><path class="cls-7" d="M89.91 306.49l-7.22-6.94 4.33-4.51 3.38 4.73c.74 1.03 1.05 2.26.97 3.45a5.296 5.296 0 01-1.46 3.27z"/><path class="cls-9" d="M43.28 273.36h70.78v42.26H43.28z"/><path class="cls-6" d="M52.14 273.38l-8.86 7.24v35.01l9.64-42.25h-.78z"/><path class="cls-9" transform="rotate(-67.1 45.362 279.325)" d="M7.78 274.67h75.15v9.3H7.78z"/><path class="cls-6" d="M258.62 33.21v.5h7.73c.67 0 1.27-.18 1.78-.5h-9.51zm0 0v.5h7.73c.67 0 1.27-.18 1.78-.5h-9.51zm60.81-5.62L286.29 9.96c-.4-.22-.83-.34-1.27-.37a2.09 2.09 0 00-.5 0c-.44.03-.88.15-1.28.37l-24.25 12.9-.53.28-8.36 4.45c-1.36.73-2 2.16-1.62 3.66.21.86.71 1.54 1.38 1.96.46.3 1.01.47 1.61.49h66.43c1.54 0 2.78-.96 3.15-2.46.38-1.5-.26-2.93-1.62-3.66zm1.14 3.54c-.24.96-1.08 2.08-2.67 2.08h-66.43c-1.48-.07-2.28-1.14-2.51-2.07-.24-.96-.02-2.35 1.38-3.1l8.65-4.61.53-.28 23.95-12.74c.81-.43 1.78-.43 2.59 0l33.13 17.63c1.4.75 1.62 2.14 1.38 3.1zm-61.95 2.08v.5h7.73c.67 0 1.27-.18 1.78-.5h-9.51z"/><path class="cls-6" d="M284.51 3.44h.5v6.4h-.5z"/><path class="cls-5" d="M310.91 53.62V31.11h-1v21.53l-2.72-2.65a9.443 9.443 0 00-13.16-.03l-2.74 2.63a8.944 8.944 0 01-6.52 2.53c-2.35.07-4.72-.77-6.53-2.53l-2.74-2.63c-3.21-3.11-8.07-3.49-11.69-1.15-.52.34-1.01.73-1.47 1.18l-2.72 2.65V31.11h-1v22.5l-5.41 5.27 1.86 5.94.11.33 8.46 27h42.25l10.43-33.27-5.41-5.27z"/><path class="cls-2" d="M267.99 67.93h-.31c-3.34-.1-6.1-1.67-7.58-4.32l.44-.24c1.39 2.49 4 3.98 7.16 4.07 3.45.08 6.79-1.56 8.49-4.22l.42.27c-1.74 2.73-5.09 4.46-8.61 4.46z"/><path class="cls-2" transform="rotate(-15.34 271.855 80.044)" d="M271.55 67.01h.5v26.05h-.5z"/><path class="cls-2" d="M301.54 67.93c-3.51 0-6.87-1.73-8.61-4.46l.42-.27c1.7 2.66 5.04 4.3 8.49 4.22 3.16-.09 5.76-1.58 7.16-4.07l.44.24c-1.48 2.65-4.24 4.23-7.58 4.32h-.31z"/><path class="cls-2" d="M301.42 67.55l-.11.38-6.64 24.23h-.53l6.66-24.25.14-.5.48.14z"/><path class="cls-6" d="M334.09 41.31v274.34h-2V41.31c0-20.41-16.6-37.01-37.01-37.01H179.36l.05-.43v-.63c0-.2.02-.4.07-.59.02-.12.05-.24.09-.35h115.51c21.51 0 39.01 17.5 39.01 39.01z"/><path class="cls-6" d="M334.09 315.65h-2V41.31c0-20.41-16.6-37.01-37.01-37.01H46.92C26.51 4.3 9.91 20.9 9.91 41.31v274.34h-2V41.31C7.91 19.8 25.41 2.3 46.92 2.3h248.15c21.51 0 39.01 17.5 39.01 39.01v274.34z"/><path d="M205.91 37.15h54.49V46h-54.49zm72.14 66.35l-4.31 2.61c-4.55 2.78-9.58 4.1-14.57 4.1-7.84 0-15.56-3.29-20.99-9.41-.86-.96-1.65-1.99-2.38-3.08l-1.81 2.64c-7.85 11.36-22.79 15.34-35.25 9.37l-12.43-5.94 12.33-47.33c1.07-4.07 3.49-7.65 6.86-10.15l.08-.06.33-.25h54.49c.12.08.25.16.37.25 1.11.74 2.12 1.6 3.04 2.56 2.33 2.46 3.97 5.55 4.68 8.94l1.96 9.38.11.5 5.12 24.53 2.37 11.34z" fill="#3a2413"/><path class="cls-6" d="M256.51 62.36l-18.33 38.43a26.83 26.83 0 01-2.38-3.08l20.71-35.35zm-41.36-29.15v.5h36.82v-.5h-36.82zm0 0v.5h36.82v-.5h-36.82zm52.73-5.62l-8.36-4.45-.53-.28-24.24-12.9c-.4-.22-.84-.34-1.28-.37a2.09 2.09 0 00-.5 0c-.44.03-.88.15-1.28.37l-33.13 17.63c-1.36.73-2 2.16-1.63 3.66.37 1.5 1.61 2.46 3.15 2.46h66.27c.67 0 1.27-.18 1.78-.5.67-.42 1.16-1.1 1.38-1.96.37-1.5-.27-2.93-1.63-3.66zm1.14 3.54c-.24.96-1.08 2.08-2.67 2.08h-66.27c-1.58 0-2.43-1.12-2.66-2.08-.24-.96-.03-2.35 1.37-3.1l33.14-17.63c.81-.43 1.77-.43 2.58 0l23.95 12.74.53.28 8.66 4.61c1.4.75 1.61 2.14 1.37 3.1zm-53.87 2.08v.5h36.82v-.5h-36.82z"/><path class="cls-6" d="M232.97 3.44h.5v6.4h-.5zm18.5 27.67h.5v9.6h-.5zm-36.82 0h.5v9.6h-.5z"/><path class="cls-3" d="M260.77 46.25h-55.19l.33-.25v-.25h54.49V46c.12.08.25.16.37.25z"/><path class="cls-6" d="M90.27 28.44l-3.3-1.76-.53-.28-2.04-1.08L57.13 10.8c-.4-.22-.84-.34-1.28-.37a2.09 2.09 0 00-.5 0c-.44.03-.88.15-1.27.37L20.94 28.44c-1.36.72-2 2.16-1.62 3.65.37 1.5 1.61 2.47 3.15 2.47h66.27c.87 0 1.65-.31 2.22-.85a3.255 3.255 0 00.93-1.62c.38-1.49-.26-2.93-1.62-3.65zm1.14 3.53c-.1.42-.32.86-.68 1.24-.16.19-.37.36-.61.5-.37.22-.83.35-1.38.35H22.47c-1.59 0-2.43-1.13-2.67-2.09-.24-.96-.02-2.35 1.38-3.09l33.13-17.63c.41-.22.85-.33 1.29-.33s.89.11 1.3.33l26.95 14.34 2.06 1.1.53.28 3.59 1.91c1.4.74 1.62 2.13 1.38 3.09z"/><path class="cls-6" d="M55.35 3.3h.5v7.43h-.5z"/><path class="cls-7" d="M32.94 34.54L20.38 135.61h36.46L81.21 34.54c.06-.69-.07-1.35-.35-1.93 0-.01 0-.03-.02-.04a3.796 3.796 0 00-3.44-2.18H36.75c-2.24 0-3.99 1.92-3.81 4.15z"/><path class="cls-8" d="M35.03 34.54l-10.78 107.6h34.37l22.59-107.6c.06-.69-.07-1.35-.35-1.93 0-.01 0-.03-.02-.04-.6-1.28-2.95-2.18-4.48-2.18H38.83c-2.24 0-3.99 1.92-3.81 4.15z"/><path class="cls-8" d="M58.26 111.18l37.64-9.63-14.62-67.84a4.205 4.205 0 00-4.11-3.32H33.1c-2.26 0-4.12 1.79-4.2 4.05l-4.27 32.48 33.63 44.26z"/><path class="cls-6" d="M76.48 80.41l-.26-.6-3.04-7.01-.77-1.76-1.77-4.11-.31-.72a5.448 5.448 0 00-4.51-3.27l-5.3-.47-1.44-.13c-1.36-.12-2.7.27-3.79 1.1l-5.37 4.1a5.455 5.455 0 00-2.08 5.17l2.61 16.76 14.71-4.25 2.28-.66 1.84-.53 1.64-.47 2.59-.75 3.56-1.03-.59-1.37zm-28.14-7.78a4.94 4.94 0 011.88-4.69l5.37-4.11c.87-.66 1.92-1.01 3-1.01.15 0 .3.01.45.02l1.29.11 5.44.49c1.81.17 3.38 1.3 4.1 2.97l.15.34 2.2 5.08.78 1.81 2.6 5.98.26.6.53 1.23-.26.07h-.02l-3.49 1.02-1.58.46-1.62.47h-.01l-2.89.83-2.27.66-13.22 3.82h-.05l-.13.05-2.51-16.2z"/><path class="cls-6" transform="rotate(-14.96 69.9 99.011)" d="M51.93 98.77h35.9v.5h-35.9z"/><path class="cls-6" d="M50.8 88.86l18.47-6.61c2.21-.82 4.59-1.07 6.92-.71l.54.08-25.93 7.24z"/><path class="cls-7" d="M64.93 112.07l-7.84 2.16-26.52-35.24.38-3.75 27.31 35.94 7.25-1.85-.58 2.74z"/><path class="cls-8" d="M92.51 284.8h51.62v30.83H92.51z"/><path class="cls-8" d="M90.92 281.41h54.81v6.78H90.92z"/><path class="cls-7" d="M92.51 288.19v1.82l51.62-1.82H92.51z"/><path class="cls-5" d="M98.97 281.41l-3.14-14.88 11.98 4.94v9.94h-8.84z"/><path class="cls-5" d="M140.08 275.16v6.25h-20.47l-11.79-9.93c.51-.95.2-2.13-.71-2.7l-12.42-7.75 1.15-2.86 21.6 13.37c2.57 1.59 5.53 2.44 8.56 2.44h7.77l6.32 1.19z"/><path class="cls-7" d="M150.09 281.41h-10.02v-6.25l5.71 1.07c1.25.23 2.32.9 3.09 1.82s1.21 2.09 1.21 3.37z"/><path class="cls-9" d="M211.62 309.69l-38.7.98h-.25l-.22.02h-.24l-17.83.46s7.11-1.67 14.52-4.34c.12-.04.25-.09.37-.13.06-.02.12-.04.18-.07l.02-.01c5.57-2.03 11.22-4.61 14.13-7.48.67-.66 1.21-1.38 1.6-2.12.09-.18.18-.36.25-.54.1-.21.19-.44.27-.66.02-.07.04-.12.07-.18.16-.49.26-.99.32-1.49 0-.01 0-.02.01-.03 0-.04.01-.1.02-.15.01-.13.03-.28.03-.41.04-.48.04-.96.01-1.46 0-.09-.01-.19-.02-.28 0-.07 0-.13-.01-.19v-.1c-.08-1.33-.69-4.79-.69-4.79l19.91 2.9 6.23 20.06z"/><path class="cls-2" d="M212.13 315.2h-57.95l.21-4.05 57.23-1.46.51 5.51zm-20.67-23l-.07.56-5.19-.67c0-.09-.01-.19-.02-.28 0-.07 0-.13-.01-.19v-.1l5.29.68zm-.15 2l-.08.55-5.1-.65s.01-.1.02-.15c.01-.13.03-.28.03-.41l5.12.66zm-.67 2.94l-.07.55-5.36-.68c.09-.18.18-.36.25-.54l5.18.67z"/><path class="cls-2" d="M173.08 310.86l-.43.36-.44-.52-3.31-3.89c.12-.04.25-.09.37-.13.06-.02.12-.04.18-.07l.02-.01 3.44 4.07.16.19z"/><path class="cls-9" d="M224.47 310.12l-38.94.99h-.23l-18.06.47s7.33-1.72 14.89-4.47c.06-.02.12-.04.18-.07 5.58-2.04 11.24-4.62 14.15-7.48 1.03-1.01 1.72-2.14 2.13-3.33l.06-.18c.16-.48.26-.98.33-1.48.01-.06.02-.12.02-.18.09-.7.09-1.42.03-2.15 0-.06 0-.13-.02-.19-.04-1.24-.7-4.88-.7-4.88l19.91 2.9 6.23 20.06z"/><path class="cls-2" d="M224.98 315.63h-57.95l.21-4.05 57.23-1.46.51 5.51z"/><path class="cls-2" d="M167.29 311.83l-.1-.49c.2-.04 20.28-4.38 29.11-11.97 3.21-2.76 2.69-6.19 2.02-10.54-.08-.54-.17-1.08-.24-1.64l.5-.07c.08.56.16 1.1.24 1.63.66 4.32 1.23 8.06-2.19 10.99-8.93 7.67-29.13 12.03-29.33 12.08z"/><path class="cls-2" transform="rotate(-82.01 201.715 292.547)" d="M201.49 289.99h.5v5.12h-.5z"/><path class="cls-2" transform="rotate(-82.01 201.58 294.55)" d="M201.35 291.99h.5v5.12h-.5z"/><path class="cls-2" transform="rotate(-82.02 200.972 297.483)" d="M200.75 294.93h.5v5.12h-.5z"/><path class="cls-2" transform="rotate(-39.17 183.977 309.337)" d="M183.76 306.67h.5v5.41h-.5z"/><ellipse class="cls-2" cx="213.46" cy="302.05" rx="3.49" ry="4.23" transform="rotate(-13.65 213.51 302.133)"/><path class="cls-6" d="M0 315.4h342v.5H0z"/><rect x="228.86" y="225.96" width="82.71" height="71.41" rx="5.67" ry="5.67" fill="#e5e4e1"/><path class="cls-6" d="M302.59 315.65h-7.58l-4.77-18.28h12.35v18.28zm-64.74 0h7.57l4.77-18.28h-12.34v18.28zM153.53 27.59l-5.39-2.87-8.29-4.41-7.63-4.06-11.82-6.29c-.4-.22-.84-.34-1.28-.37a2.09 2.09 0 00-.5 0c-.44.03-.88.15-1.28.37l-11.82 6.29-7.63 4.06-8.29 4.41-3.16 1.68-.53.29-1.7.9c-1.37.73-2 2.16-1.63 3.66.37 1.5 1.61 2.46 3.15 2.46H152c1.55 0 2.78-.96 3.16-2.46.37-1.5-.27-2.93-1.63-3.66zm1.14 3.54c-.24.96-1.08 2.08-2.67 2.08H85.73c-1.58 0-2.43-1.12-2.66-2.08-.25-.96-.03-2.35 1.37-3.1l2-1.06.53-.29 3.69-1.96 8.29-4.41 7.28-3.87 11.35-6.04c.81-.43 1.77-.43 2.58 0l11.35 6.04 7.28 3.87 8.29 4.41 6.22 3.31c1.4.75 1.61 2.14 1.37 3.1z"/><path class="cls-6" d="M118.62 3.44h.5v6.4h-.5z"/><path class="cls-2" d="M80.37 50.01c.04.11.06.21.09.32h.03l-.12-.32zm-.02-.05c-.02-.09-.04-.19-.07-.29-.13-.43-.27-.86-.42-1.29-.06-.21-.14-.43-.22-.64l-.47-1.21-.31-.8-.21-.56.21.58 1.49 4.21zm102.77 27.17l-3.59-8.92-1.76-4.37-5.88 1.7-13.94 4.04-.21.06h-.03l-.44-4.58h.04l.2-.06h.01l15-4.52 3.48-1.05-2.58-6.37v-.02l-2.66-6.61-.87-2.14-.88-2.2-.08-.19c-.27-.69-.57-1.36-.9-2.02a31.29 31.29 0 00-14.06-14.25l-1.8-.91-8.75-4.41-9.19-4.62s-.18.05-.5.15c-.24.07-.49.15-.73.2-.25.07-.51.15-.77.21a47.033 47.033 0 01-13.35 1.65c-4.24.09-8.49-.4-12.64-1.46-.24-.06-.48-.12-.71-.19-.26-.06-.52-.14-.77-.21-.24-.05-.49-.13-.73-.2-.32-.1-.5-.15-.5-.15l-9.19 4.62-8.76 4.41-1.17.6-.55.27-.07.04a31.28 31.28 0 00-6.95 4.77l-.03.03a30.701 30.701 0 00-3.4 3.63c-.14.16-.27.33-.4.5a31.474 31.474 0 00-3.29 5.32c-.32.66-.63 1.33-.9 2.02l-.07.19-.89 2.2-.86 2.14-5.24 13 12.55 3.78.84.25L80.23 65h.01l.22.06h.02l-.44 4.59h-.03l-.22-.07-5.58-1.62-.98-.28-2.58-.75-.62-.18-10.05-2.91-5.35 13.28-1.37 3.4 11.61 3.31 1.66.47.29.09h.01l.62.17 1.6.46 1.49.42 7.53 2.14.05.02-.11 1.28-.69 7.9-.05.52-.11 1.25-.38 4.41-.31 3.56-.42 4.78-.61 6.81-.38 4.41-.79 9.03h89.22l-.79-9.03-.39-4.41-.6-6.8-.73-8.35-.39-4.41-.84-9.67-.12-1.28.06-.02 9.87-2.81 8.25-2.35 6.69-1.9-1.37-3.39z"/><path class="cls-6" d="M158.85 81.12l-.14-.48 16.53-4.97.15.48-16.54 4.97z"/><path class="cls-9" d="M177.77 63.84l-20.07 5.8-.44-4.58 18.73-5.63 1.78 4.41zm-7.02-17.41l-13.47 3.89c.22-.87.5-1.74.82-2.59l1.03-2.68 9.88-2.97.88 2.2.87 2.14zm-11.01 42.45l-.28.07-.44-4.58 24.1-7.25 1.84 4.57-25.22 7.19z"/><path class="cls-7" d="M157.26 65.06l-.05.01-.11-1.23h.04l.12 1.22z"/><path class="cls-7" d="M157.56 70.79l-.63-6.5.5-.05.63 6.5-.5.05z"/><path class="cls-6" d="M78.88 81.12l-16.54-4.97.15-.48 16.53 4.97-.14.48z"/><path class="cls-9" d="M162.3 118.11H75.43l-.39 4.41h87.65l-.39-4.41zm-1.72-19.57H77.15l-.38 4.42h84.19l-.38-4.42zm-1.8-17.66l-.18-1.89H79.13l-.18 1.89-.25 2.52h80.33l-.25-2.52zM59.96 63.84l20.07 5.8.44-4.58-18.73-5.63-1.78 4.41zm7.02-17.41l13.47 3.89c-.22-.87-.5-1.74-.82-2.59l-1.03-2.68-9.88-2.97-.88 2.2-.87 2.14zm11.01 42.45l.28.07.44-4.58-24.1-7.25-1.84 4.57 25.22 7.19zm78.72-29.45H81.02l-.39 4.41h76.47l-.39-4.41z"/><path class="cls-7" d="M80.47 65.06l.05.01.11-1.23h-.04l-.12 1.22z"/><path class="cls-9" d="M161.11 39.87H76.62c-.3.6 1.35 3.76 1.66 4.33.03.06.05.08.05.08h81.08s.02-.03.05-.08c.3-.56 1.96-3.72 1.66-4.33zM143.4 20.31H94.33l-8.76 4.41h66.59l-8.76-4.41z"/><path class="cls-7" d="M80.17 70.79l-.5-.05.63-6.5.5.05-.63 6.5z"/><path class="cls-6" d="M157.01 65.09l-.63-6.53c-.27-2.81-.05-5.6.66-8.3.2-.83.47-1.68.83-2.61l3.83-10.02.47.18-3.83 10.02c-.34.91-.61 1.75-.81 2.56-.69 2.65-.91 5.38-.64 8.13l.63 6.53-.5.05zm-76.29 0l-.5-.05.63-6.53c.26-2.75.05-5.48-.64-8.12-.2-.81-.47-1.65-.81-2.56l-3.83-10.02.47-.18 3.83 10.02c.35.93.62 1.79.83 2.61.7 2.7.92 5.49.66 8.3l-.63 6.53zm-4.44 46.23l-.5-.04 4-41.66.5.04-4 41.66zm85.17 0l-3.99-41.66.49-.04 4 41.66-.5.04z"/><path class="cls-9" d="M187.39 3.76l-.07.54v.03l-4.34 35.57-.37 3.06-.83 6.78-.22 1.81-.15 1.25-7.21 59.14-7.85-.95L179.16 5.92l.2-1.62.05-.43.13-1.07s.01-.1.03-.15c.02-.12.04-.24.08-.35a2.789 2.789 0 011.02-1.41c.55-.42 1.26-.62 2-.53l2.28.28a2.8 2.8 0 012.06 1.33c.04.06.07.12.09.17.03.05.05.1.08.16.19.44.27.94.21 1.46z"/><path class="cls-3" d="M179.66 2.65v38.37c-.09.06-.17.12-.25.19-.09.06-.17.12-.25.19V5.92l.2-1.62.05-.43v-.63c0-.2.02-.4.07-.59h.18z"/><path class="cls-9" d="M187.32 3.24v48.31h-7.91V3.24c0-.2.02-.4.07-.59.02-.12.05-.24.09-.35.18-.5.5-.94.91-1.26.06-.05.12-.1.19-.15.44-.29.98-.46 1.55-.46h2.3c1.09 0 2.04.63 2.49 1.54.04.06.07.12.09.17.02.06.04.11.06.16.1.29.16.61.16.94z"/><path d="M187.32 41.2a6.538 6.538 0 00-3.95-1.32c-.13 0-.26 0-.39.02a6.43 6.43 0 00-3.32 1.12c-.09.06-.17.12-.25.19-.09.06-.17.12-.25.19a6.569 6.569 0 00-2.4 5.09c0 2.97 1.95 5.48 4.65 6.31.62.2 1.28.3 1.96.3 3.65 0 6.6-2.96 6.6-6.61 0-2.17-1.04-4.09-2.65-5.29zm-4.71 1.76a3.606 3.606 0 014.36 3.53c0 1.99-1.61 3.61-3.6 3.61-.57 0-1.11-.13-1.59-.36-1.19-.6-2.02-1.83-2.02-3.25 0-1.73 1.22-3.18 2.85-3.53z" fill="#e7c800"/><path class="cls-6" d="M263.76 177.12c-.61 2.6-.59 8.2-.56 15.27.04 9.45.09 22.53-1.59 33.51h-7.26c-5.23 0-9.48-4.24-9.48-9.48v-35.79c0-2.65 1.6-4.92 3.89-5.9h.03c.76-.32 1.61-.51 2.5-.51h13.5c-.42.85-.76 1.81-1.02 2.9zm32.78 3.52v35.79c0 5.23-4.24 9.48-9.47 9.48H264.5c1.63-10.92 1.58-23.6 1.54-33.52-.03-6.62-.05-12.34.49-14.61.33-1.39.88-2.59 1.59-3.56h22c3.54 0 6.41 2.87 6.41 6.42z"/><path class="cls-6" d="M296.46 214.35l-1.72-2.29c5.12-3.84 6.94-11.57 4.86-20.68-1.67-7.3-5.57-13.52-8.88-14.17l.55-2.81c5.31 1.04 9.49 9.2 11.12 16.34 2.34 10.24.12 19.07-5.93 23.61z"/><path class="cls-2" d="M266.54 177.78c-.53 2.27-.51 7.99-.49 14.61.04 9.91.09 22.6-1.54 33.52h-2.91c1.68-10.98 1.63-24.06 1.59-33.51-.03-7.07-.05-12.67.56-15.27.26-1.09.6-2.05 1.02-2.9h3.36c-.72.96-1.26 2.16-1.59 3.56z"/><path class="cls-6" d="M261.6 225.91h2.91c-1.34 9.01-3.84 16.81-8.43 20.85-2.28 2.01-4.97 3.03-8 3.03-.62 0-1.25-.05-1.9-.13-4.31-.56-7.46-3.58-9.36-9-6.01-17.06 2.31-56.72 9.75-64.5.79-.83 1.53-1.24 2.17-1.41h.03a2.94 2.94 0 011.55.04l-.83 2.74c-.42 0-2.2 1.4-4.63 7.64-.51 1.31-1.04 2.83-1.6 4.6-2.61 8.27-4.61 18.65-5.35 27.77-.68 8.39-1.18 28.03 8.65 29.32 3 .39 5.5-.33 7.64-2.21 3.93-3.46 6.15-10.5 7.41-18.7zm21.51-50.49l-2.7.95c-.29-.79-.7-1.52-1.21-2.15-1.44-1.8-3.7-2.87-6.07-2.75-2.04.1-3.78 1.09-5 2.75h-3.36c1.91-3.85 5.3-5.45 8.19-5.61 4.04-.22 7.84 2.04 9.63 5.61.2.38.37.78.51 1.19z"/><path class="cls-2" d="M287.26 200.56h-33.71c-3.03 0-5.5-2.46-5.5-5.5V178.4h1v16.66c0 2.48 2.02 4.5 4.5 4.5h33.71c2.48 0 4.5-2.02 4.5-4.5V178.4h1v16.66c0 3.03-2.47 5.5-5.5 5.5z"/></svg>